{
.appVersion = "1141";
customParameters = (
{
name = glyphOrder;
value = (
space,
exclam,
quotedbl,
numbersign,
dollar,
percent,
ampersand,
quotesingle,
parenleft,
parenright,
asterisk,
plus,
comma,
hyphen,
period,
slash,
zero,
one,
two,
three,
four,
five,
six,
seven,
eight,
nine,
colon,
semicolon,
less,
equal,
greater,
question,
at,
A,
B,
C,
D,
E,
F,
G,
H,
I,
J,
K,
L,
M,
N,
O,
P,
Q,
R,
S,
T,
U,
V,
W,
X,
Y,
Z,
bracketleft,
backslash,
bracketright,
asciicircum,
underscore,
grave,
a,
b,
c,
d,
e,
f,
g,
h,
i,
j,
k,
l,
m,
n,
o,
p,
q,
r,
s,
t,
u,
v,
w,
x,
y,
z,
braceleft,
bar,
braceright,
asciitilde,
exclamdown,
cent,
sterling,
currency,
yen,
brokenbar,
section,
dieresis,
copyright,
ordfeminine,
logicalnot,
registered,
macron,
degree,
plusminus,
twosuperior,
threesuperior,
acute,
paragraph,
periodcentered,
cedilla,
onesuperior,
ordmasculine,
onequarter,
onehalf,
threequarters,
questiondown,
Agrave,
Aacute,
Acircumflex,
Atilde,
Adieresis,
Aring,
AE,
Ccedilla,
Egrave,
Eacute,
Ecircumflex,
Edieresis,
Igrave,
Iacute,
Icircumflex,
Idieresis,
Eth,
Ntilde,
Ograve,
Oacute,
Ocircumflex,
Otilde,
Odieresis,
multiply,
Oslash,
OE,
Ugrave,
Uacute,
Ucircumflex,
Udieresis,
Yacute,
Thorn,
germandbls,
agrave,
aacute,
acircumflex,
atilde,
adieresis,
aring,
ae,
ccedilla,
egrave,
eacute,
ecircumflex,
edieresis,
igrave,
iacute,
icircumflex,
idieresis,
eth,
ntilde,
ograve,
oacute,
ocircumflex,
otilde,
odieresis,
divide,
oslash,
oe,
ugrave,
uacute,
ucircumflex,
udieresis,
yacute,
thorn,
ydieresis,
circumflex,
caron,
breve,
dotaccent,
ring,
ogonek,
tilde,
hungarumlaut,
quoteleft,
quoteright,
minus,
NULL,
CR,
nbspace,
zero.lf,
one.lf,
two.lf,
three.lf,
four.lf,
five.lf,
six.lf,
seven.lf,
eight.lf,
nine.lf,
foursuperior,
idotless,
jdotless,
kgreenlandic,
Germandbls,
Schwa,
schwa,
micro,
fi,
fl,
f_f,
f_f_i,
f_f_l,
euro,
florin,
franc,
lira,
naira,
peseta,
won,
dong,
kip,
peso,
guarani,
cedi,
rupeeIndian,
liraTurkish,
manat,
ruble,
colonsign,
ellipsis,
bullet,
hyphentwo,
softhyphen,
endash,
emdash,

glyphs = (
{
glyphname = exclam;
layers = (
{
layerId = "D3CBDB62-9442-4B48-8AD1-7B332142411F";
paths = (
{
closed = 1;
nodes = (
"88 170 OFFCURVE",
"148 233 OFFCURVE",
"201 233 QCURVE SMOOTH",
"248 233 OFFCURVE",
"300 166 OFFCURVE",
"293 112 QCURVE SMOOTH",
"289 52 OFFCURVE",
"229 -10 OFFCURVE",
"176 -10 QCURVE SMOOTH",
"129 -10 OFFCURVE",
"78 56 OFFCURVE",
"84 112 QCURVE SMOOTH"
);
},
{
closed = 1;
nodes = (
"343 1450 OFFCURVE",
"407 1537 OFFCURVE",
"462 1538 QCURVE SMOOTH",
"517 1539 OFFCURVE",
"549 1451 OFFCURVE",
"526 1383 QCURVE SMOOTH",
"436 1118 LINE",
"372 933 LINE",
"263 439 LINE",
"234 445 LINE",
"315 924 LINE",
"330 1130 LINE",
"340 1382 LINE SMOOTH"
);
}
);
width = 604;
}
);
unicode = 0021;
},
{
glyphname = quotedbl;
layers = (
{
layerId = "D3CBDB62-9442-4B48-8AD1-7B332142411F";
paths = (
{
closed = 1;
nodes = (
"304 1413 LINE",
"313 1461 OFFCURVE",
"361 1558 OFFCURVE",
"424 1558 QCURVE SMOOTH",
"483 1558 OFFCURVE",
"511 1461 OFFCURVE",
"502 1413 QCURVE",
"314 964 LINE",
"290 964 LINE"
);
},
{
closed = 1;
nodes = (
"674 1413 LINE",
"683 1461 OFFCURVE",
"731 1558 OFFCURVE",
"794 1558 QCURVE SMOOTH",
"853 1558 OFFCURVE",
"881 1461 OFFCURVE",
"872 1413 QCURVE",
"684 964 LINE",
"660 964 LINE"
);
}
);
width = 931;
}
);
unicode = 0022;
},
{
glyphname = numbersign;
layers = (
{
layerId = "D3CBDB62-9442-4B48-8AD1-7B332142411F";
paths = (
{
closed = 1;
nodes = (
"70 628 LINE",
"1099 628 LINE",
"1049 456 LINE",
"20 456 LINE"
);
},
{
closed = 1;
nodes = (
"175 1028 LINE",
"1204 1028 LINE",
"1154 856 LINE",
"125 856 LINE"
);
},
{
closed = 1;
nodes = (
"699 1540 LINE",
"734 1527 LINE",
"163 -78 LINE",
"128 -65 LINE"
);
},
{
closed = 1;
nodes = (
"1106 1548 LINE",
"1141 1536 LINE",
"570 -69 LINE",
"535 -57 LINE"
);
}
);
width = 1231;
}
);
unicode = 0023;
},
{
glyphname = dollar;
layers = (
{
layerId = "D3CBDB62-9442-4B48-8AD1-7B332142411F";
paths = (
{
closed = 1;
nodes = (
"8 221 LINE",
"37 162 OFFCURVE",
"206 33 OFFCURVE",
"331 33 QCURVE SMOOTH",
"491 33 OFFCURVE",
"665 220 OFFCURVE",
"663 382 QCURVE SMOOTH",
"662 480 OFFCURVE",
"524 660 OFFCURVE",
"406 749 QCURVE SMOOTH",
"302 828 OFFCURVE",
"133 1015 OFFCURVE",
"132 1166 QCURVE SMOOTH",
"131 1328 OFFCURVE",
"341 1515 OFFCURVE",
"515 1515 QCURVE SMOOTH",
"660 1515 OFFCURVE",
"826 1409 OFFCURVE",
"860 1338 QCURVE",
"811 1310 LINE",
"777 1374 OFFCURVE",
"622 1475 OFFCURVE",
"504 1475 QCURVE SMOOTH",
"407 1475 OFFCURVE",
"259 1357 OFFCURVE",
"259 1260 QCURVE SMOOTH",
"259 1161 OFFCURVE",
"401 952 OFFCURVE",
"520 863 QCURVE SMOOTH",
"642 772 OFFCURVE",
"807 565 OFFCURVE",
"807 428 QCURVE SMOOTH",
"807 237 OFFCURVE",
"511 -1 OFFCURVE",
"317 -1 QCURVE SMOOTH",
"192 -1 OFFCURVE",
"5 95 OFFCURVE",
"-39 164 QCURVE"
);
},
{
closed = 1;
nodes = (
"298 19 LINE",
"300 19 LINE",
"440 804 LINE",
"470 774 LINE",
"336 19 LINE",
"340 19 LINE",
"308 -142 LINE",
"264 -155 LINE"
);
},
{
closed = 1;
nodes = (
"625 1598 LINE",
"604 1490 LINE",
"600 1490 LINE",
"471 786 LINE",
"441 817 LINE",
"564 1490 LINE",
"562 1490 LINE",
"582 1589 LINE"
);
}
);
width = 920;
}
);
unicode = 0024;
},
{
glyphname = percent;
layers = (
{
layerId = "D3CBDB62-9442-4B48-8AD1-7B332142411F";
paths = (
{
closed = 1;
nodes = (
"177 1264 OFFCURVE",
"433 1531 OFFCURVE",
"620 1531 QCURVE SMOOTH",
"734 1531 OFFCURVE",
"900 1278 OFFCURVE",
"849 1074 QCURVE SMOOTH",
"802 884 OFFCURVE",
"547 611 OFFCURVE",
"378 611 QCURVE SMOOTH",
"244 611 OFFCURVE",
"79 868 OFFCURVE",
"130 1073 QCURVE SMOOTH"
);
},
{
closed = 1;
nodes = (
"240 909 OFFCURVE",
"300 654 OFFCURVE",
"396 654 QCURVE SMOOTH",
"499 653 OFFCURVE",
"658 883 OFFCURVE",
"699 1075 QCURVE SMOOTH",
"737 1252 OFFCURVE",
"672 1482 OFFCURVE",
"575 1482 QCURVE SMOOTH",
"472 1483 OFFCURVE",
"318 1274 OFFCURVE",
"279 1092 QCURVE SMOOTH"
);
},
{
closed = 1;
nodes = (
"1378 1520 LINE",
"1406 1497 LINE",
"363 -24 LINE",
"333 -4 LINE"
);
},
{
closed = 1;
nodes = (
"970 639 OFFCURVE",
"1226 906 OFFCURVE",
"1413 906 QCURVE SMOOTH",
"1527 906 OFFCURVE",
"1693 653 OFFCURVE",
"1642 449 QCURVE SMOOTH",
"1595 259 OFFCURVE",
"1340 -14 OFFCURVE",
"1171 -14 QCURVE SMOOTH",
"1037 -14 OFFCURVE",
"872 243 OFFCURVE",
"923 448 QCURVE SMOOTH"
);
},
{
closed = 1;
nodes = (
"1033 284 OFFCURVE",
"1093 29 OFFCURVE",
"1189 29 QCURVE SMOOTH",
"1292 28 OFFCURVE",
"1451 258 OFFCURVE",
"1492 450 QCURVE SMOOTH",
"1530 627 OFFCURVE",
"1465 857 OFFCURVE",
"1368 857 QCURVE SMOOTH",
"1265 858 OFFCURVE",
"1111 649 OFFCURVE",
"1072 467 QCURVE SMOOTH"
);
}
);
width = 1760;
}
);
unicode = 0025;
},
{
glyphname = ampersand;
layers = (
{
layerId = "D3CBDB62-9442-4B48-8AD1-7B332142411F";
paths = (
{
closed = 1;
nodes = (
"843 251 LINE",
"777 147 OFFCURVE",
"513 -23 OFFCURVE",
"342 -23 QCURVE SMOOTH",
"160 -23 OFFCURVE",
"-31 226 OFFCURVE",
"1 402 QCURVE SMOOTH",
"34 587 OFFCURVE",
"374 780 OFFCURVE",
"608 784 QCURVE",
"425 824 OFFCURVE",
"258 1060 OFFCURVE",
"293 1211 QCURVE SMOOTH",
"330 1371 OFFCURVE",
"579 1520 OFFCURVE",
"739 1520 QCURVE SMOOTH",
"835 1520 OFFCURVE",
"1000 1450 OFFCURVE",
"1010 1450 QCURVE SMOOTH",
"1026 1450 OFFCURVE",
"1058 1462 OFFCURVE",
"1080 1487 QCURVE",
"1139 1487 LINE",
"1055 1102 LINE",
"1025 1102 LINE",
"989 1391 LINE",
"966 1407 OFFCURVE",
"822 1466 OFFCURVE",
"736 1466 QCURVE SMOOTH",
"614 1466 OFFCURVE",
"488 1292 OFFCURVE",
"467 1180 QCURVE SMOOTH",
"435 1010 OFFCURVE",
"584 783 OFFCURVE",
"865 783 QCURVE SMOOTH",
"1003 783 OFFCURVE",
"1311 800 OFFCURVE",
"1385 869 QCURVE",
"1415 851 LINE",
"1396 797 OFFCURVE",
"1271 705 OFFCURVE",
"1177 705 QCURVE SMOOTH",
"1090 705 OFFCURVE",
"746 748 OFFCURVE",
"676 748 QCURVE SMOOTH",
"475 748 OFFCURVE",
"240 572 OFFCURVE",
"206 402 QCURVE SMOOTH",
"181 274 OFFCURVE",
"269 52 OFFCURVE",
"409 52 QCURVE SMOOTH",
"564 52 OFFCURVE",
"812 275 OFFCURVE",
"888 450 QCURVE SMOOTH",
"1008 727 LINE",
"1141 719 LINE",
"1030 478 OFFCURVE",
"971 147 OFFCURVE",
"1010 15 QCURVE",
"961 -4 LINE"
);
}
);
width = 1328;
}
);
unicode = 0026;
},
{
glyphname = quotesingle;
layers = (
{
layerId = "D3CBDB62-9442-4B48-8AD1-7B332142411F";
paths = (
{
closed = 1;
nodes = (
"304 1413 LINE",
"313 1461 OFFCURVE",
"361 1558 OFFCURVE",
"424 1558 QCURVE SMOOTH",
"483 1558 OFFCURVE",
"511 1461 OFFCURVE",
"502 1413 QCURVE",
"314 964 LINE",
"290 964 LINE"
);
}
);
width = 543;
}
);
unicode = 0027;
},
{
glyphname = parenleft;
layers = (
{
layerId = "D3CBDB62-9442-4B48-8AD1-7B332142411F";
paths = (
{
closed = 1;
nodes = (
"139 950 OFFCURVE",
"493 1427 OFFCURVE",
"668 1543 QCURVE",
"686 1523 LINE",
"534 1385 OFFCURVE",
"312 937 OFFCURVE",
"278 700 QCURVE SMOOTH",
"245 465 OFFCURVE",
"337 4 OFFCURVE",
"446 -131 QCURVE",
"423 -153 LINE",
"282 -37 OFFCURVE",
"67 437 OFFCURVE",
"103 698 QCURVE SMOOTH"
);
}
);
width = 598;
}
);
unicode = 0028;
},
{
glyphname = parenright;
layers = (
{
layerId = "D3CBDB62-9442-4B48-8AD1-7B332142411F";
paths = (
{
closed = 1;
nodes = (
"464 440 OFFCURVE",
"110 -37 OFFCURVE",
"-65 -153 QCURVE",
"-83 -133 LINE",
"69 5 OFFCURVE",
"291 453 OFFCURVE",
"325 690 QCURVE SMOOTH",
"358 925 OFFCURVE",
"266 1386 OFFCURVE",
"157 1521 QCURVE",
"180 1543 LINE",
"321 1427 OFFCURVE",
"536 953 OFFCURVE",
"500 692 QCURVE SMOOTH"
);
}
);
width = 598;
}
);
unicode = 0029;
},
{
glyphname = asterisk;
layers = (
{
layerId = "D3CBDB62-9442-4B48-8AD1-7B332142411F";
paths = (
{
closed = 1;
nodes = (
"432 816 OFFCURVE",
"416 875 OFFCURVE",
"435 913 QCURVE SMOOTH",
"558 1157 LINE",
"558 1159 LINE",
"310 1042 LINE SMOOTH",
"272 1024 OFFCURVE",
"217 1034 OFFCURVE",
"207 1071 QCURVE SMOOTH",
"197 1107 OFFCURVE",
"243 1150 OFFCURVE",
"282 1153 QCURVE SMOOTH",
"554 1169 LINE",
"555 1171 LINE",
"329 1323 LINE SMOOTH",
"295 1345 OFFCURVE",
"278 1406 OFFCURVE",
"305 1433 QCURVE SMOOTH",
"332 1459 OFFCURVE",
"392 1442 OFFCURVE",
"413 1407 QCURVE SMOOTH",
"562 1180 LINE",
"564 1181 LINE",
"583 1454 LINE SMOOTH",
"585 1495 OFFCURVE",
"629 1539 OFFCURVE",
"664 1529 QCURVE SMOOTH",
"701 1519 OFFCURVE",
"717 1459 OFFCURVE",
"698 1422 QCURVE SMOOTH",
"575 1178 LINE",
"576 1175 LINE",
"822 1292 LINE SMOOTH",
"860 1310 OFFCURVE",
"916 1301 OFFCURVE",
"926 1264 QCURVE SMOOTH",
"935 1228 OFFCURVE",
"891 1183 OFFCURVE",
"851 1182 QCURVE SMOOTH",
"579 1165 LINE",
"578 1163 LINE",
"804 1011 LINE SMOOTH",
"838 988 OFFCURVE",
"855 929 OFFCURVE",
"828 902 QCURVE SMOOTH",
"800 875 OFFCURVE",
"740 892 OFFCURVE",
"719 927 QCURVE SMOOTH",
"571 1155 LINE",
"569 1154 LINE",
"551 881 LINE SMOOTH",
"548 839 OFFCURVE",
"505 796 OFFCURVE",
"468 806 QCURVE SMOOTH"
);
}
);
width = 858;
}
);
unicode = 002A;
},
{
glyphname = plus;
layers = (
{
layerId = "D3CBDB62-9442-4B48-8AD1-7B332142411F";
paths = (
{
closed = 1;
nodes = (
"39 688 LINE",
"780 688 LINE",
"780 576 LINE",
"39 576 LINE"
);
},
{
closed = 1;
nodes = (
"351 1003 LINE",
"467 1003 LINE",
"467 261 LINE",
"351 261 LINE"
);
}
);
width = 879;
}
);
unicode = 002B;
},
{
glyphname = comma;
layers = (
{
layerId = "D3CBDB62-9442-4B48-8AD1-7B332142411F";
paths = (
{
closed = 1;
nodes = (
"50 -186 OFFCURVE",
"159 -59 OFFCURVE",
"184 -5 QCURVE",
"109 -7 OFFCURVE",
"28 56 OFFCURVE",
"28 115 QCURVE SMOOTH",
"28 159 OFFCURVE",
"92 226 OFFCURVE",
"144 226 QCURVE SMOOTH",
"195 226 OFFCURVE",
"272 148 OFFCURVE",
"272 73 QCURVE SMOOTH",
"272 -20 OFFCURVE",
"97 -207 OFFCURVE",
"5 -256 QCURVE",
"-1 -241 LINE"
);
}
);
width = 584;
}
);
unicode = 002C;
},
{
glyphname = hyphen;
layers = (
{
layerId = "D3CBDB62-9442-4B48-8AD1-7B332142411F";
paths = (
{
closed = 1;
nodes = (
"101 708 LINE",
"391 704 LINE",
"670 708 LINE",
"637 575 LINE",
"358 579 LINE",
"68 575 LINE"
);
}
);
width = 739;
}
);
unicode = 002D;
},
{
glyphname = period;
layers = (
{
layerId = "D3CBDB62-9442-4B48-8AD1-7B332142411F";
paths = (
{
closed = 1;
nodes = (
"60 177 OFFCURVE",
"123 243 OFFCURVE",
"178 243 QCURVE SMOOTH",
"227 243 OFFCURVE",
"281 173 OFFCURVE",
"274 117 QCURVE SMOOTH",
"270 55 OFFCURVE",
"207 -10 OFFCURVE",
"152 -10 QCURVE SMOOTH",
"103 -10 OFFCURVE",
"50 59 OFFCURVE",
"56 117 QCURVE SMOOTH"
);
}
);
width = 584;
}
);
unicode = 002E;
},
{
glyphname = slash;
layers = (
{
layerId = "D3CBDB62-9442-4B48-8AD1-7B332142411F";
paths = (
{
closed = 1;
nodes = (
"528 1543 LINE",
"574 1528 LINE",
"-39 -146 LINE",
"-86 -130 LINE"
);
}
);
width = 558;
}
);
unicode = 002F;
},
{
glyphname = zero;
layers = (
{
layerId = "D3CBDB62-9442-4B48-8AD1-7B332142411F";
paths = (
{
closed = 1;
nodes = (
"134 1087 OFFCURVE",
"479 1510 OFFCURVE",
"699 1511 QCURVE SMOOTH",
"896 1512 OFFCURVE",
"1099 1071 OFFCURVE",
"1028 748 QCURVE SMOOTH",
"961 441 OFFCURVE",
"626 -15 OFFCURVE",
"401 -15 QCURVE SMOOTH",
"204 -15 OFFCURVE",
"-7 430 OFFCURVE",
"63 758 QCURVE SMOOTH"
);
},
{
closed = 1;
nodes = (
"164 465 OFFCURVE",
"275 31 OFFCURVE",
"428 31 QCURVE SMOOTH",
"581 31 OFFCURVE",
"812 430 OFFCURVE",
"874 758 QCURVE SMOOTH",
"931 1065 OFFCURVE",
"813 1463 OFFCURVE",
"664 1463 QCURVE SMOOTH",
"503 1462 OFFCURVE",
"276 1101 OFFCURVE",
"220 784 QCURVE SMOOTH"
);
}
);
width = 1076;
}
);
unicode = 0030;
},
{
glyphname = one;
layers = (
{
layerId = "D3CBDB62-9442-4B48-8AD1-7B332142411F";
paths = (
{
closed = 1;
nodes = (
"210 14 OFFCURVE",
"226 106 OFFCURVE",
"253 269 QCURVE SMOOTH",
"417 1089 LINE",
"472 1407 LINE",
"77 1181 LINE",
"54 1224 LINE",
"645 1542 LINE",
"665 1518 LINE",
"637 1478 OFFCURVE",
"614 1324 OFFCURVE",
"609 1301 QCURVE SMOOTH",
"398 269 LINE",
"396 125 LINE",
"215 -33 LINE",
"184 -20 LINE"
);
}
);
width = 672;
}
);
unicode = 0031;
},
{
glyphname = two;
layers = (
{
layerId = "D3CBDB62-9442-4B48-8AD1-7B332142411F";
paths = (
{
closed = 1;
nodes = (
"-137 31 LINE",
"-3 160 LINE SMOOTH",
"385 534 OFFCURVE",
"691 977 OFFCURVE",
"691 1188 QCURVE SMOOTH",
"691 1309 OFFCURVE",
"581 1416 OFFCURVE",
"464 1416 QCURVE SMOOTH",
"360 1416 OFFCURVE",
"181 1314 OFFCURVE",
"124 1247 QCURVE",
"103 1258 LINE",
"170 1364 OFFCURVE",
"382 1523 OFFCURVE",
"546 1523 QCURVE SMOOTH",
"684 1523 OFFCURVE",
"862 1367 OFFCURVE",
"862 1226 QCURVE SMOOTH",
"862 1021 OFFCURVE",
"362 472 OFFCURVE",
"89 221 QCURVE",
"256 226 LINE",
"647 127 LINE",
"728 258 LINE",
"741 250 LINE",
"630 -26 LINE",
"265 96 OFFCURVE",
"-6 110 OFFCURVE",
"-117 12 QCURVE"
);
}
);
width = 911;
}
);
unicode = 0032;
},
{
glyphname = three;
layers = (
{
layerId = "D3CBDB62-9442-4B48-8AD1-7B332142411F";
paths = (
{
closed = 1;
nodes = (
"-104 230 OFFCURVE",
"-53 282 OFFCURVE",
"-14 282 QCURVE",
"2 281 LINE",
"2 219 LINE SMOOTH",
"2 140 OFFCURVE",
"142 9 OFFCURVE",
"242 9 QCURVE SMOOTH",
"417 9 OFFCURVE",
"604 231 OFFCURVE",
"604 434 QCURVE SMOOTH",
"604 605 OFFCURVE",
"456 812 OFFCURVE",
"316 818 QCURVE SMOOTH",
"216 823 LINE",
"216 837 LINE",
"282 835 LINE SMOOTH",
"436 830 OFFCURVE",
"654 1039 OFFCURVE",
"654 1187 QCURVE SMOOTH",
"654 1290 OFFCURVE",
"533 1434 OFFCURVE",
"434 1434 QCURVE SMOOTH",
"341 1434 OFFCURVE",
"167 1322 OFFCURVE",
"121 1247 QCURVE",
"108 1259 LINE",
"161 1362 OFFCURVE",
"359 1514 OFFCURVE",
"505 1514 QCURVE SMOOTH",
"654 1514 OFFCURVE",
"822 1362 OFFCURVE",
"822 1231 QCURVE SMOOTH",
"822 1102 OFFCURVE",
"566 894 OFFCURVE",
"423 841 QCURVE",
"422 834 LINE",
"570 814 OFFCURVE",
"771 631 OFFCURVE",
"771 475 QCURVE SMOOTH",
"771 293 OFFCURVE",
"438 -10 OFFCURVE",
"242 -10 QCURVE SMOOTH",
"67 -10 OFFCURVE",
"-104 106 OFFCURVE",
"-104 185 QCURVE SMOOTH"
);
}
);
width = 938;
}
);
unicode = 0033;
},
{
glyphname = four;
layers = (
{
layerId = "D3CBDB62-9442-4B48-8AD1-7B332142411F";
paths = (
{
closed = 1;
nodes = (
"-49 500 LINE",
"905 1558 LINE",
"922 1542 LINE",
"905 1497 LINE",
"745 513 LINE",
"740 486 LINE",
"697 176 LINE",
"697 43 LINE",
"517 -15 LINE",
"497 14 LINE",
"584 488 LINE",
"592 513 LINE",
"729 1309 LINE",
"33 557 LINE",
"37 547 LINE",
"667 540 LINE",
"1017 540 LINE",
"1000 464 LINE",
"656 458 LINE",
"-30 465 LINE"
);
}
);
width = 1074;
}
);
unicode = 0034;
},
{
glyphname = five;
layers = (
{
layerId = "D3CBDB62-9442-4B48-8AD1-7B332142411F";
paths = (
{
closed = 1;
nodes = (
"-118 234 OFFCURVE",
"-67 298 OFFCURVE",
"-28 298 QCURVE",
"-12 297 LINE",
"-12 227 LINE SMOOTH",
"-12 138 OFFCURVE",
"121 9 OFFCURVE",
"257 9 QCURVE SMOOTH",
"426 9 OFFCURVE",
"617 327 OFFCURVE",
"617 531 QCURVE SMOOTH",
"617 745 OFFCURVE",
"335 896 OFFCURVE",
"183 840 QCURVE SMOOTH",
"102 809 LINE",
"83 834 LINE",
"230 1467 LINE",
"262 1500 LINE",
"858 1500 LINE",
"835 1343 LINE",
"241 1343 LINE",
"230 1332 LINE",
"205 1231 OFFCURVE",
"123 913 OFFCURVE",
"107 839 QCURVE",
"325 955 LINE",
"529 970 OFFCURVE",
"777 756 OFFCURVE",
"777 536 QCURVE SMOOTH",
"777 314 OFFCURVE",
"454 -10 OFFCURVE",
"241 -10 QCURVE SMOOTH",
"53 -10 OFFCURVE",
"-118 110 OFFCURVE",
"-118 189 QCURVE SMOOTH"
);
}
);
width = 820;
}
);
unicode = 0035;
},
{
glyphname = six;
layers = (
{
layerId = "D3CBDB62-9442-4B48-8AD1-7B332142411F";
paths = (
{
closed = 1;
nodes = (
"47 806 OFFCURVE",
"608 1434 OFFCURVE",
"998 1551 QCURVE",
"1004 1530 LINE",
"702 1421 OFFCURVE",
"209 829 OFFCURVE",
"197 446 QCURVE SMOOTH",
"191 229 OFFCURVE",
"341 22 OFFCURVE",
"479 22 QCURVE SMOOTH",
"621 22 OFFCURVE",
"810 305 OFFCURVE",
"811 520 QCURVE SMOOTH",
"812 634 OFFCURVE",
"696 809 OFFCURVE",
"581 809 QCURVE SMOOTH",
"528 809 OFFCURVE",
"447 792 OFFCURVE",
"410 772 QCURVE",
"394 783 LINE",
"443 811 OFFCURVE",
"620 886 OFFCURVE",
"647 886 QCURVE SMOOTH",
"800 886 OFFCURVE",
"985 676 OFFCURVE",
"980 519 QCURVE SMOOTH",
"973 293 OFFCURVE",
"670 -17 OFFCURVE",
"435 -17 QCURVE SMOOTH",
"235 -17 OFFCURVE",
"32 252 OFFCURVE",
"38 471 QCURVE SMOOTH"
);
}
);
width = 1088;
}
);
unicode = 0036;
},
{
glyphname = seven;
layers = (
{
layerId = "D3CBDB62-9442-4B48-8AD1-7B332142411F";
paths = (
{
closed = 1;
nodes = (
"200 1500 LINE",
"1019 1500 LINE",
"1027 1464 LINE",
"831 1244 OFFCURVE",
"410 520 OFFCURVE",
"302 43 QCURVE",
"126 -31 LINE",
"113 -9 LINE",
"301 458 OFFCURVE",
"704 1102 OFFCURVE",
"869 1318 QCURVE",
"857 1332 LINE",
"182 1332 LINE",
"87 1184 LINE",
"73 1184 LINE"
);
}
);
width = 901;
}
);
unicode = 0037;
},
{
glyphname = eight;
layers = (
{
layerId = "D3CBDB62-9442-4B48-8AD1-7B332142411F";
paths = (
{
closed = 1;
nodes = (
"-45 496 OFFCURVE",
"205 723 OFFCURVE",
"401 815 QCURVE",
"421 799 LINE",
"245 716 OFFCURVE",
"99 459 OFFCURVE",
"99 327 QCURVE SMOOTH",
"99 185 OFFCURVE",
"228 15 OFFCURVE",
"372 15 QCURVE SMOOTH",
"512 15 OFFCURVE",
"720 212 OFFCURVE",
"720 352 QCURVE SMOOTH",
"720 489 OFFCURVE",
"552 673 OFFCURVE",
"464 749 QCURVE SMOOTH",
"353 845 OFFCURVE",
"207 1018 OFFCURVE",
"207 1142 QCURVE SMOOTH",
"207 1295 OFFCURVE",
"432 1530 OFFCURVE",
"623 1530 QCURVE SMOOTH",
"737 1530 OFFCURVE",
"890 1398 OFFCURVE",
"890 1292 QCURVE SMOOTH",
"890 1163 OFFCURVE",
"716 947 OFFCURVE",
"525 847 QCURVE",
"510 866 LINE",
"669 970 OFFCURVE",
"753 1167 OFFCURVE",
"753 1265 QCURVE SMOOTH",
"753 1354 OFFCURVE",
"670 1498 OFFCURVE",
"579 1498 QCURVE SMOOTH",
"472 1498 OFFCURVE",
"342 1319 OFFCURVE",
"342 1193 QCURVE SMOOTH",
"342 1102 OFFCURVE",
"462 964 OFFCURVE",
"569 867 QCURVE SMOOTH",
"667 778 OFFCURVE",
"861 557 OFFCURVE",
"861 409 QCURVE SMOOTH",
"861 239 OFFCURVE",
"570 -9 OFFCURVE",
"338 -9 QCURVE SMOOTH",
"152 -9 OFFCURVE",
"-45 175 OFFCURVE",
"-45 328 QCURVE SMOOTH"
);
}
);
width = 946;
}
);
unicode = 0038;
},
{
glyphname = nine;
layers = (
{
layerId = "D3CBDB62-9442-4B48-8AD1-7B332142411F";
paths = (
{
closed = 1;
nodes = (
"86 -32 LINE",
"467 114 OFFCURVE",
"869 655 OFFCURVE",
"874 1038 QCURVE SMOOTH",
"876 1198 OFFCURVE",
"761 1491 OFFCURVE",
"598 1491 QCURVE SMOOTH",
"456 1491 OFFCURVE",
"271 1219 OFFCURVE",
"273 1033 QCURVE SMOOTH",
"274 890 OFFCURVE",
"378 711 OFFCURVE",
"491 711 QCURVE SMOOTH",
"543 711 OFFCURVE",
"632 736 OFFCURVE",
"667 774 QCURVE",
"680 760 LINE",
"643 712 OFFCURVE",
"516 638 OFFCURVE",
"442 638 QCURVE SMOOTH",
"276 638 OFFCURVE",
"100 846 OFFCURVE",
"105 1023 QCURVE SMOOTH",
"111 1231 OFFCURVE",
"416 1514 OFFCURVE",
"641 1514 QCURVE SMOOTH",
"850 1514 OFFCURVE",
"1047 1207 OFFCURVE",
"1044 1013 QCURVE SMOOTH",
"1041 678 OFFCURVE",
"480 69 OFFCURVE",
"92 -48 QCURVE"
);
}
);
width = 1088;
}
);
unicode = 0039;
},
{
glyphname = colon;
layers = (
{
layerId = "D3CBDB62-9442-4B48-8AD1-7B332142411F";
paths = (
{
closed = 1;
nodes = (
"80 177 OFFCURVE",
"143 243 OFFCURVE",
"198 243 QCURVE SMOOTH",
"247 243 OFFCURVE",
"301 173 OFFCURVE",
"294 117 QCURVE SMOOTH",
"290 55 OFFCURVE",
"227 -10 OFFCURVE",
"172 -10 QCURVE SMOOTH",
"123 -10 OFFCURVE",
"70 59 OFFCURVE",
"76 117 QCURVE SMOOTH"
);
},
{
closed = 1;
nodes = (
"220 917 OFFCURVE",
"283 983 OFFCURVE",
"338 983 QCURVE SMOOTH",
"387 983 OFFCURVE",
"441 913 OFFCURVE",
"434 857 QCURVE SMOOTH",
"430 795 OFFCURVE",
"367 730 OFFCURVE",
"312 730 QCURVE SMOOTH",
"263 730 OFFCURVE",
"210 799 OFFCURVE",
"216 857 QCURVE SMOOTH"
);
}
);
width = 642;
}
);
unicode = 003A;
},
{
glyphname = semicolon;
layers = (
{
layerId = "D3CBDB62-9442-4B48-8AD1-7B332142411F";
paths = (
{
closed = 1;
nodes = (
"250 917 OFFCURVE",
"313 983 OFFCURVE",
"368 983 QCURVE SMOOTH",
"417 983 OFFCURVE",
"471 913 OFFCURVE",
"464 857 QCURVE SMOOTH",
"460 795 OFFCURVE",
"397 730 OFFCURVE",
"342 730 QCURVE SMOOTH",
"293 730 OFFCURVE",
"240 799 OFFCURVE",
"246 857 QCURVE SMOOTH"
);
},
{
closed = 1;
nodes = (
"101 -186 OFFCURVE",
"210 -59 OFFCURVE",
"235 -5 QCURVE",
"160 -7 OFFCURVE",
"79 56 OFFCURVE",
"79 115 QCURVE SMOOTH",
"79 159 OFFCURVE",
"143 226 OFFCURVE",
"195 226 QCURVE SMOOTH",
"246 226 OFFCURVE",
"323 148 OFFCURVE",
"323 73 QCURVE SMOOTH",
"323 -20 OFFCURVE",
"148 -207 OFFCURVE",
"56 -256 QCURVE",
"50 -241 LINE"
);
}
);
width = 642;
}
);
unicode = 003B;
},
{
glyphname = less;
layers = (
{
layerId = "D3CBDB62-9442-4B48-8AD1-7B332142411F";
paths = (
{
closed = 1;
nodes = (
"35 665 OFFCURVE",
"457 924 OFFCURVE",
"513 954 QCURVE",
"520 959 OFFCURVE",
"558 897 OFFCURVE",
"553 890 QCURVE",
"458 819 OFFCURVE",
"215 646 OFFCURVE",
"189 634 QCURVE",
"215 624 OFFCURVE",
"472 436 OFFCURVE",
"551 376 QCURVE",
"556 371 OFFCURVE",
"521 310 OFFCURVE",
"513 314 QCURVE",
"423 357 OFFCURVE",
"16 609 OFFCURVE",
"14 634 QCURVE"
);
}
);
width = 602;
}
);
unicode = 003C;
},
{
glyphname = equal;
layers = (
{
layerId = "D3CBDB62-9442-4B48-8AD1-7B332142411F";
paths = (
{
closed = 1;
nodes = (
"72 493 LINE",
"408 490 LINE",
"747 493 LINE",
"747 378 LINE",
"408 381 LINE",
"72 378 LINE"
);
},
{
closed = 1;
nodes = (
"72 844 LINE",
"408 841 LINE",
"747 844 LINE",
"747 729 LINE",
"408 732 LINE",
"72 729 LINE"
);
}
);
width = 879;
}
);
unicode = 003D;
},
{
glyphname = greater;
layers = (
{
layerId = "D3CBDB62-9442-4B48-8AD1-7B332142411F";
paths = (
{
closed = 1;
nodes = (
"507 604 OFFCURVE",
"85 345 OFFCURVE",
"29 315 QCURVE",
"22 310 OFFCURVE",
"-16 371 OFFCURVE",
"-11 378 QCURVE",
"84 449 OFFCURVE",
"327 623 OFFCURVE",
"353 635 QCURVE",
"327 645 OFFCURVE",
"70 833 OFFCURVE",
"-9 893 QCURVE",
"-14 898 OFFCURVE",
"21 959 OFFCURVE",
"29 955 QCURVE",
"119 912 OFFCURVE",
"526 660 OFFCURVE",
"528 635 QCURVE"
);
}
);
width = 602;
}
);
unicode = 003E;
},
{
glyphname = question;
layers = (
{
layerId = "D3CBDB62-9442-4B48-8AD1-7B332142411F";
paths = (
{
closed = 1;
nodes = (
"186 1387 OFFCURVE",
"410 1521 OFFCURVE",
"579 1521 QCURVE SMOOTH",
"750 1521 OFFCURVE",
"931 1352 OFFCURVE",
"931 1213 QCURVE SMOOTH",
"931 1069 OFFCURVE",
"768 862 OFFCURVE",
"619 775 QCURVE SMOOTH",
"467 686 OFFCURVE",
"320 578 OFFCURVE",
"297 503 QCURVE SMOOTH",
"267 406 LINE",
"227 416 LINE",
"242 500 LINE SMOOTH",
"255 574 OFFCURVE",
"351 744 OFFCURVE",
"530 862 QCURVE SMOOTH",
"660 947 OFFCURVE",
"785 1106 OFFCURVE",
"785 1214 QCURVE SMOOTH",
"785 1331 OFFCURVE",
"642 1460 OFFCURVE",
"525 1460 QCURVE SMOOTH",
"424 1460 OFFCURVE",
"293 1360 OFFCURVE",
"285 1311 QCURVE SMOOTH",
"281 1286 OFFCURVE",
"353 1229 OFFCURVE",
"353 1189 QCURVE SMOOTH",
"353 1155 OFFCURVE",
"299 1107 OFFCURVE",
"252 1107 QCURVE SMOOTH",
"201 1107 OFFCURVE",
"150 1187 OFFCURVE",
"164 1264 QCURVE SMOOTH"
);
},
{
closed = 1;
nodes = (
"116 170 OFFCURVE",
"176 233 OFFCURVE",
"229 233 QCURVE SMOOTH",
"276 233 OFFCURVE",
"328 166 OFFCURVE",
"321 112 QCURVE SMOOTH",
"317 52 OFFCURVE",
"257 -10 OFFCURVE",
"204 -10 QCURVE SMOOTH",
"157 -10 OFFCURVE",
"106 56 OFFCURVE",
"112 112 QCURVE SMOOTH"
);
}
);
width = 934;
}
);
unicode = 003F;
},
{
glyphname = at;
layers = (
{
layerId = "D3CBDB62-9442-4B48-8AD1-7B332142411F";
paths = (
{
closed = 1;
nodes = (
"430 833 OFFCURVE",
"724 1154 OFFCURVE",
"917 1154 QCURVE SMOOTH",
"936 1154 OFFCURVE",
"1015 1112 OFFCURVE",
"1026 1086 QCURVE",
"1090 1210 LINE",
"1132 1210 LINE",
"1160 1097 LINE",
"1052 706 LINE",
"1015 536 LINE SMOOTH",
"1005 489 OFFCURVE",
"1060 444 OFFCURVE",
"1094 444 QCURVE SMOOTH",
"1215 444 OFFCURVE",
"1430 663 OFFCURVE",
"1467 854 QCURVE SMOOTH",
"1510 1078 OFFCURVE",
"1224 1423 OFFCURVE",
"920 1423 QCURVE SMOOTH",
"639 1423 OFFCURVE",
"274 1109 OFFCURVE",
"206 777 QCURVE SMOOTH",
"137 441 OFFCURVE",
"429 45 OFFCURVE",
"668 45 QCURVE SMOOTH",
"787 45 OFFCURVE",
"963 80 OFFCURVE",
"1037 127 QCURVE",
"1047 118 LINE",
"987 67 OFFCURVE",
"751 -30 OFFCURVE",
"653 -30 QCURVE SMOOTH",
"369 -30 OFFCURVE",
"28 399 OFFCURVE",
"96 749 QCURVE SMOOTH",
"162 1087 OFFCURVE",
"659 1520 OFFCURVE",
"939 1520 QCURVE SMOOTH",
"1269 1520 OFFCURVE",
"1557 1135 OFFCURVE",
"1504 863 QCURVE SMOOTH",
"1459 630 OFFCURVE",
"1225 374 OFFCURVE",
"1082 374 QCURVE SMOOTH",
"1007 374 OFFCURVE",
"906 490 OFFCURVE",
"897 551 QCURVE",
"838 471 OFFCURVE",
"726 379 OFFCURVE",
"639 379 QCURVE SMOOTH",
"553 379 OFFCURVE",
"430 535 OFFCURVE",
"430 638 QCURVE SMOOTH"
);
},
{
closed = 1;
nodes = (
"558 567 OFFCURVE",
"640 477 OFFCURVE",
"677 477 QCURVE SMOOTH",
"761 477 OFFCURVE",
"901 594 OFFCURVE",
"941 735 QCURVE SMOOTH",
"1015 1045 LINE",
"1012 1078 OFFCURVE",
"950 1126 OFFCURVE",
"912 1126 QCURVE SMOOTH",
"729 1126 OFFCURVE",
"558 791 OFFCURVE",
"558 632 QCURVE SMOOTH"
);
}
);
width = 1562;
}
);
unicode = 0040;
},
{
glyphname = A;
layers = (
{
layerId = "D3CBDB62-9442-4B48-8AD1-7B332142411F";
paths = (
{
closed = 1;
nodes = (
"-215 25 LINE",
"-51 49 LINE",
"216 549 LINE",
"691 1506 LINE",
"810 1495 LINE",
"901 561 LINE",
"956 40 LINE",
"1084 25 LINE",
"1079 0 LINE",
"609 0 LINE",
"614 25 LINE",
"791 38 LINE",
"741 547 LINE",
"668 1358 LINE",
"652 1358 LINE",
"248 547 LINE",
"-2 45 LINE",
"194 25 LINE",
"189 0 LINE",
"-220 0 LINE"
);
},
{
closed = 1;
nodes = (
"290 667 LINE",
"528 660 LINE",
"521 632 LINE",
"273 632 LINE"
);
},
{
closed = 1;
nodes = (
"798 668 LINE",
"802 632 LINE",
"521 632 LINE",
"529 660 LINE"
);
}
);
width = 1170;
}
);
unicode = 0041;
},
{
glyphname = B;
layers = (
{
layerId = "D3CBDB62-9442-4B48-8AD1-7B332142411F";
paths = (
{
closed = 1;
nodes = (
"-100 25 LINE",
"60 40 LINE",
"222 784 LINE",
"362 1460 LINE",
"203 1471 LINE",
"209 1500 LINE",
"687 1500 LINE SMOOTH",
"874 1500 OFFCURVE",
"1038 1316 OFFCURVE",
"1013 1175 QCURVE SMOOTH",
"988 1032 OFFCURVE",
"791 856 OFFCURVE",
"672 828 QCURVE",
"670 821 LINE",
"812 787 OFFCURVE",
"965 579 OFFCURVE",
"932 414 QCURVE SMOOTH",
"894 224 OFFCURVE",
"602 0 OFFCURVE",
"397 0 QCURVE SMOOTH",
"-105 0 LINE"
);
},
{
closed = 1;
nodes = (
"260 28 LINE",
"358 28 LINE SMOOTH",
"507 28 OFFCURVE",
"715 214 OFFCURVE",
"760 426 QCURVE SMOOTH",
"798 606 OFFCURVE",
"669 804 OFFCURVE",
"555 804 QCURVE SMOOTH",
"390 804 LINE",
"386 791 LINE",
"231 49 LINE"
);
},
{
closed = 1;
nodes = (
"394 832 LINE",
"524 832 LINE SMOOTH",
"636 832 OFFCURVE",
"817 1016 OFFCURVE",
"845 1178 QCURVE SMOOTH",
"872 1334 OFFCURVE",
"747 1466 OFFCURVE",
"641 1467 QCURVE SMOOTH",
"553 1467 LINE",
"528 1453 LINE",
"399 851 LINE"
);
}
);
width = 1039;
}
);
unicode = 0042;
},
{
glyphname = C;
layers = (
{
layerId = "D3CBDB62-9442-4B48-8AD1-7B332142411F";
paths = (
{
closed = 1;
nodes = (
"139 1120 OFFCURVE",
"663 1554 OFFCURVE",
"920 1510 QCURVE SMOOTH",
"986 1499 OFFCURVE",
"1108 1444 OFFCURVE",
"1153 1401 QCURVE",
"1194 1489 LINE",
"1223 1489 LINE",
"1134 1067 LINE",
"1106 1067 LINE",
"1094 1227 LINE SMOOTH",
"1085 1342 OFFCURVE",
"986 1464 OFFCURVE",
"912 1475 QCURVE SMOOTH",
"699 1508 OFFCURVE",
"326 1192 OFFCURVE",
"237 771 QCURVE SMOOTH",
"163 422 OFFCURVE",
"292 54 OFFCURVE",
"465 24 QCURVE SMOOTH",
"659 -10 OFFCURVE",
"960 213 OFFCURVE",
"1019 385 QCURVE",
"1039 376 LINE",
"1039 366 LINE",
"982 193 OFFCURVE",
"677 -57 OFFCURVE",
"450 -25 QCURVE SMOOTH",
"217 8 OFFCURVE",
"-16 427 OFFCURVE",
"57 754 QCURVE SMOOTH"
);
}
);
width = 1133;
}
);
unicode = 0043;
},
{
glyphname = D;
layers = (
{
layerId = "D3CBDB62-9442-4B48-8AD1-7B332142411F";
paths = (
{
closed = 1;
nodes = (
"-100 25 LINE",
"69 64 LINE",
"216 759 LINE",
"362 1460 LINE",
"203 1471 LINE",
"209 1500 LINE",
"702 1500 LINE SMOOTH",
"1003 1500 OFFCURVE",
"1259 1101 OFFCURVE",
"1196 767 QCURVE SMOOTH",
"1127 400 OFFCURVE",
"720 0 OFFCURVE",
"405 0 QCURVE SMOOTH",
"-105 0 LINE"
);
},
{
closed = 1;
nodes = (
"255 49 OFFCURVE",
"373 32 OFFCURVE",
"467 32 QCURVE SMOOTH",
"680 32 OFFCURVE",
"967 382 OFFCURVE",
"1022 761 QCURVE SMOOTH",
"1070 1095 OFFCURVE",
"893 1470 OFFCURVE",
"691 1470 QCURVE SMOOTH",
"643 1470 OFFCURVE",
"552 1460 OFFCURVE",
"523 1457 QCURVE",
"379 759 LINE",
"233 58 LINE"
);
}
);
width = 1256;
}
);
unicode = 0044;
},
{
glyphname = E;
layers = (
{
layerId = "D3CBDB62-9442-4B48-8AD1-7B332142411F";
paths = (
{
closed = 1;
nodes = (
"-100 25 LINE",
"61 40 LINE",
"222 784 LINE",
"359 1460 LINE",
"204 1474 LINE",
"209 1500 LINE",
"1076 1500 LINE",
"1010 1180 LINE",
"983 1180 LINE",
"934 1470 LINE",
"553 1470 LINE",
"526 1452 LINE",
"384 784 LINE",
"229 45 LINE",
"254 28 LINE",
"686 28 LINE",
"902 350 LINE",
"928 350 LINE",
"816 0 LINE",
"-105 0 LINE"
);
},
{
closed = 1;
nodes = (
"298 820 LINE",
"696 827 LINE",
"810 987 LINE",
"836 987 LINE",
"751 585 LINE",
"725 585 LINE",
"687 783 LINE",
"292 790 LINE"
);
}
);
width = 1018;
}
);
unicode = 0045;
},
{
glyphname = F;
layers = (
{
layerId = "D3CBDB62-9442-4B48-8AD1-7B332142411F";
paths = (
{
closed = 1;
nodes = (
"-100 25 LINE",
"60 40 LINE",
"218 767 LINE",
"362 1459 LINE",
"203 1471 LINE",
"209 1500 LINE",
"1039 1500 LINE",
"971 1170 LINE",
"947 1170 LINE",
"923 1470 LINE",
"570 1470 LINE",
"529 1459 LINE",
"381 767 LINE",
"228 45 LINE",
"417 25 LINE",
"412 0 LINE",
"-105 0 LINE"
);
},
{
closed = 1;
nodes = (
"313 797 LINE",
"675 800 LINE",
"780 974 LINE",
"806 974 LINE",
"717 551 LINE",
"691 551 LINE",
"667 761 LINE",
"307 764 LINE"
);
}
);
width = 899;
}
);
unicode = 0046;
},
{
glyphname = G;
layers = (
{
layerId = "D3CBDB62-9442-4B48-8AD1-7B332142411F";
paths = (
{
closed = 1;
nodes = (
"122 1091 OFFCURVE",
"554 1518 OFFCURVE",
"823 1518 QCURVE SMOOTH",
"933 1518 OFFCURVE",
"1100 1450 OFFCURVE",
"1152 1398 QCURVE",
"1194 1489 LINE",
"1222 1489 LINE",
"1134 1075 LINE",
"1107 1075 LINE",
"1090 1274 LINE SMOOTH",
"1081 1378 OFFCURVE",
"928 1484 OFFCURVE",
"815 1484 QCURVE SMOOTH",
"627 1484 OFFCURVE",
"316 1171 OFFCURVE",
"233 766 QCURVE SMOOTH",
"165 433 OFFCURVE",
"270 71 OFFCURVE",
"442 24 QCURVE SMOOTH",
"544 -4 OFFCURVE",
"781 41 OFFCURVE",
"851 87 QCURVE",
"963 637 LINE",
"816 652 LINE",
"822 677 LINE",
"1239 677 LINE",
"1233 652 LINE",
"1121 637 LINE",
"1026 163 LINE",
"1009 153 LINE",
"875 38 OFFCURVE",
"551 -46 OFFCURVE",
"420 -16 QCURVE SMOOTH",
"207 32 OFFCURVE",
"-2 451 OFFCURVE",
"55 745 QCURVE SMOOTH"
);
}
);
width = 1246;
}
);
unicode = 0047;
},
{
glyphname = H;
layers = (
{
layerId = "D3CBDB62-9442-4B48-8AD1-7B332142411F";
paths = (
{
closed = 1;
nodes = (
"-100 25 LINE",
"60 40 LINE",
"224 794 LINE",
"362 1460 LINE",
"203 1471 LINE",
"209 1500 LINE",
"706 1500 LINE",
"700 1471 LINE",
"529 1460 LINE",
"380 768 LINE",
"227 40 LINE",
"397 25 LINE",
"392 0 LINE",
"-105 0 LINE"
);
},
{
closed = 1;
nodes = (
"315 798 LINE",
"699 795 LINE",
"1084 798 LINE",
"1077 766 LINE",
"693 766 LINE",
"308 766 LINE"
);
},
{
closed = 1;
nodes = (
"679 25 LINE",
"836 40 LINE",
"996 764 LINE",
"1138 1460 LINE",
"982 1471 LINE",
"988 1500 LINE",
"1472 1500 LINE",
"1466 1471 LINE",
"1305 1460 LINE",
"1154 748 LINE",
"1003 40 LINE",
"1163 25 LINE",
"1158 0 LINE",
"674 0 LINE"
);
}
);
width = 1367;
}
);
unicode = 0048;
},
{
glyphname = I;
layers = (
{
layerId = "D3CBDB62-9442-4B48-8AD1-7B332142411F";
paths = (
{
closed = 1;
nodes = (
"-100 25 LINE",
"73 40 LINE",
"222 754 LINE",
"370 1460 LINE",
"203 1471 LINE",
"209 1500 LINE",
"710 1500 LINE",
"704 1471 LINE",
"537 1460 LINE",
"385 754 LINE",
"241 41 LINE",
"401 25 LINE",
"396 0 LINE",
"-105 0 LINE"
);
}
);
width = 605;
}
);
unicode = 0049;
},
{
glyphname = J;
layers = (
{
layerId = "D3CBDB62-9442-4B48-8AD1-7B332142411F";
paths = (
{
closed = 1;
nodes = (
"-134 26 LINE",
"-117 26 OFFCURVE",
"-106 26 OFFCURVE",
"-97 26 QCURVE SMOOTH",
"10 26 OFFCURVE",
"113 122 OFFCURVE",
"138 239 QCURVE SMOOTH",
"243 754 LINE",
"388 1460 LINE",
"209 1471 LINE",
"215 1500 LINE",
"724 1500 LINE",
"718 1471 LINE",
"555 1460 LINE",
"406 754 LINE",
"319 323 LINE SMOOTH",
"284 149 OFFCURVE",
"109 -14 OFFCURVE",
"-12 -14 QCURVE SMOOTH",
"-53 -14 OFFCURVE",
"-112 -6 OFFCURVE",
"-140 0 QCURVE"
);
}
);
width = 608;
}
);
unicode = 004A;
},
{
glyphname = K;
layers = (
{
layerId = "D3CBDB62-9442-4B48-8AD1-7B332142411F";
paths = (
{
closed = 1;
nodes = (
"-100 25 LINE",
"61 40 LINE",
"215 754 LINE",
"361 1460 LINE",
"203 1471 LINE",
"209 1500 LINE",
"693 1500 LINE",
"687 1471 LINE",
"527 1460 LINE",
"374 740 LINE",
"227 40 LINE",
"384 25 LINE",
"379 0 LINE",
"-105 0 LINE"
);
},
{
closed = 1;
nodes = (
"272 623 LINE",
"1095 1453 LINE",
"910 1471 LINE",
"916 1500 LINE",
"1328 1500 LINE",
"1322 1471 LINE",
"1150 1452 LINE",
"267 585 LINE"
);
},
{
closed = 1;
nodes = (
"628 962 LINE",
"970 41 LINE",
"1085 25 LINE",
"1080 0 LINE",
"647 0 LINE",
"652 25 LINE",
"795 41 LINE",
"501 835 LINE"
);
}
);
width = 1168;
}
);
unicode = 004B;
},
{
glyphname = L;
layers = (
{
layerId = "D3CBDB62-9442-4B48-8AD1-7B332142411F";
paths = (
{
closed = 1;
nodes = (
"-100 25 LINE",
"60 40 LINE",
"215 754 LINE",
"361 1459 LINE",
"203 1471 LINE",
"209 1500 LINE",
"721 1500 LINE",
"715 1471 LINE",
"528 1459 LINE",
"378 754 LINE",
"226 39 LINE",
"275 28 LINE",
"682 28 LINE",
"928 383 LINE",
"956 383 LINE",
"828 0 LINE",
"-105 0 LINE"
);
}
);
width = 1015;
}
);
unicode = 004C;
},
{
glyphname = M;
layers = (
{
layerId = "D3CBDB62-9442-4B48-8AD1-7B332142411F";
paths = (
{
closed = 1;
nodes = (
"-110 25 LINE",
"86 45 LINE",
"236 747 LINE",
"376 1456 LINE",
"193 1471 LINE",
"199 1500 LINE",
"569 1500 LINE",
"649 824 LINE",
"717 189 LINE",
"1032 826 LINE",
"1389 1500 LINE",
"1737 1500 LINE",
"1731 1471 LINE",
"1570 1459 LINE",
"1418 751 LINE",
"1269 40 LINE",
"1438 25 LINE",
"1433 0 LINE",
"925 0 LINE",
"930 25 LINE",
"1102 40 LINE",
"1255 751 LINE",
"1402 1460 LINE",
"1058 799 LINE",
"664 -6 LINE",
"581 -6 LINE",
"501 750 LINE",
"412 1454 LINE",
"267 747 LINE",
"119 45 LINE",
"316 25 LINE",
"311 0 LINE",
"-115 0 LINE"
);
}
);
width = 1632;
}
);
unicode = 004D;
},
{
glyphname = N;
layers = (
{
layerId = "D3CBDB62-9442-4B48-8AD1-7B332142411F";
paths = (
{
closed = 1;
nodes = (
"-110 25 LINE",
"80 47 LINE",
"229 753 LINE",
"376 1460 LINE",
"193 1471 LINE",
"199 1500 LINE",
"542 1500 LINE",
"714 832 LINE",
"873 213 LINE",
"989 756 LINE",
"1131 1454 LINE",
"912 1471 LINE",
"918 1500 LINE",
"1366 1500 LINE",
"1360 1471 LINE",
"1165 1454 LINE",
"1018 753 LINE",
"863 0 LINE",
"763 0 LINE",
"558 797 LINE",
"403 1443 LINE",
"255 741 LINE",
"116 47 LINE",
"337 25 LINE",
"332 0 LINE",
"-115 0 LINE"
);
}
);
width = 1240;
}
);
unicode = 004E;
},
{
glyphname = O;
layers = (
{
layerId = "D3CBDB62-9442-4B48-8AD1-7B332142411F";
paths = (
{
closed = 1;
nodes = (
"185 1186 OFFCURVE",
"665 1563 OFFCURVE",
"936 1515 QCURVE SMOOTH",
"1159 1476 OFFCURVE",
"1336 1045 OFFCURVE",
"1230 670 QCURVE SMOOTH",
"1127 307 OFFCURVE",
"664 -73 OFFCURVE",
"393 -25 QCURVE SMOOTH",
"170 14 OFFCURVE",
"-24 448 OFFCURVE",
"82 823 QCURVE SMOOTH"
);
},
{
closed = 1;
nodes = (
"155 431 OFFCURVE",
"240 44 OFFCURVE",
"406 12 QCURVE SMOOTH",
"598 -24 OFFCURVE",
"958 333 OFFCURVE",
"1062 714 QCURVE SMOOTH",
"1157 1062 OFFCURVE",
"1072 1447 OFFCURVE",
"906 1477 QCURVE SMOOTH",
"714 1512 OFFCURVE",
"354 1160 OFFCURVE",
"250 779 QCURVE SMOOTH"
);
}
);
width = 1315;
}
);
unicode = 004F;
},
{
glyphname = P;
layers = (
{
layerId = "D3CBDB62-9442-4B48-8AD1-7B332142411F";
paths = (
{
closed = 1;
nodes = (
"-100 25 LINE",
"60 40 LINE",
"217 754 LINE",
"362 1459 LINE",
"203 1471 LINE",
"209 1500 LINE",
"737 1500 LINE SMOOTH",
"939 1500 OFFCURVE",
"1118 1293 OFFCURVE",
"1081 1100 QCURVE SMOOTH",
"1043 900 OFFCURVE",
"780 685 OFFCURVE",
"546 685 QCURVE SMOOTH",
"485 685 OFFCURVE",
"347 713 OFFCURVE",
"313 732 QCURVE",
"329 761 LINE",
"369 738 OFFCURVE",
"470 716 OFFCURVE",
"548 716 QCURVE SMOOTH",
"680 716 OFFCURVE",
"869 904 OFFCURVE",
"906 1106 QCURVE SMOOTH",
"938 1286 OFFCURVE",
"816 1472 OFFCURVE",
"677 1472 QCURVE SMOOTH",
"557 1472 LINE",
"524 1448 LINE",
"383 764 LINE",
"228 44 LINE",
"424 25 LINE",
"419 0 LINE",
"-105 0 LINE"
);
}
);
width = 1042;
}
);
unicode = 0050;
},
{
glyphname = Q;
layers = (
{
layerId = "D3CBDB62-9442-4B48-8AD1-7B332142411F";
paths = (
{
closed = 1;
nodes = (
"157 1178 OFFCURVE",
"675 1554 OFFCURVE",
"935 1515 QCURVE SMOOTH",
"1159 1481 OFFCURVE",
"1335 1045 OFFCURVE",
"1229 670 QCURVE SMOOTH",
"1126 307 OFFCURVE",
"661 -74 OFFCURVE",
"391 -21 QCURVE SMOOTH",
"162 24 OFFCURVE",
"-9 440 OFFCURVE",
"78 827 QCURVE SMOOTH"
);
},
{
closed = 1;
nodes = (
"167 474 OFFCURVE",
"240 54 OFFCURVE",
"404 16 QCURVE SMOOTH",
"594 -28 OFFCURVE",
"967 333 OFFCURVE",
"1071 714 QCURVE SMOOTH",
"1166 1062 OFFCURVE",
"1072 1453 OFFCURVE",
"905 1477 QCURVE SMOOTH",
"711 1505 OFFCURVE",
"337 1201 OFFCURVE",
"249 823 QCURVE SMOOTH"
);
},
{
closed = 1;
nodes = (
"41 -200 OFFCURVE",
"225 -83 OFFCURVE",
"284 -60 QCURVE",
"490 92 LINE",
"492 111 OFFCURVE",
"497 116 OFFCURVE",
"514 130 QCURVE",
"537 143 OFFCURVE",
"563 120 OFFCURVE",
"556 101 QCURVE",
"542 83 OFFCURVE",
"537 79 OFFCURVE",
"516 75 QCURVE",
"315 -81 LINE",
"654 -209 LINE SMOOTH",
"817 -270 OFFCURVE",
"978 -228 OFFCURVE",
"1051 -137 QCURVE",
"1072 -150 LINE",
"1017 -244 OFFCURVE",
"858 -364 OFFCURVE",
"762 -389 QCURVE",
"265 -204 LINE SMOOTH",
"200 -180 OFFCURVE",
"87 -199 OFFCURVE",
"20 -268 QCURVE",
"5 -248 LINE"
);
}
);
width = 1315;
}
);
unicode = 0051;
},
{
glyphname = R;
layers = (
{
layerId = "D3CBDB62-9442-4B48-8AD1-7B332142411F";
paths = (
{
closed = 1;
nodes = (
"-100 25 LINE",
"60 40 LINE",
"215 754 LINE",
"362 1460 LINE",
"203 1471 LINE",
"209 1500 LINE",
"722 1500 LINE SMOOTH",
"906 1500 OFFCURVE",
"1058 1319 OFFCURVE",
"1031 1174 QCURVE SMOOTH",
"998 998 OFFCURVE",
"750 791 OFFCURVE",
"598 791 QCURVE SMOOTH",
"539 791 OFFCURVE",
"377 797 OFFCURVE",
"331 801 QCURVE",
"338 824 LINE",
"425 821 LINE",
"539 821 LINE SMOOTH",
"662 821 OFFCURVE",
"818 1005 OFFCURVE",
"853 1174 QCURVE SMOOTH",
"885 1327 OFFCURVE",
"810 1470 OFFCURVE",
"705 1470 QCURVE SMOOTH",
"557 1470 LINE",
"528 1448 LINE",
"377 751 LINE",
"227 40 LINE",
"396 25 LINE",
"391 0 LINE",
"-105 0 LINE"
);
},
{
closed = 1;
nodes = (
"727 834 LINE",
"758 708 LINE SMOOTH",
"853 320 OFFCURVE",
"1006 20 OFFCURVE",
"1160 5 QCURVE",
"1152 -11 LINE",
"1123 -11 LINE",
"898 -11 OFFCURVE",
"684 304 OFFCURVE",
"606 662 QCURVE SMOOTH",
"576 800 LINE"
);
}
);
width = 1124;
}
);
unicode = 0052;
},
{
glyphname = S;
layers = (
{
layerId = "D3CBDB62-9442-4B48-8AD1-7B332142411F";
paths = (
{
closed = 1;
nodes = (
"-12 423 LINE",
"16 423 LINE",
"43 278 LINE SMOOTH",
"68 145 OFFCURVE",
"234 10 OFFCURVE",
"357 10 QCURVE SMOOTH",
"481 10 OFFCURVE",
"627 135 OFFCURVE",
"655 251 QCURVE SMOOTH",
"689 395 OFFCURVE",
"561 611 OFFCURVE",
"414 726 QCURVE SMOOTH",
"292 821 OFFCURVE",
"139 1058 OFFCURVE",
"174 1217 QCURVE SMOOTH",
"206 1363 OFFCURVE",
"425 1515 OFFCURVE",
"573 1515 QCURVE SMOOTH",
"680 1515 OFFCURVE",
"818 1453 OFFCURVE",
"865 1410 QCURVE",
"923 1487 LINE",
"946 1487 LINE",
"866 1107 LINE",
"839 1107 LINE",
"813 1258 LINE SMOOTH",
"797 1351 OFFCURVE",
"690 1484 OFFCURVE",
"574 1484 QCURVE SMOOTH",
"467 1484 OFFCURVE",
"327 1378 OFFCURVE",
"306 1274 QCURVE SMOOTH",
"282 1155 OFFCURVE",
"382 977 OFFCURVE",
"543 853 QCURVE SMOOTH",
"704 729 OFFCURVE",
"836 485 OFFCURVE",
"802 321 QCURVE SMOOTH",
"771 172 OFFCURVE",
"523 -20 OFFCURVE",
"360 -20 QCURVE SMOOTH",
"228 -20 OFFCURVE",
"72 67 OFFCURVE",
"32 124 QCURVE",
"-72 1 LINE",
"-101 10 LINE"
);
}
);
width = 920;
}
);
unicode = 0053;
},
{
glyphname = T;
layers = (
{
layerId = "D3CBDB62-9442-4B48-8AD1-7B332142411F";
paths = (
{
closed = 1;
nodes = (
"187 1500 LINE",
"1193 1500 LINE",
"1124 1165 LINE",
"1097 1165 LINE",
"1042 1471 LINE",
"788 1471 LINE",
"761 1459 LINE",
"614 754 LINE",
"471 43 LINE",
"639 25 LINE",
"634 0 LINE",
"113 0 LINE",
"118 25 LINE",
"304 43 LINE",
"451 754 LINE",
"599 1459 LINE",
"582 1471 LINE",
"317 1471 LINE",
"145 1165 LINE",
"118 1165 LINE"
);
}
);
width = 1066;
}
);
unicode = 0054;
},
{
glyphname = U;
layers = (
{
layerId = "D3CBDB62-9442-4B48-8AD1-7B332142411F";
paths = (
{
closed = 1;
nodes = (
"190 1500 LINE",
"674 1500 LINE",
"668 1471 LINE",
"511 1460 LINE",
"366 794 LINE SMOOTH",
"340 676 OFFCURVE",
"266 290 OFFCURVE",
"266 215 QCURVE SMOOTH",
"266 117 OFFCURVE",
"392 22 OFFCURVE",
"517 22 QCURVE SMOOTH",
"686 22 OFFCURVE",
"912 206 OFFCURVE",
"958 418 QCURVE SMOOTH",
"1039 794 LINE",
"1171 1452 LINE",
"960 1471 LINE",
"966 1500 LINE",
"1422 1500 LINE",
"1416 1471 LINE",
"1206 1452 LINE",
"1073 794 LINE",
"996 425 LINE SMOOTH",
"948 196 OFFCURVE",
"688 -25 OFFCURVE",
"496 -25 QCURVE SMOOTH",
"289 -25 OFFCURVE",
"108 143 OFFCURVE",
"108 258 QCURVE SMOOTH",
"108 337 OFFCURVE",
"181 683 OFFCURVE",
"204 794 QCURVE SMOOTH",
"343 1460 LINE",
"184 1471 LINE"
);
}
);
width = 1254;
}
);
unicode = 0055;
},
{
glyphname = V;
layers = (
{
layerId = "D3CBDB62-9442-4B48-8AD1-7B332142411F";
paths = (
{
closed = 1;
nodes = (
"111 1500 LINE",
"553 1500 LINE",
"548 1473 LINE",
"406 1461 LINE",
"458 818 LINE",
"505 149 LINE",
"511 148 LINE",
"831 813 LINE",
"1149 1457 LINE",
"949 1473 LINE",
"954 1500 LINE",
"1382 1500 LINE",
"1377 1473 LINE",
"1184 1455 LINE",
"860 803 LINE",
"481 -6 LINE",
"362 -6 LINE",
"297 774 LINE",
"238 1460 LINE",
"106 1473 LINE"
);
}
);
width = 1127;
}
);
unicode = 0056;
},
{
glyphname = W;
layers = (
{
layerId = "D3CBDB62-9442-4B48-8AD1-7B332142411F";
paths = (
{
closed = 1;
nodes = (
"91 1500 LINE",
"536 1500 LINE",
"531 1473 LINE",
"377 1459 LINE",
"429 836 LINE",
"478 225 LINE",
"483 225 LINE",
"699 681 LINE",
"917 1154 LINE",
"942 1114 LINE",
"734 668 LINE",
"424 -6 LINE",
"335 -6 LINE",
"267 822 LINE",
"213 1460 LINE",
"86 1473 LINE"
);
},
{
closed = 1;
nodes = (
"707 1500 LINE",
"1149 1500 LINE",
"1146 1479 LINE",
"987 1460 LINE",
"1024 830 LINE",
"1057 218 LINE",
"1063 218 LINE",
"1355 828 LINE",
"1654 1456 LINE",
"1455 1473 LINE",
"1460 1500 LINE",
"1909 1500 LINE",
"1904 1473 LINE",
"1698 1455 LINE",
"1390 810 LINE",
"1006 -6 LINE",
"917 -6 LINE",
"863 821 LINE",
"823 1460 LINE",
"704 1479 LINE"
);
}
);
width = 1663;
}
);
unicode = 0057;
},
{
glyphname = X;
layers = (
{
layerId = "D3CBDB62-9442-4B48-8AD1-7B332142411F";
paths = (
{
closed = 1;
nodes = (
"-206 25 LINE",
"-27 47 LINE",
"540 829 LINE",
"575 829 LINE",
"1029 1456 LINE",
"834 1471 LINE",
"840 1500 LINE",
"1261 1500 LINE",
"1255 1471 LINE",
"1067 1455 LINE",
"586 790 LINE",
"551 790 LINE",
"16 45 LINE",
"215 25 LINE",
"210 0 LINE",
"-211 0 LINE"
);
},
{
closed = 1;
nodes = (
"152 1500 LINE",
"577 1500 LINE",
"571 1470 LINE",
"432 1460 LINE",
"619 868 LINE",
"885 40 LINE",
"1006 25 LINE",
"1001 0 LINE",
"560 0 LINE",
"565 25 LINE",
"714 40 LINE",
"495 745 LINE",
"260 1460 LINE",
"146 1470 LINE"
);
}
);
width = 1109;
}
);
unicode = 0058;
},
{
glyphname = Y;
layers = (
{
layerId = "D3CBDB62-9442-4B48-8AD1-7B332142411F";
paths = (
{
closed = 1;
nodes = (
"96 1500 LINE",
"547 1500 LINE",
"541 1471 LINE",
"403 1460 LINE",
"487 1082 LINE",
"569 720 LINE",
"775 1048 LINE",
"1036 1455 LINE",
"837 1471 LINE",
"843 1500 LINE",
"1265 1500 LINE",
"1259 1471 LINE",
"1077 1455 LINE",
"804 1036 LINE",
"581 670 LINE",
"451 40 LINE",
"614 27 LINE",
"608 0 LINE",
"109 0 LINE",
"115 27 LINE",
"284 40 LINE",
"416 662 LINE",
"329 1044 LINE",
"236 1459 LINE",
"90 1471 LINE"
);
}
);
width = 1021;
}
);
unicode = 0059;
},
{
glyphname = Z;
layers = (
{
layerId = "D3CBDB62-9442-4B48-8AD1-7B332142411F";
paths = (
{
closed = 1;
nodes = (
"-111 54 LINE",
"406 803 LINE",
"861 1462 LINE",
"854 1470 LINE",
"368 1470 LINE",
"174 1124 LINE",
"145 1124 LINE",
"223 1500 LINE",
"1045 1500 LINE",
"1035 1450 LINE",
"519 703 LINE",
"58 35 LINE",
"60 28 LINE",
"600 28 LINE",
"829 351 LINE",
"855 351 LINE",
"741 0 LINE",
"-105 0 LINE"
);
}
);
width = 951;
}
);
unicode = 005A;
},
{
glyphname = bracketleft;
layers = (
{
layerId = "D3CBDB62-9442-4B48-8AD1-7B332142411F";
paths = (
{
closed = 1;
nodes = (
"305 1449 LINE",
"290 1469 LINE",
"296 1500 LINE",
"694 1500 LINE",
"686 1471 LINE",
"476 1453 LINE",
"315 711 LINE",
"152 -100 LINE",
"387 -119 LINE",
"378 -146 LINE",
"-53 -151 LINE",
"-41 -120 LINE",
"-8 -100 LINE",
"159 711 LINE"
);
}
);
width = 607;
}
);
unicode = 005B;
},
{
glyphname = backslash;
layers = (
{
layerId = "D3CBDB62-9442-4B48-8AD1-7B332142411F";
paths = (
{
closed = 1;
nodes = (
"155 1529 LINE",
"446 -144 LINE",
"399 -161 LINE",
"108 1512 LINE"
);
}
);
width = 552;
}
);
unicode = 005C;
},
{
glyphname = bracketright;
layers = (
{
layerId = "D3CBDB62-9442-4B48-8AD1-7B332142411F";
paths = (
{
closed = 1;
nodes = (
"-95 -122 LINE",
"115 -104 LINE",
"286 638 LINE",
"459 1449 LINE",
"224 1468 LINE",
"233 1495 LINE",
"664 1500 LINE",
"652 1469 LINE",
"619 1449 LINE",
"442 638 LINE",
"286 -100 LINE",
"301 -120 LINE",
"295 -151 LINE",
"-103 -151 LINE"
);
}
);
width = 607;
}
);
unicode = 005D;
},
{
glyphname = asciicircum;
layers = (
{
layerId = "D3CBDB62-9442-4B48-8AD1-7B332142411F";
paths = (
{
closed = 1;
nodes = (
"254 1053 OFFCURVE",
"710 1517 OFFCURVE",
"710 1517 QCURVE",
"710 1517 OFFCURVE",
"1011 1051 OFFCURVE",
"1048 981 QCURVE",
"1019 959 LINE",
"929 1056 OFFCURVE",
"652 1394 OFFCURVE",
"652 1394 QCURVE",
"652 1394 OFFCURVE",
"329 1079 OFFCURVE",
"213 958 QCURVE",
"192 980 LINE"
);
}
);
width = 1069;
}
);
unicode = 005E;
},
{
glyphname = underscore;
layers = (
{
layerId = "D3CBDB62-9442-4B48-8AD1-7B332142411F";
paths = (
{
closed = 1;
nodes = (
"-216 -342 LINE",
"532 -342 LINE",
"1272 -342 LINE",
"1265 -385 LINE",
"521 -389 LINE",
"-223 -385 LINE"
);
}
);
width = 1448;
}
);
unicode = 005F;
},
{
glyphname = grave;
layers = (
{
layerId = "D3CBDB62-9442-4B48-8AD1-7B332142411F";
paths = (
{
closed = 1;
nodes = (
"583 1030 LINE",
"603 1046 LINE",
"444 1294 LINE SMOOTH",
"430 1315 OFFCURVE",
"392 1338 OFFCURVE",
"373 1338 QCURVE SMOOTH",
"348 1338 OFFCURVE",
"311 1304 OFFCURVE",
"311 1278 QCURVE SMOOTH",
"311 1264 OFFCURVE",
"328 1226 OFFCURVE",
"344 1214 QCURVE SMOOTH"
);
}
);
width = 896;
}
);
unicode = 0060;
},
{
glyphname = a;
layers = (
{
layerId = "D3CBDB62-9442-4B48-8AD1-7B332142411F";
paths = (
{
closed = 1;
nodes = (
"-16 536 OFFCURVE",
"382 937 OFFCURVE",
"554 937 QCURVE SMOOTH",
"603 937 OFFCURVE",
"669 909 OFFCURVE",
"690 875 QCURVE",
"767 936 LINE",
"786 929 LINE",
"821 863 LINE",
"710 402 LINE",
"667 195 LINE",
"659 124 OFFCURVE",
"671 35 OFFCURVE",
"696 -8 QCURVE",
"678 -18 LINE",
"638 1 OFFCURVE",
"546 114 OFFCURVE",
"518 190 QCURVE",
"452 96 OFFCURVE",
"278 -5 OFFCURVE",
"181 -5 QCURVE SMOOTH",
"83 -5 OFFCURVE",
"-16 133 OFFCURVE",
"-16 250 QCURVE SMOOTH"
);
},
{
closed = 1;
nodes = (
"126 174 OFFCURVE",
"201 57 OFFCURVE",
"273 57 QCURVE SMOOTH",
"369 57 OFFCURVE",
"536 233 OFFCURVE",
"582 431 QCURVE SMOOTH",
"669 845 LINE",
"659 873 OFFCURVE",
"605 914 OFFCURVE",
"554 914 QCURVE SMOOTH",
"389 914 OFFCURVE",
"126 505 OFFCURVE",
"126 280 QCURVE SMOOTH"
);
}
);
width = 949;
}
);
unicode = 0061;
},
{
glyphname = b;
layers = (
{
layerId = "D3CBDB62-9442-4B48-8AD1-7B332142411F";
paths = (
{
closed = 1;
nodes = (
"107 596 LINE",
"286 1472 LINE",
"152 1472 LINE",
"161 1500 LINE",
"435 1581 LINE",
"454 1557 LINE",
"241 585 LINE",
"165 167 LINE SMOOTH",
"153 104 OFFCURVE",
"213 12 OFFCURVE",
"291 12 QCURVE SMOOTH",
"458 12 OFFCURVE",
"708 422 OFFCURVE",
"708 647 QCURVE SMOOTH",
"708 751 OFFCURVE",
"639 868 OFFCURVE",
"570 868 QCURVE SMOOTH",
"472 868 OFFCURVE",
"275 729 OFFCURVE",
"205 631 QCURVE",
"198 653 LINE",
"276 763 OFFCURVE",
"526 938 OFFCURVE",
"644 938 QCURVE SMOOTH",
"756 938 OFFCURVE",
"856 797 OFFCURVE",
"856 669 QCURVE SMOOTH",
"856 370 OFFCURVE",
"492 -11 OFFCURVE",
"309 -11 QCURVE SMOOTH",
"215 -11 OFFCURVE",
"95 79 OFFCURVE",
"73 137 QCURVE",
"17 67 LINE",
"1 75 LINE"
);
}
);
width = 947;
}
);
unicode = 0062;
},
{
glyphname = c;
layers = (
{
layerId = "D3CBDB62-9442-4B48-8AD1-7B332142411F";
paths = (
{
closed = 1;
nodes = (
"56 681 OFFCURVE",
"356 938 OFFCURVE",
"533 938 QCURVE SMOOTH",
"638 938 OFFCURVE",
"745 836 OFFCURVE",
"745 767 QCURVE SMOOTH",
"745 723 OFFCURVE",
"695 623 OFFCURVE",
"639 600 QCURVE",
"622 613 LINE",
"622 850 LINE SMOOTH",
"622 870 OFFCURVE",
"562 902 OFFCURVE",
"520 902 QCURVE SMOOTH",
"397 902 OFFCURVE",
"191 666 OFFCURVE",
"154 465 QCURVE SMOOTH",
"116 261 OFFCURVE",
"202 69 OFFCURVE",
"313 69 QCURVE SMOOTH",
"440 69 OFFCURVE",
"641 204 OFFCURVE",
"695 300 QCURVE",
"710 288 LINE",
"710 269 LINE",
"640 163 OFFCURVE",
"417 -9 OFFCURVE",
"273 -9 QCURVE SMOOTH",
"128 -9 OFFCURVE",
"-28 262 OFFCURVE",
"13 467 QCURVE SMOOTH"
);
}
);
width = 833;
}
);
unicode = 0063;
},
{
glyphname = d;
layers = (
{
layerId = "D3CBDB62-9442-4B48-8AD1-7B332142411F";
paths = (
{
closed = 1;
nodes = (
"-19 548 OFFCURVE",
"393 928 OFFCURVE",
"674 919 QCURVE SMOOTH",
"706 919 LINE",
"807 1465 LINE",
"658 1465 LINE",
"666 1496 LINE",
"951 1575 LINE",
"977 1557 LINE",
"769 469 LINE",
"711 89 LINE",
"844 99 LINE",
"846 74 LINE",
"601 -6 LINE",
"577 14 LINE",
"575 212 LINE",
"496 107 OFFCURVE",
"263 -5 OFFCURVE",
"186 -5 QCURVE SMOOTH",
"75 -5 OFFCURVE",
"-19 139 OFFCURVE",
"-19 248 QCURVE SMOOTH"
);
},
{
closed = 1;
nodes = (
"126 159 OFFCURVE",
"215 50 OFFCURVE",
"266 50 QCURVE SMOOTH",
"376 50 OFFCURVE",
"602 305 OFFCURVE",
"630 463 QCURVE SMOOTH",
"695 832 LINE",
"690 860 OFFCURVE",
"626 883 OFFCURVE",
"585 883 QCURVE SMOOTH",
"405 883 OFFCURVE",
"126 519 OFFCURVE",
"126 300 QCURVE SMOOTH"
);
}
);
width = 988;
}
);
unicode = 0064;
},
{
glyphname = e;
layers = (
{
layerId = "D3CBDB62-9442-4B48-8AD1-7B332142411F";
paths = (
{
closed = 1;
nodes = (
"36 614 OFFCURVE",
"321 938 OFFCURVE",
"491 938 QCURVE SMOOTH",
"597 938 OFFCURVE",
"740 804 OFFCURVE",
"740 700 QCURVE SMOOTH",
"740 671 OFFCURVE",
"732 631 OFFCURVE",
"727 619 QCURVE",
"758 604 LINE",
"748 577 LINE",
"701 581 OFFCURVE",
"560 583 OFFCURVE",
"498 583 QCURVE SMOOTH",
"139 587 LINE",
"144 605 LINE",
"570 617 LINE",
"581 651 OFFCURVE",
"595 715 OFFCURVE",
"597 757 QCURVE SMOOTH",
"600 829 OFFCURVE",
"545 909 OFFCURVE",
"488 909 QCURVE SMOOTH",
"403 909 OFFCURVE",
"211 684 OFFCURVE",
"163 473 QCURVE SMOOTH",
"130 329 OFFCURVE",
"190 84 OFFCURVE",
"310 73 QCURVE SMOOTH",
"422 63 OFFCURVE",
"637 202 OFFCURVE",
"695 301 QCURVE",
"710 286 LINE",
"710 269 LINE",
"639 160 OFFCURVE",
"416 -19 OFFCURVE",
"258 -5 QCURVE SMOOTH",
"116 8 OFFCURVE",
"-16 243 OFFCURVE",
"8 413 QCURVE SMOOTH"
);
}
);
width = 855;
}
);
unicode = 0065;
},
{
glyphname = f;
layers = (
{
layerId = "D3CBDB62-9442-4B48-8AD1-7B332142411F";
paths = (
{
closed = 1;
nodes = (
"-454 -395 LINE",
"-323 -395 LINE SMOOTH",
"-122 -395 OFFCURVE",
"38 -103 OFFCURVE",
"89 312 QCURVE SMOOTH",
"156 852 LINE",
"158 857 LINE",
"196 1107 LINE SMOOTH",
"231 1335 OFFCURVE",
"419 1551 OFFCURVE",
"547 1550 QCURVE SMOOTH",
"642 1549 OFFCURVE",
"740 1478 OFFCURVE",
"740 1419 QCURVE SMOOTH",
"740 1371 OFFCURVE",
"675 1329 OFFCURVE",
"615 1329 QCURVE",
"618 1352 OFFCURVE",
"622 1419 OFFCURVE",
"622 1445 QCURVE SMOOTH",
"622 1476 OFFCURVE",
"593 1517 OFFCURVE",
"551 1518 QCURVE SMOOTH",
"482 1520 OFFCURVE",
"366 1342 OFFCURVE",
"331 1084 QCURVE SMOOTH",
"302 858 LINE",
"301 851 LINE",
"270 581 LINE SMOOTH",
"206 24 OFFCURVE",
"-119 -479 OFFCURVE",
"-306 -479 QCURVE",
"-466 -419 LINE"
);
},
{
closed = 1;
nodes = (
"5 871 LINE",
"183 867 LINE",
"504 875 LINE",
"498 846 LINE",
"223 831 LINE",
"183 839 LINE",
"5 830 LINE"
);
}
);
width = 467;
}
);
unicode = 0066;
},
{
glyphname = g;
layers = (
{
layerId = "D3CBDB62-9442-4B48-8AD1-7B332142411F";
paths = (
{
closed = 1;
nodes = (
"-17 524 OFFCURVE",
"405 938 OFFCURVE",
"577 938 QCURVE SMOOTH",
"625 938 OFFCURVE",
"701 906 OFFCURVE",
"727 870 QCURVE",
"804 941 LINE",
"820 940 LINE",
"868 855 LINE",
"791 581 LINE",
"729 24 OFFCURVE",
"292 -479 OFFCURVE",
"105 -479 QCURVE",
"-55 -419 LINE",
"-43 -395 LINE",
"88 -395 LINE SMOOTH",
"277 -395 OFFCURVE",
"553 -140 OFFCURVE",
"598 218 QCURVE SMOOTH",
"602 250 LINE",
"528 146 OFFCURVE",
"311 -4 OFFCURVE",
"184 -4 QCURVE SMOOTH",
"67 -4 OFFCURVE",
"-17 164 OFFCURVE",
"-17 267 QCURVE SMOOTH"
);
},
{
closed = 1;
nodes = (
"128 204 OFFCURVE",
"204 57 OFFCURVE",
"280 57 QCURVE SMOOTH",
"375 57 OFFCURVE",
"595 261 OFFCURVE",
"632 437 QCURVE SMOOTH",
"714 830 LINE",
"699 869 OFFCURVE",
"635 900 OFFCURVE",
"577 900 QCURVE SMOOTH",
"410 900 OFFCURVE",
"128 515 OFFCURVE",
"128 296 QCURVE SMOOTH"
);
}
);
width = 971;
}
);
unicode = 0067;
},
{
glyphname = h;
layers = (
{
layerId = "D3CBDB62-9442-4B48-8AD1-7B332142411F";
paths = (
{
closed = 1;
nodes = (
"7 38 LINE",
"121 599 LINE",
"281 1471 LINE",
"127 1471 LINE",
"138 1502 LINE",
"421 1580 LINE",
"444 1556 LINE",
"250 598 LINE",
"165 98 LINE",
"167 11 LINE",
"11 -13 LINE"
);
},
{
closed = 1;
nodes = (
"529 82 LINE",
"664 696 LINE SMOOTH",
"680 769 OFFCURVE",
"619 871 OFFCURVE",
"575 871 QCURVE SMOOTH",
"506 871 OFFCURVE",
"327 719 OFFCURVE",
"237 596 QCURVE",
"225 619 LINE",
"291 723 OFFCURVE",
"557 942 OFFCURVE",
"641 942 QCURVE SMOOTH",
"714 942 OFFCURVE",
"822 774 OFFCURVE",
"804 693 QCURVE SMOOTH",
"669 78 LINE",
"819 107 LINE",
"819 87 LINE",
"588 -11 LINE"
);
}
);
width = 995;
}
);
unicode = 0068;
},
{
glyphname = i;
layers = (
{
layerId = "D3CBDB62-9442-4B48-8AD1-7B332142411F";
paths = (
{
closed = 1;
nodes = (
"6 61 LINE",
"121 547 LINE",
"168 833 LINE",
"22 851 LINE",
"25 872 LINE",
"305 922 LINE",
"332 908 LINE",
"317 840 LINE",
"280 665 LINE",
"161 84 LINE",
"338 102 LINE",
"338 82 LINE",
"55 -14 LINE"
);
},
{
closed = 1;
nodes = (
"257 1372 OFFCURVE",
"310 1428 OFFCURVE",
"355 1428 QCURVE SMOOTH",
"397 1428 OFFCURVE",
"443 1368 OFFCURVE",
"437 1322 QCURVE SMOOTH",
"433 1270 OFFCURVE",
"380 1215 OFFCURVE",
"335 1215 QCURVE SMOOTH",
"293 1215 OFFCURVE",
"247 1274 OFFCURVE",
"253 1322 QCURVE SMOOTH"
);
}
);
width = 468;
}
);
unicode = 0069;
},
{
glyphname = j;
layers = (
{
layerId = "D3CBDB62-9442-4B48-8AD1-7B332142411F";
paths = (
{
closed = 1;
nodes = (
"90 249 OFFCURVE",
"164 651 OFFCURVE",
"189 824 QCURVE",
"48 851 LINE",
"50 879 LINE",
"335 924 LINE",
"347 911 LINE",
"335 859 LINE",
"305 732 LINE",
"240 350 LINE",
"226 21 OFFCURVE",
"-164 -479 OFFCURVE",
"-351 -479 QCURVE",
"-521 -419 LINE",
"-509 -395 LINE",
"-388 -393 LINE SMOOTH",
"-166 -389 OFFCURVE",
"109 -62 OFFCURVE",
"127 145 QCURVE",
"53 155 LINE",
"38 179 LINE"
);
},
{
closed = 1;
nodes = (
"252 1371 OFFCURVE",
"305 1427 OFFCURVE",
"350 1427 QCURVE SMOOTH",
"393 1427 OFFCURVE",
"440 1368 OFFCURVE",
"434 1321 QCURVE SMOOTH",
"428 1270 OFFCURVE",
"375 1214 OFFCURVE",
"330 1214 QCURVE SMOOTH",
"288 1214 OFFCURVE",
"241 1273 OFFCURVE",
"247 1321 QCURVE SMOOTH"
);
}
);
width = 442;
}
);
unicode = 006A;
},
{
glyphname = k;
layers = (
{
layerId = "D3CBDB62-9442-4B48-8AD1-7B332142411F";
paths = (
{
closed = 1;
nodes = (
"8 56 LINE",
"122 585 LINE",
"280 1471 LINE",
"126 1471 LINE",
"136 1502 LINE",
"421 1580 LINE",
"444 1556 LINE",
"284 736 LINE",
"336 819 OFFCURVE",
"510 948 OFFCURVE",
"582 948 QCURVE SMOOTH",
"660 948 OFFCURVE",
"752 823 OFFCURVE",
"749 737 QCURVE SMOOTH",
"748 712 LINE",
"737 690 LINE",
"458 487 LINE",
"669 92 LINE",
"797 107 LINE",
"797 87 LINE",
"587 -6 LINE SMOOTH",
"572 -13 OFFCURVE",
"557 -1 OFFCURVE",
"546 22 QCURVE SMOOTH",
"355 416 LINE",
"295 367 LINE",
"284 388 LINE",
"568 621 LINE",
"627 709 OFFCURVE",
"577 868 OFFCURVE",
"488 868 QCURVE SMOOTH",
"425 868 OFFCURVE",
"304 741 OFFCURVE",
"273 684 QCURVE",
"251 579 LINE",
"160 88 LINE",
"169 16 LINE",
"12 -12 LINE"
);
}
);
width = 846;
}
);
unicode = 006B;
},
{
glyphname = l;
layers = (
{
layerId = "D3CBDB62-9442-4B48-8AD1-7B332142411F";
paths = (
{
closed = 1;
nodes = (
"21 49 LINE",
"135 604 LINE",
"288 1471 LINE",
"129 1471 LINE",
"140 1502 LINE",
"432 1582 LINE",
"453 1557 LINE",
"262 588 LINE",
"165 81 LINE",
"355 107 LINE",
"355 89 LINE",
"25 -12 LINE"
);
}
);
width = 489;
}
);
unicode = 006C;
},
{
glyphname = m;
layers = (
{
layerId = "D3CBDB62-9442-4B48-8AD1-7B332142411F";
paths = (
{
closed = 1;
nodes = (
"17 45 LINE",
"112 490 LINE",
"167 826 LINE",
"39 852 LINE",
"39 872 LINE",
"297 923 LINE",
"310 909 LINE",
"277 654 LINE",
"269 632 LINE",
"171 87 LINE",
"171 15 LINE",
"17 -5 LINE"
);
},
{
closed = 1;
nodes = (
"528 67 LINE",
"658 696 LINE SMOOTH",
"673 769 OFFCURVE",
"613 871 OFFCURVE",
"569 871 QCURVE SMOOTH",
"500 871 OFFCURVE",
"335 730 OFFCURVE",
"251 596 QCURVE",
"239 619 LINE",
"306 733 OFFCURVE",
"551 942 OFFCURVE",
"635 942 QCURVE SMOOTH",
"708 942 OFFCURVE",
"814 774 OFFCURVE",
"798 693 QCURVE SMOOTH",
"673 78 LINE",
"668 21 LINE",
"518 4 LINE"
);
},
{
closed = 1;
nodes = (
"1029 82 LINE",
"1164 696 LINE SMOOTH",
"1180 769 OFFCURVE",
"1119 871 OFFCURVE",
"1075 871 QCURVE SMOOTH",
"1007 871 OFFCURVE",
"845 758 OFFCURVE",
"759 648 QCURVE",
"755 675 LINE",
"824 778 OFFCURVE",
"1060 942 OFFCURVE",
"1143 942 QCURVE SMOOTH",
"1214 942 OFFCURVE",
"1320 774 OFFCURVE",
"1304 693 QCURVE SMOOTH",
"1169 78 LINE",
"1319 107 LINE",
"1319 87 LINE",
"1076 -11 LINE"
);
}
);
width = 1484;
}
);
unicode = 006D;
},
{
glyphname = n;
layers = (
{
layerId = "D3CBDB62-9442-4B48-8AD1-7B332142411F";
paths = (
{
closed = 1;
nodes = (
"21 49 LINE",
"112 490 LINE",
"167 826 LINE",
"39 852 LINE",
"39 872 LINE",
"297 923 LINE",
"310 909 LINE",
"277 654 LINE",
"269 632 LINE",
"171 87 LINE",
"171 14 LINE",
"21 -11 LINE"
);
},
{
closed = 1;
nodes = (
"543 82 LINE",
"678 696 LINE SMOOTH",
"694 769 OFFCURVE",
"633 871 OFFCURVE",
"589 871 QCURVE SMOOTH",
"520 871 OFFCURVE",
"341 719 OFFCURVE",
"251 596 QCURVE",
"239 619 LINE",
"305 723 OFFCURVE",
"571 942 OFFCURVE",
"655 942 QCURVE SMOOTH",
"728 942 OFFCURVE",
"836 774 OFFCURVE",
"818 693 QCURVE SMOOTH",
"683 78 LINE",
"833 107 LINE",
"833 87 LINE",
"578 -6 LINE"
);
}
);
width = 998;
}
);
unicode = 006E;
},
{
glyphname = o;
layers = (
{
layerId = "D3CBDB62-9442-4B48-8AD1-7B332142411F";
paths = (
{
closed = 1;
nodes = (
"69 736 OFFCURVE",
"359 952 OFFCURVE",
"522 941 QCURVE SMOOTH",
"695 929 OFFCURVE",
"842 618 OFFCURVE",
"797 456 QCURVE SMOOTH",
"740 250 OFFCURVE",
"443 -19 OFFCURVE",
"280 -10 QCURVE SMOOTH",
"141 -2 OFFCURVE",
"-31 331 OFFCURVE",
"16 522 QCURVE SMOOTH"
);
},
{
closed = 1;
nodes = (
"133 349 OFFCURVE",
"154 33 OFFCURVE",
"284 23 QCURVE SMOOTH",
"425 14 OFFCURVE",
"592 291 OFFCURVE",
"638 478 QCURVE SMOOTH",
"681 650 OFFCURVE",
"641 901 OFFCURVE",
"511 910 QCURVE SMOOTH",
"369 920 OFFCURVE",
"219 705 OFFCURVE",
"176 527 QCURVE SMOOTH"
);
}
);
width = 936;
}
);
unicode = 006F;
},
{
glyphname = p;
layers = (
{
layerId = "D3CBDB62-9442-4B48-8AD1-7B332142411F";
paths = (
{
closed = 1;
nodes = (
"110 511 LINE",
"158 823 LINE",
"102 904 LINE",
"115 930 LINE",
"298 901 LINE",
"279 742 LINE",
"360 818 OFFCURVE",
"566 938 OFFCURVE",
"645 938 QCURVE SMOOTH",
"748 938 OFFCURVE",
"837 787 OFFCURVE",
"837 732 QCURVE SMOOTH",
"837 425 OFFCURVE",
"486 44 OFFCURVE",
"269 44 QCURVE SMOOTH",
"234 44 OFFCURVE",
"171 61 OFFCURVE",
"146 76 QCURVE",
"55 -364 LINE",
"190 -362 LINE",
"188 -379 LINE",
"-74 -416 LINE",
"-88 -391 LINE"
);
},
{
closed = 1;
nodes = (
"174 93 OFFCURVE",
"232 74 OFFCURVE",
"280 74 QCURVE SMOOTH",
"445 74 OFFCURVE",
"697 475 OFFCURVE",
"697 696 QCURVE SMOOTH",
"697 771 OFFCURVE",
"637 870 OFFCURVE",
"568 870 QCURVE SMOOTH",
"499 870 OFFCURVE",
"341 776 OFFCURVE",
"273 714 QCURVE",
"240 553 LINE",
"156 109 LINE"
);
}
);
width = 917;
}
);
unicode = 0070;
},
{
glyphname = q;
layers = (
{
layerId = "D3CBDB62-9442-4B48-8AD1-7B332142411F";
paths = (
{
closed = 1;
nodes = (
"-18 549 OFFCURVE",
"369 937 OFFCURVE",
"552 937 QCURVE SMOOTH",
"602 937 OFFCURVE",
"667 901 OFFCURVE",
"692 869 QCURVE",
"757 940 LINE",
"775 940 LINE",
"823 855 LINE",
"733 412 LINE",
"555 -342 LINE",
"674 -345 LINE",
"679 -373 LINE",
"427 -391 LINE",
"411 -366 LINE",
"549 207 LINE",
"547 207 LINE",
"455 98 OFFCURVE",
"268 15 OFFCURVE",
"198 15 QCURVE SMOOTH",
"84 15 OFFCURVE",
"-18 164 OFFCURVE",
"-18 273 QCURVE SMOOTH"
);
},
{
closed = 1;
nodes = (
"123 194 OFFCURVE",
"182 72 OFFCURVE",
"252 72 QCURVE SMOOTH",
"374 72 OFFCURVE",
"573 290 OFFCURVE",
"609 483 QCURVE SMOOTH",
"675 836 LINE",
"666 864 OFFCURVE",
"597 900 OFFCURVE",
"532 900 QCURVE SMOOTH",
"374 900 OFFCURVE",
"123 513 OFFCURVE",
"123 275 QCURVE SMOOTH"
);
}
);
width = 936;
}
);
unicode = 0071;
},
{
glyphname = r;
layers = (
{
layerId = "D3CBDB62-9442-4B48-8AD1-7B332142411F";
paths = (
{
closed = 1;
nodes = (
"20 49 LINE",
"117 500 LINE",
"168 825 LINE",
"40 852 LINE",
"39 873 LINE",
"296 923 LINE",
"310 910 LINE",
"285 715 LINE",
"290 689 LINE",
"171 87 LINE",
"199 28 LINE",
"195 17 LINE",
"21 -11 LINE"
);
},
{
closed = 1;
nodes = (
"580 911 LINE",
"501 908 OFFCURVE",
"348 780 OFFCURVE",
"272 626 QCURVE",
"261 635 LINE",
"311 779 OFFCURVE",
"481 942 OFFCURVE",
"576 942 QCURVE SMOOTH",
"643 942 OFFCURVE",
"702 891 OFFCURVE",
"702 846 QCURVE SMOOTH",
"702 789 OFFCURVE",
"639 708 OFFCURVE",
"586 693 QCURVE",
"573 703 LINE"
);
}
);
width = 732;
}
);
unicode = 0072;
},
{
glyphname = s;
layers = (
{
layerId = "D3CBDB62-9442-4B48-8AD1-7B332142411F";
paths = (
{
closed = 1;
nodes = (
"-55 204 OFFCURVE",
"13 258 OFFCURVE",
"62 258 QCURVE SMOOTH",
"70 258 LINE",
"70 177 LINE SMOOTH",
"70 87 OFFCURVE",
"145 12 OFFCURVE",
"223 12 QCURVE SMOOTH",
"321 12 OFFCURVE",
"467 128 OFFCURVE",
"467 201 QCURVE SMOOTH",
"467 264 OFFCURVE",
"362 368 OFFCURVE",
"275 425 QCURVE SMOOTH",
"158 502 OFFCURVE",
"79 622 OFFCURVE",
"80 700 QCURVE SMOOTH",
"81 795 OFFCURVE",
"263 939 OFFCURVE",
"393 939 QCURVE SMOOTH",
"507 939 OFFCURVE",
"611 850 OFFCURVE",
"611 800 QCURVE SMOOTH",
"611 753 OFFCURVE",
"549 687 OFFCURVE",
"499 687 QCURVE",
"489 702 LINE",
"489 800 LINE SMOOTH",
"489 839 OFFCURVE",
"425 900 OFFCURVE",
"364 900 QCURVE SMOOTH",
"282 900 OFFCURVE",
"161 823 OFFCURVE",
"161 757 QCURVE SMOOTH",
"161 714 OFFCURVE",
"267 637 OFFCURVE",
"365 567 QCURVE SMOOTH",
"454 503 OFFCURVE",
"556 394 OFFCURVE",
"556 312 QCURVE SMOOTH",
"556 160 OFFCURVE",
"340 -10 OFFCURVE",
"199 -10 QCURVE SMOOTH",
"69 -10 OFFCURVE",
"-55 78 OFFCURVE",
"-55 152 QCURVE SMOOTH"
);
}
);
width = 697;
}
);
unicode = 0073;
},
{
glyphname = t;
layers = (
{
layerId = "D3CBDB62-9442-4B48-8AD1-7B332142411F";
paths = (
{
closed = 1;
nodes = (
"10 49 LINE",
"98 503 LINE",
"160 834 LINE",
"21 827 LINE",
"14 855 LINE",
"161 877 OFFCURVE",
"295 1048 OFFCURVE",
"334 1206 QCURVE",
"348 1215 LINE",
"362 1210 LINE",
"226 486 LINE",
"154 90 LINE",
"381 126 LINE",
"381 106 LINE",
"26 -13 LINE"
);
},
{
closed = 1;
nodes = (
"224 867 LINE",
"526 873 LINE",
"517 844 LINE",
"225 834 LINE"
);
}
);
width = 493;
}
);
unicode = 0074;
},
{
glyphname = u;
layers = (
{
layerId = "D3CBDB62-9442-4B48-8AD1-7B332142411F";
paths = (
{
closed = 1;
nodes = (
"571 6 LINE",
"550 208 LINE",
"684 844 LINE",
"686 906 LINE",
"825 924 LINE",
"846 905 LINE",
"683 197 LINE",
"709 87 LINE",
"831 108 LINE",
"833 85 LINE",
"603 -9 LINE"
);
},
{
closed = 1;
nodes = (
"153 830 LINE",
"36 849 LINE",
"32 872 LINE",
"273 926 LINE",
"297 921 LINE",
"308 910 LINE",
"184 245 LINE SMOOTH",
"167 156 OFFCURVE",
"211 50 OFFCURVE",
"276 50 QCURVE SMOOTH",
"375 50 OFFCURVE",
"559 212 OFFCURVE",
"607 282 QCURVE",
"620 272 LINE",
"541 151 OFFCURVE",
"338 -7 OFFCURVE",
"230 -7 QCURVE SMOOTH",
"130 -7 OFFCURVE",
"29 145 OFFCURVE",
"53 272 QCURVE SMOOTH"
);
}
);
width = 982;
}
);
unicode = 0075;
},
{
glyphname = v;
layers = (
{
layerId = "D3CBDB62-9442-4B48-8AD1-7B332142411F";
paths = (
{
closed = 1;
nodes = (
"-48 870 LINE",
"183 924 LINE",
"207 909 LINE",
"234 521 LINE",
"273 102 LINE",
"435 253 OFFCURVE",
"687 617 OFFCURVE",
"687 737 QCURVE SMOOTH",
"687 800 OFFCURVE",
"627 880 OFFCURVE",
"554 923 QCURVE",
"653 955 OFFCURVE",
"786 883 OFFCURVE",
"786 808 QCURVE SMOOTH",
"786 690 OFFCURVE",
"461 221 OFFCURVE",
"209 -8 QCURVE",
"141 10 LINE",
"118 471 LINE",
"79 854 LINE",
"-44 850 LINE"
);
}
);
width = 798;
}
);
unicode = 0076;
},
{
glyphname = w;
layers = (
{
layerId = "D3CBDB62-9442-4B48-8AD1-7B332142411F";
paths = (
{
closed = 1;
nodes = (
"-48 870 LINE",
"183 924 LINE",
"207 909 LINE",
"234 521 LINE",
"261 102 LINE",
"379 225 OFFCURVE",
"614 605 OFFCURVE",
"614 722 QCURVE",
"637 727 LINE",
"637 612 OFFCURVE",
"418 230 OFFCURVE",
"197 -8 QCURVE",
"141 10 LINE",
"118 471 LINE",
"79 854 LINE",
"-44 848 LINE"
);
},
{
closed = 1;
nodes = (
"645 919 LINE",
"661 905 LINE",
"677 521 LINE",
"713 105 LINE",
"852 258 OFFCURVE",
"1063 617 OFFCURVE",
"1063 737 QCURVE SMOOTH",
"1063 800 OFFCURVE",
"1003 880 OFFCURVE",
"930 923 QCURVE",
"1029 955 OFFCURVE",
"1162 883 OFFCURVE",
"1162 808 QCURVE SMOOTH",
"1162 690 OFFCURVE",
"871 224 OFFCURVE",
"649 -5 QCURVE",
"593 13 LINE",
"561 471 LINE",
"532 864 LINE",
"489 861 LINE",
"485 882 LINE"
);
}
);
width = 1174;
}
);
unicode = 0077;
},
{
glyphname = x;
layers = (
{
layerId = "D3CBDB62-9442-4B48-8AD1-7B332142411F";
paths = (
{
closed = 1;
nodes = (
"98 886 LINE",
"336 931 LINE",
"353 926 LINE",
"468 553 LINE",
"627 75 LINE",
"760 95 LINE",
"751 70 LINE",
"542 -13 LINE",
"509 12 LINE",
"377 426 LINE",
"239 849 LINE",
"98 866 LINE"
);
},
{
closed = 1;
nodes = (
"-94 93 LINE",
"67 83 LINE",
"110 83 OFFCURVE",
"270 271 OFFCURVE",
"395 477 QCURVE SMOOTH",
"570 765 OFFCURVE",
"700 939 OFFCURVE",
"776 939 QCURVE SMOOTH",
"834 939 OFFCURVE",
"886 886 OFFCURVE",
"886 852 QCURVE SMOOTH",
"886 820 OFFCURVE",
"814 764 OFFCURVE",
"776 764 QCURVE",
"768 775 LINE",
"778 842 LINE SMOOTH",
"782 865 OFFCURVE",
"774 892 OFFCURVE",
"753 892 QCURVE SMOOTH",
"706 892 OFFCURVE",
"556 680 OFFCURVE",
"419 446 QCURVE",
"278 204 OFFCURVE",
"120 7 OFFCURVE",
"73 -17 QCURVE",
"-106 79 LINE"
);
}
);
width = 920;
}
);
unicode = 0078;
},
{
glyphname = y;
layers = (
{
layerId = "D3CBDB62-9442-4B48-8AD1-7B332142411F";
paths = (
{
closed = 1;
nodes = (
"-407 -395 LINE",
"-306 -390 LINE SMOOTH",
"-193 -384 OFFCURVE",
"57 -279 OFFCURVE",
"164 -144 QCURVE SMOOTH",
"279 2 LINE",
"214 1 LINE",
"225 64 OFFCURVE",
"125 734 OFFCURVE",
"99 854 QCURVE",
"-29 850 LINE",
"-33 877 LINE",
"178 926 LINE",
"213 926 LINE",
"250 860 LINE",
"358 93 LINE",
"527 329 OFFCURVE",
"638 624 OFFCURVE",
"638 715 QCURVE SMOOTH",
"638 760 OFFCURVE",
"602 852 OFFCURVE",
"505 923 QCURVE",
"604 955 OFFCURVE",
"737 883 OFFCURVE",
"737 804 QCURVE SMOOTH",
"737 680 OFFCURVE",
"532 254 OFFCURVE",
"283 -49 QCURVE SMOOTH",
"223 -122 LINE SMOOTH",
"63 -317 OFFCURVE",
"-185 -473 OFFCURVE",
"-269 -479 QCURVE",
"-419 -419 LINE"
);
}
);
width = 825;
}
);
unicode = 0079;
},
{
glyphname = z;
layers = (
{
layerId = "D3CBDB62-9442-4B48-8AD1-7B332142411F";
paths = (
{
closed = 1;
nodes = (
"-86 31 LINE",
"4 93 OFFCURVE",
"271 374 OFFCURVE",
"356 463 QCURVE SMOOTH",
"462 575 OFFCURVE",
"583 713 OFFCURVE",
"615 763 QCURVE",
"149 758 LINE",
"106 657 LINE",
"74 658 LINE",
"130 889 LINE",
"162 909 LINE",
"742 897 LINE",
"756 868 LINE",
"682 792 OFFCURVE",
"492 568 OFFCURVE",
"382 451 QCURVE SMOOTH",
"301 364 OFFCURVE",
"184 235 OFFCURVE",
"149 189 QCURVE",
"607 109 LINE",
"682 237 LINE",
"697 228 LINE",
"617 0 LINE",
"580 -19 LINE",
"54 93 LINE",
"-68 7 LINE"
);
}
);
width = 786;
}
);
unicode = 007A;
},
{
glyphname = braceleft;
layers = (
{
layerId = "D3CBDB62-9442-4B48-8AD1-7B332142411F";
paths = (
{
closed = 1;
nodes = (
"40 735 LINE",
"153 745 LINE SMOOTH",
"210 750 OFFCURVE",
"280 776 OFFCURVE",
"291 832 QCURVE SMOOTH",
"314 950 OFFCURVE",
"244 1148 OFFCURVE",
"269 1266 QCURVE SMOOTH",
"296 1393 OFFCURVE",
"488 1510 OFFCURVE",
"637 1510 QCURVE SMOOTH",
"708 1510 OFFCURVE",
"768 1503 OFFCURVE",
"805 1500 QCURVE",
"795 1458 LINE",
"744 1460 OFFCURVE",
"701 1460 OFFCURVE",
"652 1460 QCURVE SMOOTH",
"570 1460 OFFCURVE",
"456 1376 OFFCURVE",
"438 1278 QCURVE SMOOTH",
"422 1189 OFFCURVE",
"470 1003 OFFCURVE",
"456 934 QCURVE SMOOTH",
"437 839 OFFCURVE",
"358 750 OFFCURVE",
"293 732 QCURVE",
"362 710 OFFCURVE",
"397 624 OFFCURVE",
"373 556 QCURVE SMOOTH",
"342 468 OFFCURVE",
"191 204 OFFCURVE",
"171 102 QCURVE SMOOTH",
"152 4 OFFCURVE",
"239 -89 OFFCURVE",
"321 -89 QCURVE SMOOTH",
"370 -89 OFFCURVE",
"440 -88 OFFCURVE",
"486 -80 QCURVE",
"480 -111 LINE",
"442 -114 OFFCURVE",
"359 -122 OFFCURVE",
"288 -122 QCURVE SMOOTH",
"132 -122 OFFCURVE",
"-13 16 OFFCURVE",
"19 161 QCURVE SMOOTH",
"42 266 OFFCURVE",
"247 560 OFFCURVE",
"247 674 QCURVE",
"247 703 LINE",
"32 703 LINE"
);
}
);
width = 693;
}
);
unicode = 007B;
},
{
glyphname = bar;
layers = (
{
layerId = "D3CBDB62-9442-4B48-8AD1-7B332142411F";
paths = (
{
closed = 1;
nodes = (
"80 -58 LINE",
"142 250 LINE",
"254 830 LINE",
"312 1138 LINE",
"382 1525 LINE",
"436 1525 LINE",
"357 1138 LINE",
"298 830 LINE",
"186 250 LINE",
"125 -58 LINE",
"40 -515 LINE",
"-14 -515 LINE"
);
}
);
width = 525;
}
);
unicode = 007C;
},
{
glyphname = braceright;
layers = (
{
layerId = "D3CBDB62-9442-4B48-8AD1-7B332142411F";
paths = (
{
closed = 1;
nodes = (
"-124 -70 LINE",
"-81 -76 OFFCURVE",
"-50 -78 OFFCURVE",
"-1 -78 QCURVE SMOOTH",
"81 -78 OFFCURVE",
"195 12 OFFCURVE",
"213 110 QCURVE SMOOTH",
"229 199 OFFCURVE",
"203 498 OFFCURVE",
"217 567 QCURVE SMOOTH",
"236 662 OFFCURVE",
"315 751 OFFCURVE",
"380 769 QCURVE",
"319 798 OFFCURVE",
"264 883 OFFCURVE",
"300 945 QCURVE SMOOTH",
"353 1035 OFFCURVE",
"466 1208 OFFCURVE",
"480 1286 QCURVE SMOOTH",
"498 1384 OFFCURVE",
"412 1477 OFFCURVE",
"330 1477 QCURVE SMOOTH",
"281 1477 OFFCURVE",
"202 1470 OFFCURVE",
"165 1468 QCURVE",
"171 1499 LINE",
"209 1502 OFFCURVE",
"292 1510 OFFCURVE",
"363 1510 QCURVE SMOOTH",
"519 1510 OFFCURVE",
"666 1372 OFFCURVE",
"629 1213 QCURVE SMOOTH",
"604 1105 OFFCURVE",
"441 915 OFFCURVE",
"426 827 QCURVE",
"426 798 LINE",
"631 781 LINE",
"623 749 LINE",
"520 756 LINE SMOOTH",
"463 760 OFFCURVE",
"393 725 OFFCURVE",
"382 669 QCURVE SMOOTH",
"359 551 OFFCURVE",
"407 240 OFFCURVE",
"382 122 QCURVE SMOOTH",
"355 -5 OFFCURVE",
"163 -122 OFFCURVE",
"14 -122 QCURVE SMOOTH",
"-47 -122 OFFCURVE",
"-97 -116 OFFCURVE",
"-134 -109 QCURVE"
);
}
);
width = 693;
}
);
unicode = 007D;
},
{
glyphname = asciitilde;
layers = (
{
layerId = "D3CBDB62-9442-4B48-8AD1-7B332142411F";
paths = (
{
closed = 1;
nodes = (
"119 640 OFFCURVE",
"249 781 OFFCURVE",
"323 790 QCURVE",
"605 676 LINE",
"657 676 OFFCURVE",
"733 741 OFFCURVE",
"775 810 QCURVE",
"799 796 LINE",
"757 701 OFFCURVE",
"654 542 OFFCURVE",
"559 532 QCURVE",
"294 640 LINE",
"242 640 OFFCURVE",
"142 596 OFFCURVE",
"88 535 QCURVE",
"68 552 LINE"
);
}
);
width = 879;
}
);
unicode = 007E;
},
{
glyphname = exclamdown;
layers = (
{
layerId = "D3CBDB62-9442-4B48-8AD1-7B332142411F";
paths = (
{
closed = 1;
nodes = (
"472 1133 OFFCURVE",
"412 1070 OFFCURVE",
"359 1070 QCURVE SMOOTH",
"312 1070 OFFCURVE",
"260 1137 OFFCURVE",
"267 1191 QCURVE SMOOTH",
"271 1251 OFFCURVE",
"331 1313 OFFCURVE",
"384 1313 QCURVE SMOOTH",
"431 1313 OFFCURVE",
"482 1247 OFFCURVE",
"476 1191 QCURVE SMOOTH"
);
},
{
closed = 1;
nodes = (
"217 -147 OFFCURVE",
"153 -234 OFFCURVE",
"98 -235 QCURVE SMOOTH",
"43 -236 OFFCURVE",
"11 -148 OFFCURVE",
"34 -80 QCURVE SMOOTH",
"124 185 LINE",
"188 370 LINE",
"297 864 LINE",
"326 858 LINE",
"245 379 LINE",
"230 173 LINE",
"220 -79 LINE SMOOTH"
);
}
);
width = 604;
}
);
unicode = 00A1;
},
{
glyphname = cent;
layers = (
{
layerId = "D3CBDB62-9442-4B48-8AD1-7B332142411F";
paths = (
{
closed = 1;
nodes = (
"314 217 LINE",
"314 217 LINE",
"385 540 LINE",
"419 498 LINE",
"358 217 LINE",
"358 217 LINE",
"284 -92 LINE",
"239 -96 LINE"
);
},
{
closed = 1;
nodes = (
"594 1265 LINE",
"530 987 LINE",
"530 987 LINE",
"419 498 LINE",
"385 540 LINE",
"488 987 LINE",
"488 987 LINE",
"546 1249 LINE"
);
},
{
closed = 1;
nodes = (
"111 778 OFFCURVE",
"410 1012 OFFCURVE",
"558 1012 QCURVE SMOOTH",
"650 1012 OFFCURVE",
"742 919 OFFCURVE",
"742 855 QCURVE SMOOTH",
"742 806 OFFCURVE",
"689 723 OFFCURVE",
"647 691 QCURVE",
"621 692 LINE",
"621 919 LINE SMOOTH",
"621 935 OFFCURVE",
"578 961 OFFCURVE",
"540 961 QCURVE SMOOTH",
"430 961 OFFCURVE",
"265 790 OFFCURVE",
"222 571 QCURVE SMOOTH",
"196 437 OFFCURVE",
"266 268 OFFCURVE",
"370 262 QCURVE SMOOTH",
"478 257 OFFCURVE",
"632 341 OFFCURVE",
"690 420 QCURVE",
"710 401 LINE",
"710 389 LINE",
"647 300 OFFCURVE",
"431 179 OFFCURVE",
"301 187 QCURVE SMOOTH",
"182 193 OFFCURVE",
"41 412 OFFCURVE",
"74 586 QCURVE SMOOTH"
);
}
);
width = 812;
}
);
unicode = 00A2;
},
{
glyphname = sterling;
layers = (
{
layerId = "D3CBDB62-9442-4B48-8AD1-7B332142411F";
paths = (
{
closed = 1;
nodes = (
"174 664 LINE",
"879 672 LINE",
"865 634 LINE",
"166 626 LINE"
);
},
{
closed = 1;
nodes = (
"599 327 OFFCURVE",
"227 -16 OFFCURVE",
"79 -18 QCURVE SMOOTH",
"-14 -19 OFFCURVE",
"-88 100 OFFCURVE",
"-78 184 QCURVE SMOOTH",
"-67 289 OFFCURVE",
"66 394 OFFCURVE",
"146 394 QCURVE SMOOTH",
"209 394 OFFCURVE",
"392 316 OFFCURVE",
"462 269 QCURVE SMOOTH",
"541 215 OFFCURVE",
"757 88 OFFCURVE",
"817 89 QCURVE SMOOTH",
"889 90 OFFCURVE",
"969 156 OFFCURVE",
"1014 212 QCURVE",
"1043 195 LINE",
"1017 121 OFFCURVE",
"830 -11 OFFCURVE",
"769 -12 QCURVE SMOOTH",
"669 -13 OFFCURVE",
"464 120 OFFCURVE",
"381 173 QCURVE SMOOTH",
"316 215 OFFCURVE",
"169 286 OFFCURVE",
"109 286 QCURVE SMOOTH",
"53 286 OFFCURVE",
"-36 230 OFFCURVE",
"-41 172 QCURVE SMOOTH",
"-46 118 OFFCURVE",
"15 34 OFFCURVE",
"84 35 QCURVE SMOOTH",
"204 36 OFFCURVE",
"471 301 OFFCURVE",
"485 402 QCURVE SMOOTH",
"501 519 OFFCURVE",
"423 687 OFFCURVE",
"365 812 QCURVE SMOOTH",
"338 870 OFFCURVE",
"285 1038 OFFCURVE",
"310 1169 QCURVE SMOOTH",
"336 1307 OFFCURVE",
"567 1519 OFFCURVE",
"744 1521 QCURVE SMOOTH",
"872 1522 OFFCURVE",
"1028 1436 OFFCURVE",
"1075 1375 QCURVE",
"1044 1341 LINE",
"1000 1403 OFFCURVE",
"867 1485 OFFCURVE",
"771 1484 QCURVE SMOOTH",
"661 1483 OFFCURVE",
"493 1339 OFFCURVE",
"474 1235 QCURVE SMOOTH",
"454 1129 OFFCURVE",
"484 959 OFFCURVE",
"521 876 QCURVE SMOOTH",
"561 783 OFFCURVE",
"630 600 OFFCURVE",
"614 463 QCURVE SMOOTH"
);
}
);
width = 1098;
}
);
unicode = 00A3;
},
{
glyphname = currency;
layers = (
{
layerId = "D3CBDB62-9442-4B48-8AD1-7B332142411F";
paths = (
{
closed = 1;
nodes = (
"176 974 OFFCURVE",
"405 1218 OFFCURVE",
"590 1218 QCURVE SMOOTH",
"777 1218 OFFCURVE",
"1008 990 OFFCURVE",
"1008 805 QCURVE SMOOTH",
"1008 632 OFFCURVE",
"781 382 OFFCURVE",
"595 382 QCURVE SMOOTH",
"409 382 OFFCURVE",
"176 614 OFFCURVE",
"176 800 QCURVE SMOOTH"
);
},
{
closed = 1;
nodes = (
"267 666 OFFCURVE",
"443 458 OFFCURVE",
"588 458 QCURVE SMOOTH",
"744 458 OFFCURVE",
"912 647 OFFCURVE",
"912 805 QCURVE SMOOTH",
"912 948 OFFCURVE",
"736 1136 OFFCURVE",
"590 1136 QCURVE",
"433 1136 OFFCURVE",
"265 965 OFFCURVE",
"266 816 QCURVE SMOOTH"
);
},
{
closed = 1;
nodes = (
"60 1325 LINE",
"87 1355 LINE",
"326 1113 LINE",
"312 1097 LINE"
);
},
{
closed = 1;
nodes = (
"871 1093 LINE",
"1120 1355 LINE",
"1147 1325 LINE",
"885 1077 LINE"
);
},
{
closed = 1;
nodes = (
"336 488 LINE",
"87 227 LINE",
"60 256 LINE",
"322 504 LINE"
);
},
{
closed = 1;
nodes = (
"1147 256 LINE",
"1120 227 LINE",
"861 498 LINE",
"875 514 LINE"
);
}
);
width = 1207;
}
);
unicode = 00A4;
},
{
glyphname = yen;
layers = (
{
layerId = "D3CBDB62-9442-4B48-8AD1-7B332142411F";
paths = (
{
closed = 1;
nodes = (
"142 1500 LINE",
"573 1500 LINE",
"567 1471 LINE",
"427 1436 LINE",
"516 1063 LINE",
"602 738 LINE",
"808 1048 LINE",
"1058 1444 LINE",
"867 1471 LINE",
"873 1500 LINE",
"1295 1500 LINE",
"1289 1471 LINE",
"1096 1444 LINE",
"832 1036 LINE",
"620 703 LINE",
"487 60 LINE",
"652 27 LINE",
"646 0 LINE",
"144 0 LINE",
"150 27 LINE",
"323 60 LINE",
"451 662 LINE",
"359 1030 LINE",
"256 1445 LINE",
"136 1471 LINE"
);
},
{
closed = 1;
nodes = (
"142 713 LINE",
"944 713 LINE",
"932 675 LINE",
"153 675 LINE"
);
},
{
closed = 1;
nodes = (
"132 453 LINE",
"874 453 LINE",
"862 415 LINE",
"143 415 LINE"
);
}
);
width = 1120;
}
);
unicode = 00A5;
},
{
glyphname = brokenbar;
layers = (
{
layerId = "D3CBDB62-9442-4B48-8AD1-7B332142411F";
paths = (
{
closed = 1;
nodes = (
"336 1012 LINE",
"360 1138 LINE",
"433 1519 LINE",
"494 1530 LINE",
"416 1138 LINE",
"386 1012 LINE",
"323 693 LINE",
"273 693 LINE"
);
},
{
closed = 1;
nodes = (
"128 -58 LINE",
"164 100 LINE",
"205 317 LINE",
"255 317 LINE",
"214 100 LINE",
"184 -58 LINE",
"98 -498 LINE",
"39 -508 LINE"
);
}
);
width = 604;
}
);
unicode = 00A6;
},
{
glyphname = section;
layers = (
{
layerId = "D3CBDB62-9442-4B48-8AD1-7B332142411F";
paths = (
{
closed = 1;
nodes = (
"747 -29 OFFCURVE",
"495 -206 OFFCURVE",
"343 -206 QCURVE SMOOTH",
"186 -206 OFFCURVE",
"-49 -87 OFFCURVE",
"-49 16 QCURVE SMOOTH",
"-49 65 OFFCURVE",
"-11 158 OFFCURVE",
"19 188 QCURVE",
"56 181 LINE",
"39 148 OFFCURVE",
"28 78 OFFCURVE",
"28 24 QCURVE SMOOTH",
"28 -37 OFFCURVE",
"176 -134 OFFCURVE",
"335 -134 QCURVE SMOOTH",
"470 -134 OFFCURVE",
"644 -15 OFFCURVE",
"661 89 QCURVE SMOOTH",
"676 179 OFFCURVE",
"560 311 OFFCURVE",
"412 382 QCURVE SMOOTH",
"252 458 OFFCURVE",
"90 652 OFFCURVE",
"120 797 QCURVE SMOOTH",
"136 874 OFFCURVE",
"241 986 OFFCURVE",
"313 1021 QCURVE",
"264 1065 OFFCURVE",
"224 1179 OFFCURVE",
"242 1266 QCURVE SMOOTH",
"263 1366 OFFCURVE",
"455 1512 OFFCURVE",
"608 1512 QCURVE SMOOTH",
"731 1512 OFFCURVE",
"864 1411 OFFCURVE",
"864 1328 QCURVE SMOOTH",
"864 1283 OFFCURVE",
"831 1216 OFFCURVE",
"812 1191 QCURVE",
"766 1216 LINE",
"785 1241 OFFCURVE",
"804 1279 OFFCURVE",
"804 1331 QCURVE SMOOTH",
"804 1390 OFFCURVE",
"691 1475 OFFCURVE",
"595 1475 QCURVE SMOOTH",
"488 1475 OFFCURVE",
"377 1373 OFFCURVE",
"365 1293 QCURVE SMOOTH",
"352 1209 OFFCURVE",
"442 1120 OFFCURVE",
"591 1076 QCURVE SMOOTH",
"738 1033 OFFCURVE",
"876 876 OFFCURVE",
"853 752 QCURVE SMOOTH",
"835 653 OFFCURVE",
"679 525 OFFCURVE",
"578 497 QCURVE",
"672 446 OFFCURVE",
"800 276 OFFCURVE",
"777 143 QCURVE SMOOTH"
);
},
{
closed = 1;
nodes = (
"172 753 OFFCURVE",
"354 599 OFFCURVE",
"503 535 QCURVE",
"603 535 OFFCURVE",
"745 624 OFFCURVE",
"759 707 QCURVE SMOOTH",
"774 791 OFFCURVE",
"621 899 OFFCURVE",
"465 947 QCURVE SMOOTH",
"439 955 OFFCURVE",
"375 973 OFFCURVE",
"356 982 QCURVE",
"296 963 OFFCURVE",
"196 891 OFFCURVE",
"186 831 QCURVE SMOOTH"
);
}
);
width = 950;
}
);
unicode = 00A7;
},
{
glyphname = dieresis;
layers = (
{
layerId = "D3CBDB62-9442-4B48-8AD1-7B332142411F";
paths = (
{
closed = 1;
nodes = (
"616 1210 OFFCURVE",
"673 1266 OFFCURVE",
"718 1266 QCURVE SMOOTH",
"763 1266 OFFCURVE",
"820 1210 OFFCURVE",
"820 1166 QCURVE SMOOTH",
"820 1123 OFFCURVE",
"763 1067 OFFCURVE",
"718 1067 QCURVE SMOOTH",
"673 1067 OFFCURVE",
"616 1123 OFFCURVE",
"616 1166 QCURVE SMOOTH"
);
},
{
closed = 1;
nodes = (
"276 1210 OFFCURVE",
"333 1266 OFFCURVE",
"378 1266 QCURVE SMOOTH",
"423 1266 OFFCURVE",
"480 1210 OFFCURVE",
"480 1166 QCURVE SMOOTH",
"480 1123 OFFCURVE",
"423 1067 OFFCURVE",
"378 1067 QCURVE SMOOTH",
"333 1067 OFFCURVE",
"276 1123 OFFCURVE",
"276 1166 QCURVE SMOOTH"
);
}
);
width = 896;
}
);
unicode = 00A8;
},
{
glyphname = copyright;
layers = (
{
layerId = "D3CBDB62-9442-4B48-8AD1-7B332142411F";
paths = (
{
closed = 1;
nodes = (
"488 842 OFFCURVE",
"723 1119 OFFCURVE",
"901 1119 QCURVE SMOOTH",
"963 1119 OFFCURVE",
"1067 1090 OFFCURVE",
"1106 1066 QCURVE",
"1164 1121 LINE",
"1187 1121 LINE",
"1187 807 LINE",
"1161 807 LINE",
"1116 921 LINE SMOOTH",
"1079 1015 OFFCURVE",
"970 1091 OFFCURVE",
"905 1091 QCURVE SMOOTH",
"785 1091 OFFCURVE",
"649 918 OFFCURVE",
"649 687 QCURVE SMOOTH",
"649 501 OFFCURVE",
"817 320 OFFCURVE",
"932 320 QCURVE SMOOTH",
"1052 320 OFFCURVE",
"1182 399 OFFCURVE",
"1224 467 QCURVE",
"1242 454 LINE",
"1216 373 OFFCURVE",
"1033 235 OFFCURVE",
"906 235 QCURVE SMOOTH",
"724 235 OFFCURVE",
"488 472 OFFCURVE",
"488 642 QCURVE SMOOTH"
);
},
{
closed = 1;
nodes = (
"48 1035 OFFCURVE",
"530 1516 OFFCURVE",
"886 1516 QCURVE SMOOTH",
"1241 1516 OFFCURVE",
"1720 1060 OFFCURVE",
"1720 700 QCURVE SMOOTH",
"1720 305 OFFCURVE",
"1248 -196 OFFCURVE",
"897 -196 QCURVE SMOOTH",
"535 -196 OFFCURVE",
"48 293 OFFCURVE",
"48 679 QCURVE SMOOTH"
);
},
{
closed = 1;
nodes = (
"91 321 OFFCURVE",
"576 -153 OFFCURVE",
"911 -153 QCURVE SMOOTH",
"1238 -153 OFFCURVE",
"1671 346 OFFCURVE",
"1671 693 QCURVE SMOOTH",
"1671 1009 OFFCURVE",
"1214 1469 OFFCURVE",
"863 1469 QCURVE SMOOTH",
"530 1469 OFFCURVE",
"91 1000 OFFCURVE",
"91 675 QCURVE SMOOTH"
);
}
);
width = 1768;
}
);
unicode = 00A9;
},
{
glyphname = ordfeminine;
layers = (
{
layerId = "D3CBDB62-9442-4B48-8AD1-7B332142411F";
paths = (
{
closed = 1;
nodes = (
"111 1158 OFFCURVE",
"421 1484 OFFCURVE",
"572 1484 QCURVE SMOOTH",
"610 1484 OFFCURVE",
"666 1456 OFFCURVE",
"675 1447 QCURVE",
"736 1500 LINE",
"758 1500 LINE",
"791 1420 LINE",
"706 1048 LINE",
"675 868 LINE",
"708 724 LINE",
"679 716 LINE",
"566 891 LINE",
"344 730 LINE",
"213 730 OFFCURVE",
"111 849 OFFCURVE",
"111 934 QCURVE SMOOTH"
);
},
{
closed = 1;
nodes = (
"244 876 OFFCURVE",
"296 808 OFFCURVE",
"338 808 QCURVE SMOOTH",
"417 808 OFFCURVE",
"571 963 OFFCURVE",
"603 1119 QCURVE SMOOTH",
"656 1386 LINE",
"648 1408 OFFCURVE",
"607 1440 OFFCURVE",
"568 1440 QCURVE",
"425 1440 OFFCURVE",
"244 1124 OFFCURVE",
"244 969 QCURVE SMOOTH"
);
}
);
width = 733;
}
);
unicode = 00AA;
},
{
glyphname = logicalnot;
layers = (
{
layerId = "D3CBDB62-9442-4B48-8AD1-7B332142411F";
paths = (
{
closed = 1;
nodes = (
"739 708 LINE",
"739 300 LINE",
"619 300 LINE",
"619 606 LINE",
"35 606 LINE",
"35 708 LINE"
);
}
);
width = 879;
}
);
unicode = 00AC;
},
{
glyphname = registered;
layers = (
{
layerId = "D3CBDB62-9442-4B48-8AD1-7B332142411F";
paths = (
{
closed = 1;
nodes = (
"24 1164 OFFCURVE",
"378 1520 OFFCURVE",
"660 1520 QCURVE SMOOTH",
"941 1520 OFFCURVE",
"1293 1183 OFFCURVE",
"1293 916 QCURVE SMOOTH",
"1293 624 OFFCURVE",
"946 254 OFFCURVE",
"668 254 QCURVE SMOOTH",
"383 254 OFFCURVE",
"24 616 OFFCURVE",
"24 901 QCURVE SMOOTH"
);
},
{
closed = 1;
nodes = (
"54 636 OFFCURVE",
"415 288 OFFCURVE",
"682 288 QCURVE SMOOTH",
"943 288 OFFCURVE",
"1264 655 OFFCURVE",
"1264 913 QCURVE SMOOTH",
"1264 1149 OFFCURVE",
"925 1484 OFFCURVE",
"644 1484 QCURVE SMOOTH",
"378 1484 OFFCURVE",
"54 1141 OFFCURVE",
"54 900 QCURVE SMOOTH"
);
},
{
closed = 1;
nodes = (
"352 569 LINE",
"434 586 LINE",
"441 928 LINE",
"432 1217 LINE",
"351 1237 LINE",
"353 1268 LINE",
"676 1268 LINE SMOOTH",
"786 1268 OFFCURVE",
"893 1179 OFFCURVE",
"893 1099 QCURVE SMOOTH",
"893 1011 OFFCURVE",
"762 887 OFFCURVE",
"674 887 QCURVE SMOOTH",
"639 887 OFFCURVE",
"541 893 OFFCURVE",
"524 893 QCURVE",
"522 919 LINE",
"631 919 LINE SMOOTH",
"715 919 OFFCURVE",
"774 1018 OFFCURVE",
"774 1101 QCURVE SMOOTH",
"774 1172 OFFCURVE",
"710 1235 OFFCURVE",
"637 1235 QCURVE SMOOTH",
"563 1235 LINE",
"548 1222 LINE",
"541 928 LINE",
"549 586 LINE",
"641 569 LINE",
"641 546 LINE",
"360 546 LINE"
);
},
{
closed = 1;
nodes = (
"712 939 LINE",
"912 660 LINE SMOOTH",
"950 606 OFFCURVE",
"1029 572 OFFCURVE",
"1058 572 QCURVE",
"1056 546 LINE",
"898 546 LINE",
"869 556 LINE",
"607 919 LINE"
);
}
);
width = 1317;
}
);
unicode = 00AE;
},
{
glyphname = macron;
layers = (
{
layerId = "D3CBDB62-9442-4B48-8AD1-7B332142411F";
paths = (
{
closed = 1;
nodes = (
"287 1195 LINE",
"809 1195 LINE",
"809 1108 LINE",
"287 1108 LINE"
);
}
);
width = 896;
}
);
unicode = 00AF;
},
{
glyphname = degree;
layers = (
{
layerId = "D3CBDB62-9442-4B48-8AD1-7B332142411F";
paths = (
{
closed = 1;
nodes = (
"124 1371 OFFCURVE",
"302 1560 OFFCURVE",
"441 1560 QCURVE SMOOTH",
"580 1560 OFFCURVE",
"758 1371 OFFCURVE",
"758 1243 QCURVE SMOOTH",
"758 1118 OFFCURVE",
"580 928 OFFCURVE",
"441 928 QCURVE SMOOTH",
"302 928 OFFCURVE",
"124 1118 OFFCURVE",
"124 1243 QCURVE SMOOTH"
);
},
{
closed = 1;
nodes = (
"204 1151 OFFCURVE",
"339 1008 OFFCURVE",
"441 1008 QCURVE SMOOTH",
"545 1008 OFFCURVE",
"678 1151 OFFCURVE",
"678 1243 QCURVE SMOOTH",
"678 1339 OFFCURVE",
"545 1480 OFFCURVE",
"441 1480 QCURVE SMOOTH",
"339 1480 OFFCURVE",
"204 1339 OFFCURVE",
"204 1243 QCURVE SMOOTH"
);
}
);
width = 882;
}
);
unicode = 00B0;
},
{
glyphname = plusminus;
layers = (
{
layerId = "D3CBDB62-9442-4B48-8AD1-7B332142411F";
paths = (
{
closed = 1;
nodes = (
"43 688 LINE",
"787 688 LINE",
"787 576 LINE",
"43 576 LINE"
);
},
{
closed = 1;
nodes = (
"355 1004 LINE",
"475 1004 LINE",
"475 258 LINE",
"355 258 LINE"
);
},
{
closed = 1;
nodes = (
"43 131 LINE",
"787 131 LINE",
"787 26 LINE",
"43 26 LINE"
);
}
);
width = 879;
}
);
unicode = 00B1;
},
{
glyphname = twosuperior;
layers = (
{
layerId = "D3CBDB62-9442-4B48-8AD1-7B332142411F";
paths = (
{
closed = 1;
nodes = (
"89 747 LINE",
"159 804 LINE",
"393 996 OFFCURVE",
"563 1208 OFFCURVE",
"563 1315 QCURVE SMOOTH",
"563 1387 OFFCURVE",
"497 1448 OFFCURVE",
"445 1448 QCURVE SMOOTH",
"402 1448 OFFCURVE",
"312 1414 OFFCURVE",
"258 1367 QCURVE",
"235 1383 LINE",
"274 1448 OFFCURVE",
"395 1524 OFFCURVE",
"475 1524 QCURVE SMOOTH",
"572 1524 OFFCURVE",
"684 1427 OFFCURVE",
"684 1335 QCURVE SMOOTH",
"684 1207 OFFCURVE",
"390 948 OFFCURVE",
"231 823 QCURVE",
"236 819 LINE",
"312 844 OFFCURVE",
"534 837 OFFCURVE",
"621 810 QCURVE",
"578 697 LINE",
"499 734 OFFCURVE",
"205 782 OFFCURVE",
"107 712 QCURVE"
);
}
);
width = 669;
}
);
unicode = 00B2;
},
{
glyphname = threesuperior;
layers = (
{
layerId = "D3CBDB62-9442-4B48-8AD1-7B332142411F";
paths = (
{
closed = 1;
nodes = (
"64 750 OFFCURVE",
"123 812 OFFCURVE",
"165 824 QCURVE",
"175 809 LINE",
"175 797 LINE",
"155 787 OFFCURVE",
"132 745 OFFCURVE",
"132 721 QCURVE SMOOTH",
"132 687 OFFCURVE",
"208 634 OFFCURVE",
"268 634 QCURVE SMOOTH",
"403 634 OFFCURVE",
"519 761 OFFCURVE",
"519 913 QCURVE SMOOTH",
"519 1007 OFFCURVE",
"433 1107 OFFCURVE",
"352 1115 QCURVE SMOOTH",
"301 1120 LINE",
"307 1150 LINE",
"343 1149 LINE SMOOTH",
"424 1147 OFFCURVE",
"549 1262 OFFCURVE",
"549 1339 QCURVE SMOOTH",
"549 1396 OFFCURVE",
"488 1461 OFFCURVE",
"434 1461 QCURVE SMOOTH",
"389 1461 OFFCURVE",
"307 1419 OFFCURVE",
"271 1374 QCURVE",
"244 1388 LINE",
"283 1455 OFFCURVE",
"407 1526 OFFCURVE",
"475 1526 QCURVE SMOOTH",
"559 1526 OFFCURVE",
"658 1437 OFFCURVE",
"658 1359 QCURVE SMOOTH",
"658 1271 OFFCURVE",
"519 1152 OFFCURVE",
"438 1138 QCURVE",
"438 1134 LINE",
"519 1120 OFFCURVE",
"629 1018 OFFCURVE",
"629 927 QCURVE SMOOTH",
"629 788 OFFCURVE",
"409 584 OFFCURVE",
"268 584 QCURVE SMOOTH",
"158 584 OFFCURVE",
"64 659 OFFCURVE",
"64 706 QCURVE SMOOTH"
);
}
);
width = 674;
}
);
unicode = 00B3;
},
{
glyphname = acute;
layers = (
{
layerId = "D3CBDB62-9442-4B48-8AD1-7B332142411F";
paths = (
{
closed = 1;
nodes = (
"444 1030 LINE",
"679 1216 LINE SMOOTH",
"695 1228 OFFCURVE",
"714 1255 OFFCURVE",
"714 1272 QCURVE SMOOTH",
"714 1305 OFFCURVE",
"679 1339 OFFCURVE",
"652 1339 QCURVE SMOOTH",
"634 1339 OFFCURVE",
"600 1315 OFFCURVE",
"586 1294 QCURVE SMOOTH",
"424 1046 LINE"
);
}
);
width = 896;
}
);
unicode = 00B4;
},
{
glyphname = paragraph;
layers = (
{
layerId = "D3CBDB62-9442-4B48-8AD1-7B332142411F";
paths = (
{
closed = 1;
nodes = (
"731 787 LINE",
"691 784 OFFCURVE",
"554 794 OFFCURVE",
"495 803 QCURVE SMOOTH",
"323 828 OFFCURVE",
"112 1041 OFFCURVE",
"142 1207 QCURVE SMOOTH",
"172 1378 OFFCURVE",
"432 1500 OFFCURVE",
"610 1500 QCURVE SMOOTH",
"1107 1500 LINE",
"1097 1469 LINE",
"900 1435 LINE",
"783 784 LINE",
"662 181 LINE",
"734 137 OFFCURVE",
"744 33 OFFCURVE",
"693 6 QCURVE SMOOTH",
"652 -16 OFFCURVE",
"589 61 OFFCURVE",
"603 132 QCURVE SMOOTH"
);
},
{
closed = 1;
nodes = (
"511 842 LINE",
"564 833 LINE",
"446 263 LINE SMOOTH",
"382 -45 OFFCURVE",
"202 -236 OFFCURVE",
"89 -236 QCURVE SMOOTH",
"-11 -236 OFFCURVE",
"-89 -171 OFFCURVE",
"-89 -110 QCURVE SMOOTH",
"-89 -62 OFFCURVE",
"-10 7 OFFCURVE",
"38 10 QCURVE",
"50 -4 LINE",
"50 -25 LINE",
"26 -25 OFFCURVE",
"-11 -75 OFFCURVE",
"-11 -107 QCURVE SMOOTH",
"-11 -142 OFFCURVE",
"49 -171 OFFCURVE",
"104 -171 QCURVE SMOOTH",
"207 -171 OFFCURVE",
"343 25 OFFCURVE",
"383 220 QCURVE SMOOTH"
);
}
);
width = 1020;
}
);
unicode = 00B6;
},
{
glyphname = periodcentered;
layers = (
{
layerId = "D3CBDB62-9442-4B48-8AD1-7B332142411F";
paths = (
{
closed = 1;
nodes = (
"233 880 OFFCURVE",
"301 952 OFFCURVE",
"354 952 QCURVE SMOOTH",
"407 952 OFFCURVE",
"475 880 OFFCURVE",
"475 831 QCURVE SMOOTH",
"475 783 OFFCURVE",
"407 711 OFFCURVE",
"354 711 QCURVE SMOOTH",
"301 711 OFFCURVE",
"233 783 OFFCURVE",
"233 831 QCURVE SMOOTH"
);
}
);
width = 656;
}
);
unicode = 00B7;
},
{
glyphname = cedilla;
layers = (
{
layerId = "D3CBDB62-9442-4B48-8AD1-7B332142411F";
paths = (
{
closed = 1;
nodes = (
"237 -106 LINE",
"256 -95 OFFCURVE",
"328 -74 OFFCURVE",
"356 -74 QCURVE SMOOTH",
"427 -74 OFFCURVE",
"523 -176 OFFCURVE",
"509 -262 QCURVE SMOOTH",
"494 -355 OFFCURVE",
"356 -445 OFFCURVE",
"264 -445 QCURVE SMOOTH",
"181 -445 OFFCURVE",
"61 -388 OFFCURVE",
"23 -334 QCURVE",
"45 -318 LINE",
"76 -350 OFFCURVE",
"161 -396 OFFCURVE",
"236 -396 QCURVE SMOOTH",
"319 -396 OFFCURVE",
"398 -318 OFFCURVE",
"407 -259 QCURVE SMOOTH",
"414 -211 OFFCURVE",
"355 -133 OFFCURVE",
"301 -133 QCURVE SMOOTH",
"272 -133 OFFCURVE",
"224 -147 OFFCURVE",
"206 -155 QCURVE",
"191 -123 LINE",
"277 10 LINE",
"295 -3 LINE"
);
}
);
width = 896;
}
);
unicode = 00B8;
},
{
glyphname = onesuperior;
layers = (
{
layerId = "D3CBDB62-9442-4B48-8AD1-7B332142411F";
paths = (
{
closed = 1;
nodes = (
"216 730 OFFCURVE",
"227 783 OFFCURVE",
"243 867 QCURVE SMOOTH",
"321 1266 LINE",
"352 1413 LINE",
"158 1302 LINE",
"134 1350 LINE",
"465 1527 LINE",
"484 1504 LINE",
"470 1484 OFFCURVE",
"457 1402 OFFCURVE",
"455 1390 QCURVE SMOOTH",
"347 864 LINE",
"346 789 LINE",
"226 701 LINE",
"202 712 LINE"
);
}
);
width = 503;
}
);
unicode = 00B9;
},
{
glyphname = ordmasculine;
layers = (
{
layerId = "D3CBDB62-9442-4B48-8AD1-7B332142411F";
paths = (
{
closed = 1;
nodes = (
"154 1310 OFFCURVE",
"399 1510 OFFCURVE",
"528 1501 QCURVE SMOOTH",
"663 1491 OFFCURVE",
"786 1242 OFFCURVE",
"746 1100 QCURVE SMOOTH",
"699 934 OFFCURVE",
"460 727 OFFCURVE",
"328 733 QCURVE SMOOTH",
"201 739 OFFCURVE",
"73 989 OFFCURVE",
"113 1145 QCURVE SMOOTH"
);
},
{
closed = 1;
nodes = (
"222 1013 OFFCURVE",
"239 777 OFFCURVE",
"338 770 QCURVE SMOOTH",
"445 763 OFFCURVE",
"571 971 OFFCURVE",
"607 1112 QCURVE SMOOTH",
"638 1239 OFFCURVE",
"616 1457 OFFCURVE",
"516 1464 QCURVE SMOOTH",
"408 1472 OFFCURVE",
"289 1281 OFFCURVE",
"256 1147 QCURVE SMOOTH"
);
}
);
width = 695;
}
);
unicode = 00BA;
},
{
glyphname = questiondown;
layers = (
{
layerId = "D3CBDB62-9442-4B48-8AD1-7B332142411F";
paths = (
{
closed = 1;
nodes = (
"696 -84 OFFCURVE",
"472 -218 OFFCURVE",
"303 -218 QCURVE SMOOTH",
"132 -218 OFFCURVE",
"-49 -49 OFFCURVE",
"-49 90 QCURVE SMOOTH",
"-49 234 OFFCURVE",
"114 441 OFFCURVE",
"263 528 QCURVE SMOOTH",
"415 617 OFFCURVE",
"562 725 OFFCURVE",
"585 800 QCURVE SMOOTH",
"615 897 LINE",
"655 887 LINE",
"640 803 LINE SMOOTH",
"627 729 OFFCURVE",
"531 559 OFFCURVE",
"352 441 QCURVE SMOOTH",
"222 356 OFFCURVE",
"97 197 OFFCURVE",
"97 89 QCURVE SMOOTH",
"97 -28 OFFCURVE",
"240 -157 OFFCURVE",
"357 -157 QCURVE SMOOTH",
"458 -157 OFFCURVE",
"589 -57 OFFCURVE",
"597 -8 QCURVE SMOOTH",
"601 17 OFFCURVE",
"529 74 OFFCURVE",
"529 114 QCURVE SMOOTH",
"529 148 OFFCURVE",
"583 196 OFFCURVE",
"630 196 QCURVE SMOOTH",
"681 196 OFFCURVE",
"732 116 OFFCURVE",
"718 39 QCURVE SMOOTH"
);
},
{
closed = 1;
nodes = (
"766 1133 OFFCURVE",
"706 1070 OFFCURVE",
"653 1070 QCURVE SMOOTH",
"606 1070 OFFCURVE",
"554 1137 OFFCURVE",
"561 1191 QCURVE SMOOTH",
"565 1251 OFFCURVE",
"625 1313 OFFCURVE",
"678 1313 QCURVE SMOOTH",
"725 1313 OFFCURVE",
"776 1247 OFFCURVE",
"770 1191 QCURVE SMOOTH"
);
}
);
width = 934;
}
);
unicode = 00BF;
},
{
glyphname = AE;
layers = (
{
layerId = "D3CBDB62-9442-4B48-8AD1-7B332142411F";
paths = (
{
closed = 1;
nodes = (
"446 667 LINE",
"654 665 LINE",
"647 629 LINE",
"429 629 LINE"
);
},
{
closed = 1;
nodes = (
"874 673 LINE",
"868 629 LINE",
"647 629 LINE",
"654 665 LINE"
);
},
{
closed = 1;
nodes = (
"539 25 LINE",
"703 45 LINE",
"861 784 LINE",
"1001 1457 LINE",
"843 1474 LINE",
"848 1500 LINE",
"1702 1500 LINE",
"1636 1180 LINE",
"1609 1180 LINE",
"1560 1470 LINE",
"1192 1470 LINE",
"1165 1452 LINE",
"1023 784 LINE",
"868 40 LINE",
"891 28 LINE",
"1312 28 LINE",
"1528 350 LINE",
"1554 350 LINE",
"1442 0 LINE",
"534 0 LINE"
);
},
{
closed = 1;
nodes = (
"956 801 LINE",
"1328 808 LINE",
"1440 1017 LINE",
"1466 1017 LINE",
"1367 544 LINE",
"1341 544 LINE",
"1319 764 LINE",
"950 771 LINE"
);
},
{
closed = 1;
nodes = (
"451 644 LINE",
"8 40 LINE",
"230 25 LINE",
"225 0 LINE",
"-204 0 LINE",
"-199 25 LINE",
"-40 44 LINE",
"417 664 LINE",
"1012 1475 LINE",
"1059 1475 LINE"
);
}
);
width = 1653;
}
);
unicode = 00C6;
},
{
glyphname = multiply;
layers = (
{
layerId = "D3CBDB62-9442-4B48-8AD1-7B332142411F";
paths = (
{
closed = 1;
nodes = (
"67 365 LINE",
"678 976 LINE",
"754 900 LINE",
"143 289 LINE"
);
},
{
closed = 1;
nodes = (
"63 896 LINE",
"146 979 LINE",
"757 368 LINE",
"674 285 LINE"
);
}
);
width = 879;
}
);
unicode = 00D7;
},
{
glyphname = OE;
layers = (
{
layerId = "D3CBDB62-9442-4B48-8AD1-7B332142411F";
paths = (
{
closed = 1;
nodes = (
"134 1100 OFFCURVE",
"534 1507 OFFCURVE",
"809 1507 QCURVE SMOOTH",
"843 1507 OFFCURVE",
"993 1500 OFFCURVE",
"1010 1500 QCURVE SMOOTH",
"1734 1500 LINE",
"1668 1180 LINE",
"1641 1180 LINE",
"1592 1470 LINE",
"1224 1470 LINE",
"1197 1452 LINE",
"1055 784 LINE",
"903 55 LINE",
"928 28 LINE",
"1344 28 LINE",
"1560 350 LINE",
"1586 350 LINE",
"1474 0 LINE",
"756 0 LINE SMOOTH",
"726 0 OFFCURVE",
"517 -14 OFFCURVE",
"487 -14 QCURVE SMOOTH",
"217 -14 OFFCURVE",
"-10 419 OFFCURVE",
"64 769 QCURVE SMOOTH"
);
},
{
closed = 1;
nodes = (
"160 400 OFFCURVE",
"304 17 OFFCURVE",
"492 17 QCURVE SMOOTH",
"555 17 OFFCURVE",
"662 38 OFFCURVE",
"738 60 QCURVE",
"893 784 LINE",
"1028 1440 LINE",
"968 1457 OFFCURVE",
"854 1475 OFFCURVE",
"803 1475 QCURVE SMOOTH",
"599 1475 OFFCURVE",
"318 1153 OFFCURVE",
"240 781 QCURVE SMOOTH"
);
},
{
closed = 1;
nodes = (
"989 808 LINE",
"1361 815 LINE",
"1468 987 LINE",
"1494 987 LINE",
"1409 585 LINE",
"1383 585 LINE",
"1352 771 LINE",
"983 778 LINE"
);
}
);
width = 1685;
}
);
unicode = 0152;
},
{
glyphname = Thorn;
layers = (
{
layerId = "D3CBDB62-9442-4B48-8AD1-7B332142411F";
paths = (
{
closed = 1;
nodes = (
"680 1252 LINE SMOOTH",
"863 1252 OFFCURVE",
"1029 1045 OFFCURVE",
"996 837 QCURVE SMOOTH",
"961 618 OFFCURVE",
"689 382 OFFCURVE",
"455 382 QCURVE SMOOTH",
"394 382 OFFCURVE",
"279 398 OFFCURVE",
"244 409 QCURVE",
"251 438 LINE",
"302 421 OFFCURVE",
"379 411 OFFCURVE",
"457 411 QCURVE SMOOTH",
"589 411 OFFCURVE",
"778 612 OFFCURVE",
"821 845 QCURVE SMOOTH",
"857 1038 OFFCURVE",
"759 1224 OFFCURVE",
"620 1224 QCURVE SMOOTH",
"507 1224 LINE",
"474 1200 LINE",
"374 726 LINE",
"227 42 LINE",
"408 25 LINE",
"403 0 LINE",
"-96 0 LINE",
"-91 25 LINE",
"61 40 LINE",
"221 767 LINE",
"362 1459 LINE",
"204 1471 LINE",
"210 1500 LINE",
"715 1500 LINE",
"709 1464 LINE",
"527 1457 LINE",
"487 1252 LINE"
);
}
);
width = 1055;
}
);
unicode = 00DE;
},
{
glyphname = germandbls;
layers = (
{
layerId = "D3CBDB62-9442-4B48-8AD1-7B332142411F";
paths = (
{
closed = 1;
nodes = (
"183 1170 LINE SMOOTH",
"219 1389 OFFCURVE",
"398 1582 OFFCURVE",
"542 1582 QCURVE SMOOTH",
"668 1582 OFFCURVE",
"834 1439 OFFCURVE",
"834 1314 QCURVE SMOOTH",
"834 1195 OFFCURVE",
"697 983 OFFCURVE",
"653 930 QCURVE SMOOTH",
"618 888 OFFCURVE",
"572 827 OFFCURVE",
"572 777 QCURVE SMOOTH",
"572 726 OFFCURVE",
"665 648 OFFCURVE",
"756 590 QCURVE SMOOTH",
"843 534 OFFCURVE",
"931 390 OFFCURVE",
"931 292 QCURVE SMOOTH",
"932 135 OFFCURVE",
"736 -29 OFFCURVE",
"590 -29 QCURVE SMOOTH",
"459 -29 OFFCURVE",
"324 75 OFFCURVE",
"324 155 QCURVE SMOOTH",
"324 218 OFFCURVE",
"383 269 OFFCURVE",
"417 269 QCURVE SMOOTH",
"461 269 LINE",
"461 192 LINE SMOOTH",
"461 130 OFFCURVE",
"519 43 OFFCURVE",
"604 43 QCURVE SMOOTH",
"720 43 OFFCURVE",
"848 131 OFFCURVE",
"848 211 QCURVE SMOOTH",
"848 273 OFFCURVE",
"746 386 OFFCURVE",
"666 437 QCURVE SMOOTH",
"550 510 OFFCURVE",
"465 626 OFFCURVE",
"465 694 QCURVE SMOOTH",
"465 779 OFFCURVE",
"592 922 OFFCURVE",
"618 952 QCURVE SMOOTH",
"682 1024 OFFCURVE",
"738 1184 OFFCURVE",
"738 1310 QCURVE SMOOTH",
"738 1427 OFFCURVE",
"634 1550 OFFCURVE",
"546 1550 QCURVE SMOOTH",
"474 1550 OFFCURVE",
"362 1373 OFFCURVE",
"320 1116 QCURVE SMOOTH",
"203 405 LINE SMOOTH",
"152 98 OFFCURVE",
"-144 -395 OFFCURVE",
"-337 -395 QCURVE",
"-497 -335 LINE",
"-485 -311 LINE",
"-354 -311 LINE SMOOTH",
"-153 -311 OFFCURVE",
"-12 -17 OFFCURVE",
"42 312 QCURVE SMOOTH"
);
}
);
width = 1031;
}
);
unicode = 00DF;
},
{
glyphname = ae;
layers = (
{
layerId = "D3CBDB62-9442-4B48-8AD1-7B332142411F";
paths = (
{
closed = 1;
nodes = (
"6 550 OFFCURVE",
"412 961 OFFCURVE",
"622 961 QCURVE SMOOTH",
"640 961 OFFCURVE",
"705 935 OFFCURVE",
"726 914 QCURVE",
"804 979 LINE",
"823 979 LINE",
"869 879 LINE",
"910 913 OFFCURVE",
"1054 988 OFFCURVE",
"1126 988 QCURVE SMOOTH",
"1227 988 OFFCURVE",
"1361 846 OFFCURVE",
"1361 716 QCURVE SMOOTH",
"1361 680 OFFCURVE",
"1358 642 OFFCURVE",
"1355 623 QCURVE",
"1377 607 LINE",
"1368 577 LINE",
"1321 581 OFFCURVE",
"1170 583 OFFCURVE",
"1108 583 QCURVE SMOOTH",
"720 581 LINE",
"729 613 LINE",
"1180 617 LINE",
"1194 653 OFFCURVE",
"1211 759 OFFCURVE",
"1211 802 QCURVE SMOOTH",
"1211 858 OFFCURVE",
"1163 952 OFFCURVE",
"1106 952 QCURVE SMOOTH",
"974 952 OFFCURVE",
"811 694 OFFCURVE",
"771 471 QCURVE SMOOTH",
"736 275 OFFCURVE",
"818 70 OFFCURVE",
"937 72 QCURVE SMOOTH",
"1053 74 OFFCURVE",
"1242 180 OFFCURVE",
"1296 262 QCURVE",
"1320 262 LINE",
"1320 230 LINE",
"1244 120 OFFCURVE",
"998 -27 OFFCURVE",
"873 -15 QCURVE SMOOTH",
"755 -4 OFFCURVE",
"631 124 OFFCURVE",
"628 244 QCURVE",
"531 114 OFFCURVE",
"304 -10 OFFCURVE",
"198 -10 QCURVE SMOOTH",
"96 -10 OFFCURVE",
"6 141 OFFCURVE",
"6 250 QCURVE SMOOTH"
);
},
{
closed = 1;
nodes = (
"145 164 OFFCURVE",
"200 72 OFFCURVE",
"254 72 QCURVE SMOOTH",
"391 72 OFFCURVE",
"599 292 OFFCURVE",
"639 491 QCURVE SMOOTH",
"710 844 LINE",
"697 882 OFFCURVE",
"650 912 OFFCURVE",
"609 912 QCURVE SMOOTH",
"409 912 OFFCURVE",
"145 495 OFFCURVE",
"145 296 QCURVE SMOOTH"
);
}
);
width = 1468;
}
);
unicode = 00E6;
},
{
glyphname = eth;
layers = (
{
layerId = "D3CBDB62-9442-4B48-8AD1-7B332142411F";
paths = (
{
closed = 1;
nodes = (
"64 745 OFFCURVE",
"378 990 OFFCURVE",
"536 983 QCURVE SMOOTH",
"663 977 OFFCURVE",
"785 790 OFFCURVE",
"770 657 QCURVE",
"721 664 LINE",
"732 781 OFFCURVE",
"649 945 OFFCURVE",
"528 950 QCURVE SMOOTH",
"395 956 OFFCURVE",
"219 705 OFFCURVE",
"176 527 QCURVE SMOOTH",
"133 349 OFFCURVE",
"154 33 OFFCURVE",
"284 23 QCURVE SMOOTH",
"425 14 OFFCURVE",
"587 291 OFFCURVE",
"653 534 QCURVE SMOOTH",
"770 962 OFFCURVE",
"745 1389 OFFCURVE",
"630 1429 QCURVE SMOOTH",
"516 1469 OFFCURVE",
"274 1367 OFFCURVE",
"209 1291 QCURVE",
"189 1291 LINE",
"189 1311 LINE",
"257 1409 OFFCURVE",
"529 1551 OFFCURVE",
"676 1510 QCURVE SMOOTH",
"849 1462 OFFCURVE",
"940 979 OFFCURVE",
"831 551 QCURVE SMOOTH",
"755 251 OFFCURVE",
"444 -20 OFFCURVE",
"281 -10 QCURVE SMOOTH",
"111 0 OFFCURVE",
"-45 311 OFFCURVE",
"8 522 QCURVE SMOOTH"
);
},
{
closed = 1;
nodes = (
"974 1538 LINE",
"1006 1487 LINE",
"773 1345 LINE",
"481 1133 LINE",
"440 1182 LINE",
"748 1372 LINE"
);
}
);
width = 1010;
}
);
unicode = 00F0;
},
{
glyphname = divide;
layers = (
{
layerId = "D3CBDB62-9442-4B48-8AD1-7B332142411F";
paths = (
{
closed = 1;
nodes = (
"37 688 LINE",
"781 688 LINE",
"781 576 LINE",
"37 576 LINE"
);
},
{
closed = 1;
nodes = (
"302 403 OFFCURVE",
"362 467 OFFCURVE",
"409 467 QCURVE SMOOTH",
"456 467 OFFCURVE",
"516 403 OFFCURVE",
"516 360 QCURVE SMOOTH",
"516 319 OFFCURVE",
"456 255 OFFCURVE",
"409 255 QCURVE SMOOTH",
"362 255 OFFCURVE",
"302 319 OFFCURVE",
"302 360 QCURVE SMOOTH"
);
},
{
closed = 1;
nodes = (
"302 947 OFFCURVE",
"362 1011 OFFCURVE",
"409 1011 QCURVE SMOOTH",
"456 1011 OFFCURVE",
"516 947 OFFCURVE",
"516 905 QCURVE SMOOTH",
"516 863 OFFCURVE",
"456 799 OFFCURVE",
"409 799 QCURVE SMOOTH",
"362 799 OFFCURVE",
"302 863 OFFCURVE",
"302 905 QCURVE SMOOTH"
);
}
);
width = 879;
}
);
unicode = 00F7;
},
{
glyphname = oe;
layers = (
{
layerId = "D3CBDB62-9442-4B48-8AD1-7B332142411F";
paths = (
{
closed = 1;
nodes = (
"64 736 OFFCURVE",
"364 992 OFFCURVE",
"527 981 QCURVE SMOOTH",
"655 972 OFFCURVE",
"778 834 OFFCURVE",
"790 770 QCURVE",
"826 835 OFFCURVE",
"1021 972 OFFCURVE",
"1141 972 QCURVE SMOOTH",
"1242 972 OFFCURVE",
"1381 846 OFFCURVE",
"1381 716 QCURVE SMOOTH",
"1381 680 OFFCURVE",
"1371 633 OFFCURVE",
"1367 618 QCURVE",
"1388 604 LINE",
"1378 577 LINE",
"1331 581 OFFCURVE",
"1190 583 OFFCURVE",
"1128 583 QCURVE SMOOTH",
"730 581 LINE",
"739 613 LINE",
"1200 617 LINE",
"1214 653 OFFCURVE",
"1227 747 OFFCURVE",
"1227 790 QCURVE SMOOTH",
"1227 843 OFFCURVE",
"1184 935 OFFCURVE",
"1119 935 QCURVE SMOOTH",
"1000 935 OFFCURVE",
"834 715 OFFCURVE",
"791 471 QCURVE SMOOTH",
"756 275 OFFCURVE",
"836 64 OFFCURVE",
"955 66 QCURVE SMOOTH",
"1071 68 OFFCURVE",
"1250 189 OFFCURVE",
"1310 262 QCURVE",
"1330 262 LINE",
"1330 238 LINE",
"1264 147 OFFCURVE",
"1049 -15 OFFCURVE",
"914 -15 QCURVE SMOOTH",
"794 -15 OFFCURVE",
"659 126 OFFCURVE",
"659 204 QCURVE",
"608 120 OFFCURVE",
"401 -17 OFFCURVE",
"281 -10 QCURVE SMOOTH",
"111 0 OFFCURVE",
"-46 311 OFFCURVE",
"8 522 QCURVE SMOOTH"
);
},
{
closed = 1;
nodes = (
"133 349 OFFCURVE",
"154 28 OFFCURVE",
"284 23 QCURVE SMOOTH",
"407 18 OFFCURVE",
"557 203 OFFCURVE",
"616 410 QCURVE SMOOTH",
"675 616 OFFCURVE",
"650 940 OFFCURVE",
"520 949 QCURVE SMOOTH",
"378 959 OFFCURVE",
"219 705 OFFCURVE",
"176 527 QCURVE SMOOTH"
);
}
);
width = 1475;
}
);
unicode = 0153;
},
{
glyphname = thorn;
layers = (
{
layerId = "D3CBDB62-9442-4B48-8AD1-7B332142411F";
paths = (
{
closed = 1;
nodes = (
"90 511 LINE",
"278 1472 LINE",
"144 1472 LINE",
"153 1500 LINE",
"427 1581 LINE",
"446 1557 LINE",
"289 790 LINE",
"370 866 OFFCURVE",
"566 986 OFFCURVE",
"645 986 QCURVE SMOOTH",
"748 986 OFFCURVE",
"856 857 OFFCURVE",
"856 732 QCURVE SMOOTH",
"856 425 OFFCURVE",
"486 44 OFFCURVE",
"269 44 QCURVE SMOOTH",
"234 44 OFFCURVE",
"171 61 OFFCURVE",
"146 76 QCURVE",
"55 -384 LINE",
"190 -423 LINE",
"188 -460 LINE",
"-74 -416 LINE",
"-88 -391 LINE"
);
},
{
closed = 1;
nodes = (
"174 109 OFFCURVE",
"232 90 OFFCURVE",
"280 90 QCURVE SMOOTH",
"445 90 OFFCURVE",
"707 475 OFFCURVE",
"707 696 QCURVE SMOOTH",
"707 771 OFFCURVE",
"637 870 OFFCURVE",
"568 870 QCURVE SMOOTH",
"499 870 OFFCURVE",
"341 776 OFFCURVE",
"273 714 QCURVE",
"240 553 LINE",
"156 125 LINE"
);
}
);
width = 954;
}
);
unicode = 00FE;
},
{
glyphname = circumflex;
layers = (
{
layerId = "D3CBDB62-9442-4B48-8AD1-7B332142411F";
paths = (
{
closed = 1;
nodes = (
"623 1358 OFFCURVE",
"640 1316 OFFCURVE",
"653 1273 QCURVE SMOOTH",
"727 1045 LINE",
"709 1031 LINE",
"562 1235 LINE",
"298 1043 LINE",
"275 1056 LINE",
"482 1278 LINE SMOOTH",
"529 1329 OFFCURVE",
"563 1361 OFFCURVE",
"593 1359 QCURVE SMOOTH"
);
}
);
width = 896;
}
);
unicode = 02C6;
},
{
glyphname = caron;
layers = (
{
layerId = "D3CBDB62-9442-4B48-8AD1-7B332142411F";
paths = (
{
closed = 1;
nodes = (
"497 1068 OFFCURVE",
"480 1110 OFFCURVE",
"467 1153 QCURVE SMOOTH",
"393 1381 LINE",
"411 1395 LINE",
"558 1191 LINE",
"804 1403 LINE",
"827 1390 LINE",
"638 1148 LINE SMOOTH",
"595 1093 OFFCURVE",
"557 1065 OFFCURVE",
"527 1067 QCURVE SMOOTH"
);
}
);
width = 896;
}
);
unicode = 02C7;
},
{
glyphname = breve;
layers = (
{
layerId = "D3CBDB62-9442-4B48-8AD1-7B332142411F";
paths = (
{
closed = 1;
nodes = (
"858 1277 LINE",
"819 1196 OFFCURVE",
"642 1068 OFFCURVE",
"539 1068 QCURVE SMOOTH",
"440 1068 OFFCURVE",
"303 1200 OFFCURVE",
"309 1290 QCURVE",
"346 1304 LINE",
"364 1251 OFFCURVE",
"479 1165 OFFCURVE",
"554 1165 QCURVE SMOOTH",
"632 1165 OFFCURVE",
"799 1248 OFFCURVE",
"832 1291 QCURVE"
);
}
);
width = 896;
}
);
unicode = 02D8;
},
{
glyphname = dotaccent;
layers = (
{
layerId = "D3CBDB62-9442-4B48-8AD1-7B332142411F";
paths = (
{
closed = 1;
nodes = (
"433 1220 OFFCURVE",
"487 1273 OFFCURVE",
"538 1273 QCURVE SMOOTH",
"586 1273 OFFCURVE",
"643 1216 OFFCURVE",
"643 1170 QCURVE SMOOTH",
"643 1120 OFFCURVE",
"589 1067 OFFCURVE",
"538 1067 QCURVE SMOOTH",
"490 1067 OFFCURVE",
"433 1124 OFFCURVE",
"433 1170 QCURVE SMOOTH"
);
}
);
width = 896;
}
);
unicode = 02D9;
},
{
glyphname = ring;
layers = (
{
layerId = "D3CBDB62-9442-4B48-8AD1-7B332142411F";
paths = (
{
closed = 1;
nodes = (
"382 1339 OFFCURVE",
"492 1449 OFFCURVE",
"578 1449 QCURVE SMOOTH",
"664 1449 OFFCURVE",
"774 1339 OFFCURVE",
"774 1254 QCURVE SMOOTH",
"774 1169 OFFCURVE",
"664 1059 OFFCURVE",
"578 1059 QCURVE SMOOTH",
"492 1059 OFFCURVE",
"382 1169 OFFCURVE",
"382 1254 QCURVE SMOOTH"
);
},
{
closed = 1;
nodes = (
"454 1198 OFFCURVE",
"521 1130 OFFCURVE",
"578 1130 QCURVE SMOOTH",
"638 1130 OFFCURVE",
"702 1194 OFFCURVE",
"702 1254 QCURVE SMOOTH",
"702 1310 OFFCURVE",
"635 1378 OFFCURVE",
"578 1378 QCURVE SMOOTH",
"518 1378 OFFCURVE",
"454 1314 OFFCURVE",
"454 1254 QCURVE SMOOTH"
);
}
);
width = 896;
}
);
unicode = 02DA;
},
{
glyphname = ogonek;
layers = (
{
layerId = "D3CBDB62-9442-4B48-8AD1-7B332142411F";
paths = (
{
closed = 1;
nodes = (
"254 -254 OFFCURVE",
"314 -316 OFFCURVE",
"363 -316 QCURVE SMOOTH",
"424 -316 OFFCURVE",
"518 -280 OFFCURVE",
"583 -225 QCURVE",
"597 -240 LINE",
"550 -308 OFFCURVE",
"417 -406 OFFCURVE",
"341 -406 QCURVE SMOOTH",
"266 -407 OFFCURVE",
"158 -331 OFFCURVE",
"163 -255 QCURVE SMOOTH",
"168 -168 OFFCURVE",
"283 -39 OFFCURVE",
"359 9 QCURVE SMOOTH",
"388 27 LINE",
"406 7 LINE",
"392 -5 LINE SMOOTH",
"308 -79 OFFCURVE",
"260 -161 OFFCURVE",
"257 -206 QCURVE SMOOTH"
);
}
);
width = 896;
}
);
unicode = 02DB;
},
{
glyphname = tilde;
layers = (
{
layerId = "D3CBDB62-9442-4B48-8AD1-7B332142411F";
paths = (
{
closed = 1;
nodes = (
"256 1196 OFFCURVE",
"362 1296 OFFCURVE",
"418 1296 QCURVE SMOOTH",
"454 1296 OFFCURVE",
"517 1270 OFFCURVE",
"556 1238 QCURVE SMOOTH",
"592 1208 OFFCURVE",
"660 1166 OFFCURVE",
"692 1166 QCURVE",
"735 1166 OFFCURVE",
"784 1203 OFFCURVE",
"806 1231 QCURVE",
"827 1211 LINE",
"797 1152 OFFCURVE",
"702 1068 OFFCURVE",
"656 1068 QCURVE SMOOTH",
"616 1068 OFFCURVE",
"534 1112 OFFCURVE",
"511 1128 QCURVE SMOOTH",
"484 1147 OFFCURVE",
"419 1199 OFFCURVE",
"388 1199 QCURVE SMOOTH",
"352 1199 OFFCURVE",
"281 1161 OFFCURVE",
"248 1125 QCURVE",
"228 1145 LINE"
);
}
);
width = 896;
}
);
unicode = 02DC;
},
{
glyphname = hungarumlaut;
layers = (
{
layerId = "D3CBDB62-9442-4B48-8AD1-7B332142411F";
paths = (
{
closed = 1;
nodes = (
"329 1051 LINE",
"568 1235 LINE SMOOTH",
"583 1246 OFFCURVE",
"601 1280 OFFCURVE",
"602 1297 QCURVE SMOOTH",
"602 1321 OFFCURVE",
"571 1359 OFFCURVE",
"541 1359 QCURVE SMOOTH",
"522 1359 OFFCURVE",
"484 1339 OFFCURVE",
"468 1315 QCURVE SMOOTH",
"309 1067 LINE"
);
},
{
closed = 1;
nodes = (
"586 1051 LINE",
"825 1235 LINE SMOOTH",
"840 1246 OFFCURVE",
"858 1280 OFFCURVE",
"859 1297 QCURVE SMOOTH",
"859 1321 OFFCURVE",
"828 1359 OFFCURVE",
"798 1359 QCURVE SMOOTH",
"779 1359 OFFCURVE",
"741 1339 OFFCURVE",
"725 1315 QCURVE SMOOTH",
"566 1067 LINE"
);
}
);
width = 896;
}
);
unicode = 02DD;
},
{
glyphname = quoteleft;
layers = (
{
layerId = "D3CBDB62-9442-4B48-8AD1-7B332142411F";
paths = (
{
closed = 1;
nodes = (
"455 1482 OFFCURVE",
"350 1389 OFFCURVE",
"325 1335 QCURVE",
"400 1337 OFFCURVE",
"481 1274 OFFCURVE",
"481 1215 QCURVE SMOOTH",
"481 1171 OFFCURVE",
"417 1104 OFFCURVE",
"365 1104 QCURVE SMOOTH",
"314 1104 OFFCURVE",
"237 1182 OFFCURVE",
"237 1257 QCURVE SMOOTH",
"237 1350 OFFCURVE",
"419 1506 OFFCURVE",
"519 1541 QCURVE",
"525 1526 LINE"
);
}
);
width = 528;
}
);
unicode = 2018;
},
{
glyphname = quoteright;
layers = (
{
layerId = "D3CBDB62-9442-4B48-8AD1-7B332142411F";
paths = (
{
closed = 1;
nodes = (
"307 1133 OFFCURVE",
"412 1226 OFFCURVE",
"437 1280 QCURVE",
"362 1278 OFFCURVE",
"281 1341 OFFCURVE",
"281 1400 QCURVE SMOOTH",
"281 1444 OFFCURVE",
"345 1511 OFFCURVE",
"397 1511 QCURVE SMOOTH",
"448 1511 OFFCURVE",
"525 1433 OFFCURVE",
"525 1358 QCURVE SMOOTH",
"525 1265 OFFCURVE",
"343 1109 OFFCURVE",
"243 1074 QCURVE",
"237 1089 LINE"
);
}
);
width = 528;
}
);
unicode = 2019;
},
{
glyphname = minus;
layers = (
{
layerId = "D3CBDB62-9442-4B48-8AD1-7B332142411F";
paths = (
{
closed = 1;
nodes = (
"28 688 LINE",
"791 688 LINE",
"791 576 LINE",
"28 576 LINE"
);
}
);
width = 879;
}
);
unicode = 2212;
},
{
glyphname = zero.lf;
layers = (
{
layerId = "D3CBDB62-9442-4B48-8AD1-7B332142411F";
paths = (
{
closed = 1;
nodes = (
"134 1087 OFFCURVE",
"479 1510 OFFCURVE",
"699 1511 QCURVE SMOOTH",
"896 1512 OFFCURVE",
"1099 1071 OFFCURVE",
"1028 748 QCURVE SMOOTH",
"961 441 OFFCURVE",
"626 -15 OFFCURVE",
"401 -15 QCURVE SMOOTH",
"204 -15 OFFCURVE",
"-7 430 OFFCURVE",
"63 758 QCURVE SMOOTH"
);
},
{
closed = 1;
nodes = (
"164 465 OFFCURVE",
"275 31 OFFCURVE",
"428 31 QCURVE SMOOTH",
"581 31 OFFCURVE",
"812 430 OFFCURVE",
"874 758 QCURVE SMOOTH",
"931 1065 OFFCURVE",
"813 1463 OFFCURVE",
"664 1463 QCURVE SMOOTH",
"503 1462 OFFCURVE",
"276 1101 OFFCURVE",
"220 784 QCURVE SMOOTH"
);
}
);
width = 1076;
}
);
},
{
glyphname = one.lf;
layers = (
{
layerId = "D3CBDB62-9442-4B48-8AD1-7B332142411F";
paths = (
{
closed = 1;
nodes = (
"210 14 OFFCURVE",
"226 106 OFFCURVE",
"253 269 QCURVE SMOOTH",
"417 1089 LINE",
"467 1386 LINE",
"92 1148 LINE",
"61 1207 LINE",
"645 1542 LINE",
"665 1518 LINE",
"637 1478 OFFCURVE",
"614 1324 OFFCURVE",
"609 1301 QCURVE SMOOTH",
"398 269 LINE",
"396 125 LINE",
"215 -33 LINE",
"184 -20 LINE"
);
}
);
width = 672;
}
);
},
{
glyphname = two.lf;
layers = (
{
layerId = "D3CBDB62-9442-4B48-8AD1-7B332142411F";
paths = (
{
closed = 1;
nodes = (
"-144 49 LINE",
"-14 157 LINE",
"404 497 OFFCURVE",
"691 929 OFFCURVE",
"691 1140 QCURVE SMOOTH",
"691 1274 OFFCURVE",
"571 1416 OFFCURVE",
"465 1416 QCURVE SMOOTH",
"358 1416 OFFCURVE",
"194 1331 OFFCURVE",
"124 1247 QCURVE",
"103 1258 LINE",
"153 1373 OFFCURVE",
"365 1523 OFFCURVE",
"513 1523 QCURVE SMOOTH",
"673 1523 OFFCURVE",
"862 1357 OFFCURVE",
"862 1184 QCURVE SMOOTH",
"862 954 OFFCURVE",
"317 357 OFFCURVE",
"71 179 QCURVE",
"73 174 LINE",
"213 222 OFFCURVE",
"599 197 OFFCURVE",
"760 148 QCURVE",
"699 -16 LINE",
"550 49 OFFCURVE",
"43 148 OFFCURVE",
"-117 12 QCURVE"
);
}
);
width = 911;
}
);
},
{
glyphname = three.lf;
layers = (
{
layerId = "D3CBDB62-9442-4B48-8AD1-7B332142411F";
paths = (
{
closed = 1;
nodes = (
"-224 89 OFFCURVE",
"-128 188 OFFCURVE",
"-52 209 QCURVE",
"-38 187 LINE",
"-38 167 LINE",
"-76 149 OFFCURVE",
"-118 81 OFFCURVE",
"-118 37 QCURVE SMOOTH",
"-118 -21 OFFCURVE",
"3 -120 OFFCURVE",
"113 -120 QCURVE SMOOTH",
"348 -120 OFFCURVE",
"604 121 OFFCURVE",
"604 404 QCURVE SMOOTH",
"604 575 OFFCURVE",
"436 759 OFFCURVE",
"296 773 QCURVE SMOOTH",
"196 783 LINE",
"200 817 LINE",
"266 815 LINE SMOOTH",
"420 809 OFFCURVE",
"654 1039 OFFCURVE",
"654 1187 QCURVE SMOOTH",
"654 1290 OFFCURVE",
"533 1414 OFFCURVE",
"434 1414 QCURVE SMOOTH",
"341 1414 OFFCURVE",
"189 1318 OFFCURVE",
"143 1243 QCURVE",
"108 1259 LINE",
"161 1362 OFFCURVE",
"359 1514 OFFCURVE",
"505 1514 QCURVE SMOOTH",
"654 1514 OFFCURVE",
"822 1352 OFFCURVE",
"822 1211 QCURVE SMOOTH",
"822 1052 OFFCURVE",
"586 844 OFFCURVE",
"443 811 QCURVE",
"442 804 LINE",
"571 783 OFFCURVE",
"771 600 OFFCURVE",
"771 435 QCURVE SMOOTH",
"771 182 OFFCURVE",
"348 -193 OFFCURVE",
"142 -193 QCURVE SMOOTH",
"-59 -193 OFFCURVE",
"-224 -76 OFFCURVE",
"-224 3 QCURVE SMOOTH"
);
}
);
width = 938;
}
);
},
{
glyphname = four.lf;
layers = (
{
layerId = "D3CBDB62-9442-4B48-8AD1-7B332142411F";
paths = (
{
closed = 1;
nodes = (
"-49 500 LINE",
"872 1542 LINE",
"916 1518 LINE",
"916 1478 LINE",
"750 540 LINE",
"1017 540 LINE",
"1000 464 LINE",
"736 459 LINE",
"697 176 LINE",
"697 43 LINE",
"517 -15 LINE",
"497 14 LINE",
"579 459 LINE",
"-30 465 LINE"
);
},
{
closed = 1;
nodes = (
"597 541 LINE",
"729 1309 LINE",
"62 560 LINE",
"66 550 LINE"
);
}
);
width = 1074;
}
);
},
{
glyphname = five.lf;
layers = (
{
layerId = "D3CBDB62-9442-4B48-8AD1-7B332142411F";
paths = (
{
closed = 1;
nodes = (
"-185 143 OFFCURVE",
"-92 262 OFFCURVE",
"-21 286 QCURVE",
"-6 268 LINE",
"-6 248 LINE",
"-51 230 OFFCURVE",
"-118 150 OFFCURVE",
"-118 92 QCURVE SMOOTH",
"-118 16 OFFCURVE",
"-2 -78 OFFCURVE",
"146 -80 QCURVE",
"345 -78 OFFCURVE",
"578 247 OFFCURVE",
"578 515 QCURVE SMOOTH",
"578 710 OFFCURVE",
"335 889 OFFCURVE",
"183 831 QCURVE SMOOTH",
"102 800 LINE",
"70 850 LINE",
"247 1467 LINE",
"279 1500 LINE",
"868 1500 LINE",
"827 1324 LINE",
"253 1324 LINE",
"242 1313 LINE",
"189 1123 OFFCURVE",
"136 916 OFFCURVE",
"107 839 QCURVE",
"344 950 LINE",
"541 955 OFFCURVE",
"758 756 OFFCURVE",
"758 550 QCURVE SMOOTH",
"758 243 OFFCURVE",
"412 -146 OFFCURVE",
"159 -146 QCURVE SMOOTH",
"-8 -146 OFFCURVE",
"-185 -23 OFFCURVE",
"-185 72 QCURVE SMOOTH"
);
}
);
width = 820;
}
);
},
{
glyphname = six.lf;
layers = (
{
layerId = "D3CBDB62-9442-4B48-8AD1-7B332142411F";
paths = (
{
closed = 1;
nodes = (
"47 806 OFFCURVE",
"608 1434 OFFCURVE",
"998 1551 QCURVE",
"1006 1520 LINE",
"704 1411 OFFCURVE",
"209 829 OFFCURVE",
"197 446 QCURVE SMOOTH",
"191 229 OFFCURVE",
"341 34 OFFCURVE",
"479 34 QCURVE SMOOTH",
"621 34 OFFCURVE",
"810 305 OFFCURVE",
"811 520 QCURVE SMOOTH",
"812 634 OFFCURVE",
"698 802 OFFCURVE",
"583 802 QCURVE SMOOTH",
"530 802 OFFCURVE",
"449 785 OFFCURVE",
"412 765 QCURVE",
"394 783 LINE",
"433 821 OFFCURVE",
"560 886 OFFCURVE",
"647 886 QCURVE SMOOTH",
"813 886 OFFCURVE",
"987 678 OFFCURVE",
"980 519 QCURVE SMOOTH",
"970 293 OFFCURVE",
"670 -17 OFFCURVE",
"435 -17 QCURVE SMOOTH",
"235 -17 OFFCURVE",
"32 252 OFFCURVE",
"38 471 QCURVE SMOOTH"
);
}
);
width = 1088;
}
);
},
{
glyphname = seven.lf;
layers = (
{
layerId = "D3CBDB62-9442-4B48-8AD1-7B332142411F";
paths = (
{
closed = 1;
nodes = (
"208 1500 LINE",
"1019 1500 LINE",
"1027 1464 LINE",
"814 1232 OFFCURVE",
"350 473 OFFCURVE",
"220 2 QCURVE",
"126 -31 LINE",
"104 2 LINE",
"279 467 OFFCURVE",
"670 1082 OFFCURVE",
"839 1318 QCURVE",
"827 1332 LINE",
"237 1332 LINE",
"142 1184 LINE",
"115 1195 LINE"
);
}
);
width = 901;
}
);
},
{
glyphname = eight.lf;
layers = (
{
layerId = "D3CBDB62-9442-4B48-8AD1-7B332142411F";
paths = (
{
closed = 1;
nodes = (
"-45 496 OFFCURVE",
"205 723 OFFCURVE",
"401 815 QCURVE",
"432 789 LINE",
"256 706 OFFCURVE",
"99 459 OFFCURVE",
"99 327 QCURVE SMOOTH",
"99 185 OFFCURVE",
"226 36 OFFCURVE",
"349 36 QCURVE SMOOTH",
"510 36 OFFCURVE",
"714 212 OFFCURVE",
"714 352 QCURVE SMOOTH",
"714 489 OFFCURVE",
"560 664 OFFCURVE",
"464 729 QCURVE SMOOTH",
"352 805 OFFCURVE",
"197 1008 OFFCURVE",
"197 1132 QCURVE SMOOTH",
"197 1285 OFFCURVE",
"432 1510 OFFCURVE",
"623 1510 QCURVE SMOOTH",
"737 1510 OFFCURVE",
"900 1388 OFFCURVE",
"900 1282 QCURVE SMOOTH",
"900 1153 OFFCURVE",
"726 937 OFFCURVE",
"535 837 QCURVE",
"510 866 LINE",
"669 970 OFFCURVE",
"763 1157 OFFCURVE",
"763 1255 QCURVE SMOOTH",
"763 1344 OFFCURVE",
"670 1458 OFFCURVE",
"579 1458 QCURVE SMOOTH",
"472 1458 OFFCURVE",
"332 1299 OFFCURVE",
"332 1173 QCURVE SMOOTH",
"332 1082 OFFCURVE",
"462 944 OFFCURVE",
"569 867 QCURVE SMOOTH",
"677 790 OFFCURVE",
"865 567 OFFCURVE",
"865 439 QCURVE SMOOTH",
"865 239 OFFCURVE",
"570 -9 OFFCURVE",
"338 -9 QCURVE SMOOTH",
"152 -9 OFFCURVE",
"-45 175 OFFCURVE",
"-45 328 QCURVE SMOOTH"
);
}
);
width = 946;
}
);
},
{
glyphname = nine.lf;
layers = (
{
layerId = "D3CBDB62-9442-4B48-8AD1-7B332142411F";
paths = (
{
closed = 1;
nodes = (
"77 -12 LINE",
"436 144 OFFCURVE",
"869 655 OFFCURVE",
"874 1038 QCURVE SMOOTH",
"876 1198 OFFCURVE",
"760 1460 OFFCURVE",
"597 1460 QCURVE SMOOTH",
"455 1460 OFFCURVE",
"271 1219 OFFCURVE",
"273 1033 QCURVE SMOOTH",
"274 890 OFFCURVE",
"378 711 OFFCURVE",
"491 711 QCURVE SMOOTH",
"559 711 OFFCURVE",
"647 754 OFFCURVE",
"667 780 QCURVE",
"699 770 LINE",
"665 704 OFFCURVE",
"529 638 OFFCURVE",
"442 638 QCURVE SMOOTH",
"276 638 OFFCURVE",
"100 846 OFFCURVE",
"105 1023 QCURVE SMOOTH",
"111 1231 OFFCURVE",
"406 1511 OFFCURVE",
"641 1511 QCURVE SMOOTH",
"850 1511 OFFCURVE",
"1047 1207 OFFCURVE",
"1044 1013 QCURVE SMOOTH",
"1041 678 OFFCURVE",
"480 69 OFFCURVE",
"92 -48 QCURVE"
);
}
);
width = 1088;
}
);
},
{
glyphname = foursuperior;
layers = (
{
layerId = "D3CBDB62-9442-4B48-8AD1-7B332142411F";
paths = (
{
closed = 1;
nodes = (
"112 965 LINE",
"620 1540 LINE",
"668 1524 LINE",
"668 1502 LINE",
"573 962 LINE",
"548 786 LINE",
"548 712 LINE",
"428 679 LINE",
"417 695 LINE",
"466 963 LINE",
"547 1406 LINE",
"190 1001 LINE",
"193 996 LINE",
"526 990 LINE",
"729 990 LINE",
"716 945 LINE",
"514 943 LINE",
"123 946 LINE"
);
}
);
width = 724;
}
);
unicode = 2074;
},
{
glyphname = idotless;
layers = (
{
layerId = "D3CBDB62-9442-4B48-8AD1-7B332142411F";
paths = (
{
closed = 1;
nodes = (
"6 61 LINE",
"121 547 LINE",
"175 855 LINE",
"22 851 LINE",
"24 879 LINE",
"314 965 LINE",
"358 965 LINE",
"363 954 LINE",
"290 665 LINE",
"161 84 LINE",
"386 110 LINE",
"386 82 LINE",
"55 -14 LINE"
);
}
);
width = 495;
}
);
unicode = 0131;
},
{
glyphname = jdotless;
layers = (
{
layerId = "D3CBDB62-9442-4B48-8AD1-7B332142411F";
paths = (
{
closed = 1;
nodes = (
"90 249 OFFCURVE",
"164 651 OFFCURVE",
"189 824 QCURVE",
"48 851 LINE",
"50 879 LINE",
"335 924 LINE",
"347 911 LINE",
"335 859 LINE",
"305 732 LINE",
"240 350 LINE",
"226 21 OFFCURVE",
"-164 -479 OFFCURVE",
"-351 -479 QCURVE",
"-521 -419 LINE",
"-509 -395 LINE",
"-388 -393 LINE SMOOTH",
"-166 -389 OFFCURVE",
"109 -62 OFFCURVE",
"127 145 QCURVE",
"53 155 LINE",
"38 179 LINE"
);
}
);
width = 442;
}
);
unicode = 0237;
},
{
glyphname = kgreenlandic;
layers = (
{
layerId = "D3CBDB62-9442-4B48-8AD1-7B332142411F";
paths = (
{
closed = 1;
nodes = (
"111 490 LINE",
"174 855 LINE",
"32 851 LINE",
"34 878 LINE",
"284 964 LINE",
"330 964 LINE",
"348 930 LINE",
"250 474 LINE",
"164 87 LINE",
"149 2 LINE",
"-10 -8 LINE",
"6 69 LINE"
);
},
{
closed = 1;
nodes = (
"758 840 LINE",
"477 618 LINE",
"778 85 LINE",
"893 85 LINE",
"893 45 LINE",
"737 5 LINE SMOOTH",
"688 -8 OFFCURVE",
"635 36 OFFCURVE",
"597 113 QCURVE SMOOTH",
"370 534 LINE",
"222 419 LINE",
"202 446 LINE",
"685 853 LINE",
"678 863 LINE",
"570 877 LINE",
"572 920 LINE",
"898 930 LINE",
"902 888 LINE"
);
}
);
width = 956;
}
);
unicode = 0138;
},
{
glyphname = Germandbls;
layers = (
{
layerId = "D3CBDB62-9442-4B48-8AD1-7B332142411F";
paths = (
{
closed = 1;
nodes = (
"303 -404 LINE",
"-199 -404 LINE",
"-194 -379 LINE",
"-28 -357 LINE",
"209 767 LINE",
"256 1001 LINE SMOOTH",
"314 1288 OFFCURVE",
"579 1544 OFFCURVE",
"757 1544 QCURVE SMOOTH",
"808 1544 OFFCURVE",
"904 1532 OFFCURVE",
"965 1513 QCURVE",
"1025 1509 LINE",
"1020 1460 LINE",
"892 1460 OFFCURVE",
"749 1334 OFFCURVE",
"735 1274 QCURVE SMOOTH",
"705 1144 OFFCURVE",
"827 954 OFFCURVE",
"967 841 QCURVE SMOOTH",
"1094 739 OFFCURVE",
"1274 512 OFFCURVE",
"1232 327 QCURVE SMOOTH",
"1200 185 OFFCURVE",
"943 -20 OFFCURVE",
"774 -20 QCURVE SMOOTH",
"658 -20 OFFCURVE",
"509 53 OFFCURVE",
"461 124 QCURVE",
"357 1 LINE",
"328 10 LINE",
"417 423 LINE",
"445 423 LINE",
"472 278 LINE SMOOTH",
"497 145 OFFCURVE",
"651 10 OFFCURVE",
"778 10 QCURVE SMOOTH",
"904 10 OFFCURVE",
"1055 128 OFFCURVE",
"1091 282 QCURVE SMOOTH",
"1122 412 OFFCURVE",
"981 622 OFFCURVE",
"833 731 QCURVE SMOOTH",
"708 823 OFFCURVE",
"567 1061 OFFCURVE",
"600 1199 QCURVE SMOOTH",
"625 1303 OFFCURVE",
"737 1440 OFFCURVE",
"837 1479 QCURVE",
"646 1477 OFFCURVE",
"474 1261 OFFCURVE",
"439 1089 QCURVE SMOOTH",
"369 747 LINE",
"136 -362 LINE",
"308 -379 LINE"
);
}
);
width = 1354;
}
);
unicode = 1E9E;
},
{
glyphname = Schwa;
layers = (
{
layerId = "D3CBDB62-9442-4B48-8AD1-7B332142411F";
paths = (
{
closed = 1;
nodes = (
"226 1407 OFFCURVE",
"539 1544 OFFCURVE",
"730 1519 QCURVE SMOOTH",
"983 1488 OFFCURVE",
"1215 979 OFFCURVE",
"1135 664 QCURVE SMOOTH",
"1052 339 OFFCURVE",
"542 -47 OFFCURVE",
"296 -19 QCURVE SMOOTH",
"153 -3 OFFCURVE",
"-6 165 OFFCURVE",
"-6 282 QCURVE SMOOTH",
"-6 314 OFFCURVE",
"3 382 OFFCURVE",
"16 426 QCURVE",
"41 441 LINE",
"904 437 LINE",
"923 479 OFFCURVE",
"958 602 OFFCURVE",
"971 658 QCURVE SMOOTH",
"1042 954 OFFCURVE",
"903 1417 OFFCURVE",
"696 1449 QCURVE SMOOTH",
"505 1479 OFFCURVE",
"217 1344 OFFCURVE",
"125 1200 QCURVE",
"107 1213 LINE",
"105 1242 LINE"
);
},
{
closed = 1;
nodes = (
"479 55 OFFCURVE",
"783 214 OFFCURVE",
"880 387 QCURVE",
"479 384 LINE",
"222 375 LINE SMOOTH",
"169 373 OFFCURVE",
"127 302 OFFCURVE",
"144 240 QCURVE SMOOTH",
"162 176 OFFCURVE",
"282 87 OFFCURVE",
"331 79 QCURVE SMOOTH"
);
}
);
width = 1219;
}
);
unicode = 018F;
},
{
glyphname = schwa;
layers = (
{
layerId = "D3CBDB62-9442-4B48-8AD1-7B332142411F";
paths = (
{
closed = 1;
nodes = (
"689 292 OFFCURVE",
"382 -22 OFFCURVE",
"221 -22 QCURVE SMOOTH",
"120 -22 OFFCURVE",
"-14 120 OFFCURVE",
"-14 250 QCURVE SMOOTH",
"-14 286 OFFCURVE",
"-12 292 OFFCURVE",
"-11 317 QCURVE",
"-28 342 LINE",
"-11 389 LINE",
"36 385 OFFCURVE",
"177 383 OFFCURVE",
"239 383 QCURVE SMOOTH",
"637 385 LINE",
"628 353 LINE",
"167 349 LINE",
"153 313 OFFCURVE",
"140 219 OFFCURVE",
"140 176 QCURVE SMOOTH",
"140 120 OFFCURVE",
"192 43 OFFCURVE",
"249 43 QCURVE SMOOTH",
"381 43 OFFCURVE",
"536 272 OFFCURVE",
"576 495 QCURVE SMOOTH",
"611 691 OFFCURVE",
"529 896 OFFCURVE",
"410 894 QCURVE SMOOTH",
"294 892 OFFCURVE",
"125 786 OFFCURVE",
"71 704 QCURVE",
"37 704 LINE",
"37 736 LINE",
"102 821 OFFCURVE",
"321 988 OFFCURVE",
"474 981 QCURVE SMOOTH",
"632 975 OFFCURVE",
"783 705 OFFCURVE",
"739 513 QCURVE SMOOTH"
);
}
);
width = 855;
}
);
unicode = 0259;
},
{
glyphname = micro;
layers = (
{
layerId = "D3CBDB62-9442-4B48-8AD1-7B332142411F";
paths = (
{
closed = 1;
nodes = (
"-75 -352 LINE",
"-36 -157 OFFCURVE",
"25 152 OFFCURVE",
"51 273 QCURVE SMOOTH",
"174 854 LINE",
"32 851 LINE",
"34 879 LINE",
"285 965 LINE",
"330 965 LINE",
"338 953 LINE",
"185 245 LINE SMOOTH",
"167 162 OFFCURVE",
"233 70 OFFCURVE",
"298 70 QCURVE SMOOTH",
"377 70 OFFCURVE",
"519 180 OFFCURVE",
"570 242 QCURVE",
"720 881 LINE",
"718 978 LINE",
"861 961 LINE",
"880 929 LINE",
"711 252 LINE",
"721 87 LINE",
"839 87 LINE",
"848 54 LINE",
"619 -6 LINE",
"592 8 LINE",
"570 193 LINE",
"498 107 OFFCURVE",
"328 -7 OFFCURVE",
"242 -7 QCURVE SMOOTH",
"213 -7 OFFCURVE",
"160 7 OFFCURVE",
"138 20 QCURVE",
"57 -362 LINE",
"136 -402 LINE",
"111 -443 LINE",
"-105 -408 LINE",
"-111 -374 LINE"
);
}
);
width = 986;
}
);
unicode = 00B5;
},
{
glyphname = fi;
layers = (
{
layerId = "D3CBDB62-9442-4B48-8AD1-7B332142411F";
paths = (
{
closed = 1;
nodes = (
"-454 -395 LINE",
"-323 -395 LINE SMOOTH",
"-122 -395 OFFCURVE",
"29 -102 OFFCURVE",
"84 312 QCURVE SMOOTH",
"156 854 LINE",
"158 857 LINE",
"196 1107 LINE SMOOTH",
"231 1335 OFFCURVE",
"419 1552 OFFCURVE",
"547 1550 QCURVE SMOOTH",
"632 1549 OFFCURVE",
"735 1488 OFFCURVE",
"735 1429 QCURVE SMOOTH",
"735 1381 OFFCURVE",
"668 1329 OFFCURVE",
"608 1329 QCURVE",
"614 1354 OFFCURVE",
"622 1419 OFFCURVE",
"622 1445 QCURVE SMOOTH",
"622 1476 OFFCURVE",
"588 1518 OFFCURVE",
"551 1518 QCURVE SMOOTH",
"482 1518 OFFCURVE",
"365 1342 OFFCURVE",
"331 1084 QCURVE SMOOTH",
"303 858 LINE",
"302 852 LINE",
"265 581 LINE SMOOTH",
"189 27 OFFCURVE",
"-119 -479 OFFCURVE",
"-306 -479 QCURVE",
"-466 -419 LINE"
);
},
{
closed = 1;
nodes = (
"9 875 LINE",
"194 877 LINE",
"645 888 LINE",
"641 849 LINE",
"228 844 LINE",
"192 841 LINE",
"9 844 LINE"
);
},
{
closed = 1;
nodes = (
"506 61 LINE",
"611 547 LINE",
"668 833 LINE",
"522 851 LINE",
"525 872 LINE",
"805 922 LINE",
"832 908 LINE",
"817 840 LINE",
"770 665 LINE",
"661 84 LINE",
"838 102 LINE",
"838 82 LINE",
"555 -14 LINE"
);
}
);
width = 976;
}
);
unicode = FB01;
},
{
glyphname = fl;
layers = (
{
layerId = "D3CBDB62-9442-4B48-8AD1-7B332142411F";
paths = (
{
closed = 1;
nodes = (
"-454 -395 LINE",
"-323 -395 LINE SMOOTH",
"-122 -395 OFFCURVE",
"38 -103 OFFCURVE",
"89 312 QCURVE SMOOTH",
"156 852 LINE",
"158 857 LINE",
"204 1107 LINE SMOOTH",
"246 1335 OFFCURVE",
"467 1531 OFFCURVE",
"565 1530 QCURVE SMOOTH",
"638 1530 OFFCURVE",
"689 1476 OFFCURVE",
"689 1443 QCURVE SMOOTH",
"689 1409 OFFCURVE",
"657 1357 OFFCURVE",
"588 1357 QCURVE",
"591 1385 OFFCURVE",
"591 1414 OFFCURVE",
"590 1444 QCURVE",
"590 1467 OFFCURVE",
"575 1488 OFFCURVE",
"559 1488 QCURVE SMOOTH",
"490 1488 OFFCURVE",
"384 1342 OFFCURVE",
"339 1084 QCURVE SMOOTH",
"300 858 LINE",
"298 849 LINE",
"270 581 LINE SMOOTH",
"212 25 OFFCURVE",
"-119 -479 OFFCURVE",
"-306 -479 QCURVE",
"-466 -419 LINE"
);
},
{
closed = 1;
nodes = (
"5 871 LINE",
"203 867 LINE",
"504 875 LINE",
"498 846 LINE",
"243 831 LINE",
"203 839 LINE",
"5 830 LINE"
);
},
{
closed = 1;
nodes = (
"533 49 LINE",
"647 604 LINE",
"793 1433 LINE",
"636 1363 LINE",
"628 1401 LINE",
"935 1536 LINE",
"956 1511 LINE",
"774 588 LINE",
"677 81 LINE",
"867 107 LINE",
"867 89 LINE",
"537 -12 LINE"
);
}
);
width = 992;
}
);
unicode = FB02;
},
{
glyphname = f_f;
layers = (
{
layerId = "D3CBDB62-9442-4B48-8AD1-7B332142411F";
paths = (
{
closed = 1;
nodes = (
"-454 -395 LINE",
"-343 -395 LINE SMOOTH",
"-142 -395 OFFCURVE",
"18 -103 OFFCURVE",
"69 312 QCURVE SMOOTH",
"136 852 LINE",
"138 857 LINE",
"171 1062 LINE SMOOTH",
"208 1289 OFFCURVE",
"394 1506 OFFCURVE",
"522 1505 QCURVE SMOOTH",
"617 1504 OFFCURVE",
"687 1436 OFFCURVE",
"687 1385 QCURVE SMOOTH",
"687 1343 OFFCURVE",
"620 1309 OFFCURVE",
"567 1309 QCURVE",
"568 1330 OFFCURVE",
"580 1387 OFFCURVE",
"580 1410 QCURVE SMOOTH",
"580 1437 OFFCURVE",
"556 1470 OFFCURVE",
"517 1470 QCURVE SMOOTH",
"456 1470 OFFCURVE",
"342 1296 OFFCURVE",
"306 1039 QCURVE SMOOTH",
"281 858 LINE",
"280 852 LINE",
"250 581 LINE SMOOTH",
"188 24 OFFCURVE",
"-139 -479 OFFCURVE",
"-326 -479 QCURVE",
"-466 -419 LINE"
);
},
{
closed = 1;
nodes = (
"32 -298 LINE",
"163 -298 LINE SMOOTH",
"364 -298 OFFCURVE",
"521 -4 OFFCURVE",
"575 409 QCURVE SMOOTH",
"633 851 LINE",
"635 856 LINE",
"673 1107 LINE SMOOTH",
"708 1335 OFFCURVE",
"896 1551 OFFCURVE",
"1024 1550 QCURVE SMOOTH",
"1119 1549 OFFCURVE",
"1222 1475 OFFCURVE",
"1222 1416 QCURVE SMOOTH",
"1222 1368 OFFCURVE",
"1145 1329 OFFCURVE",
"1085 1329 QCURVE",
"1086 1353 OFFCURVE",
"1099 1419 OFFCURVE",
"1099 1445 QCURVE SMOOTH",
"1099 1476 OFFCURVE",
"1073 1518 OFFCURVE",
"1028 1518 QCURVE SMOOTH",
"959 1518 OFFCURVE",
"842 1342 OFFCURVE",
"808 1084 QCURVE SMOOTH",
"778 859 LINE",
"779 851 LINE",
"756 678 LINE SMOOTH",
"682 119 OFFCURVE",
"367 -382 OFFCURVE",
"180 -382 QCURVE",
"20 -322 LINE"
);
},
{
closed = 1;
nodes = (
"-15 871 LINE",
"161 862 LINE",
"984 875 LINE",
"978 846 LINE",
"203 831 LINE",
"163 839 LINE",
"-15 830 LINE"
);
}
);
width = 944;
}
);
unicode = FB00;
},
{
glyphname = f_f_i;
layers = (
{
layerId = "D3CBDB62-9442-4B48-8AD1-7B332142411F";
paths = (
{
closed = 1;
nodes = (
"-454 -395 LINE",
"-343 -395 LINE SMOOTH",
"-142 -395 OFFCURVE",
"18 -103 OFFCURVE",
"69 312 QCURVE SMOOTH",
"136 852 LINE",
"138 857 LINE",
"171 1062 LINE SMOOTH",
"208 1289 OFFCURVE",
"394 1506 OFFCURVE",
"522 1505 QCURVE SMOOTH",
"617 1504 OFFCURVE",
"687 1436 OFFCURVE",
"687 1385 QCURVE SMOOTH",
"687 1343 OFFCURVE",
"620 1297 OFFCURVE",
"567 1297 QCURVE",
"568 1318 OFFCURVE",
"580 1387 OFFCURVE",
"580 1410 QCURVE SMOOTH",
"580 1437 OFFCURVE",
"556 1470 OFFCURVE",
"517 1470 QCURVE SMOOTH",
"456 1470 OFFCURVE",
"342 1296 OFFCURVE",
"306 1039 QCURVE SMOOTH",
"281 858 LINE",
"280 852 LINE",
"250 581 LINE SMOOTH",
"188 24 OFFCURVE",
"-139 -479 OFFCURVE",
"-326 -479 QCURVE",
"-466 -419 LINE"
);
},
{
closed = 1;
nodes = (
"32 -298 LINE",
"163 -298 LINE SMOOTH",
"364 -298 OFFCURVE",
"521 -4 OFFCURVE",
"575 409 QCURVE SMOOTH",
"633 851 LINE",
"635 856 LINE",
"673 1107 LINE SMOOTH",
"708 1335 OFFCURVE",
"896 1551 OFFCURVE",
"1024 1550 QCURVE SMOOTH",
"1119 1549 OFFCURVE",
"1232 1465 OFFCURVE",
"1232 1406 QCURVE SMOOTH",
"1232 1358 OFFCURVE",
"1155 1299 OFFCURVE",
"1095 1299 QCURVE",
"1096 1323 OFFCURVE",
"1109 1409 OFFCURVE",
"1109 1435 QCURVE SMOOTH",
"1109 1466 OFFCURVE",
"1073 1518 OFFCURVE",
"1028 1518 QCURVE SMOOTH",
"959 1518 OFFCURVE",
"842 1342 OFFCURVE",
"808 1084 QCURVE SMOOTH",
"778 859 LINE",
"779 851 LINE",
"756 678 LINE SMOOTH",
"682 119 OFFCURVE",
"367 -382 OFFCURVE",
"180 -382 QCURVE",
"20 -322 LINE"
);
},
{
closed = 1;
nodes = (
"-15 871 LINE",
"163 867 LINE",
"1117 875 LINE",
"1111 846 LINE",
"203 831 LINE",
"163 839 LINE",
"-15 830 LINE"
);
},
{
closed = 1;
nodes = (
"984 61 LINE",
"1099 547 LINE",
"1146 833 LINE",
"1000 851 LINE",
"1003 872 LINE",
"1283 924 LINE",
"1310 910 LINE",
"1295 860 LINE",
"1258 665 LINE",
"1139 84 LINE",
"1316 102 LINE",
"1316 82 LINE",
"1033 -14 LINE"
);
}
);
width = 1446;
}
);
unicode = FB03;
},
{
glyphname = f_f_l;
layers = (
{
layerId = "D3CBDB62-9442-4B48-8AD1-7B332142411F";
paths = (
{
closed = 1;
nodes = (
"-454 -395 LINE",
"-343 -395 LINE SMOOTH",
"-142 -395 OFFCURVE",
"18 -103 OFFCURVE",
"69 312 QCURVE SMOOTH",
"136 852 LINE",
"138 857 LINE",
"171 1062 LINE SMOOTH",
"208 1289 OFFCURVE",
"394 1506 OFFCURVE",
"522 1505 QCURVE SMOOTH",
"617 1504 OFFCURVE",
"687 1436 OFFCURVE",
"687 1385 QCURVE SMOOTH",
"687 1343 OFFCURVE",
"620 1309 OFFCURVE",
"567 1309 QCURVE",
"568 1330 OFFCURVE",
"580 1387 OFFCURVE",
"580 1410 QCURVE SMOOTH",
"580 1437 OFFCURVE",
"556 1470 OFFCURVE",
"517 1470 QCURVE SMOOTH",
"456 1470 OFFCURVE",
"342 1296 OFFCURVE",
"306 1039 QCURVE SMOOTH",
"281 858 LINE",
"280 852 LINE",
"250 581 LINE SMOOTH",
"188 24 OFFCURVE",
"-139 -479 OFFCURVE",
"-326 -479 QCURVE",
"-466 -419 LINE"
);
},
{
closed = 1;
nodes = (
"16 -298 LINE",
"147 -298 LINE SMOOTH",
"348 -298 OFFCURVE",
"505 -4 OFFCURVE",
"559 409 QCURVE SMOOTH",
"617 851 LINE",
"619 856 LINE",
"657 1107 LINE SMOOTH",
"692 1336 OFFCURVE",
"940 1561 OFFCURVE",
"1038 1560 QCURVE SMOOTH",
"1111 1560 OFFCURVE",
"1162 1506 OFFCURVE",
"1162 1473 QCURVE SMOOTH",
"1162 1439 OFFCURVE",
"1130 1386 OFFCURVE",
"1061 1386 QCURVE",
"1063 1415 OFFCURVE",
"1063 1444 OFFCURVE",
"1063 1473 QCURVE",
"1063 1496 OFFCURVE",
"1048 1518 OFFCURVE",
"1032 1518 QCURVE SMOOTH",
"963 1518 OFFCURVE",
"827 1344 OFFCURVE",
"792 1084 QCURVE SMOOTH",
"762 859 LINE",
"763 851 LINE",
"740 678 LINE SMOOTH",
"666 119 OFFCURVE",
"351 -382 OFFCURVE",
"164 -382 QCURVE",
"4 -322 LINE"
);
},
{
closed = 1;
nodes = (
"-15 871 LINE",
"161 862 LINE",
"968 875 LINE",
"962 846 LINE",
"203 831 LINE",
"163 839 LINE",
"-15 830 LINE"
);
},
{
closed = 1;
nodes = (
"1001 49 LINE",
"1115 604 LINE",
"1268 1491 LINE",
"1109 1471 LINE",
"1120 1502 LINE",
"1407 1570 LINE",
"1428 1545 LINE",
"1242 588 LINE",
"1145 81 LINE",
"1335 107 LINE",
"1335 89 LINE",
"1005 -12 LINE"
);
}
);
width = 1469;
}
);
unicode = FB04;
},
{
glyphname = euro;
layers = (
{
layerId = "D3CBDB62-9442-4B48-8AD1-7B332142411F";
paths = (
{
closed = 1;
nodes = (
"124 946 LINE",
"894 946 LINE",
"874 906 LINE",
"110 906 LINE"
);
},
{
closed = 1;
nodes = (
"68 619 LINE",
"813 619 LINE",
"793 579 LINE",
"63 579 LINE"
);
},
{
closed = 1;
nodes = (
"1069 1336 OFFCURVE",
"928 1437 OFFCURVE",
"851 1437 QCURVE SMOOTH",
"670 1437 OFFCURVE",
"417 1100 OFFCURVE",
"361 778 QCURVE SMOOTH",
"305 451 OFFCURVE",
"441 51 OFFCURVE",
"605 51 QCURVE SMOOTH",
"696 51 OFFCURVE",
"838 122 OFFCURVE",
"913 202 QCURVE",
"950 170 LINE",
"869 79 OFFCURVE",
"684 -30 OFFCURVE",
"579 -30 QCURVE SMOOTH",
"347 -30 OFFCURVE",
"134 399 OFFCURVE",
"196 746 QCURVE SMOOTH",
"256 1091 OFFCURVE",
"623 1510 OFFCURVE",
"847 1510 QCURVE SMOOTH",
"964 1510 OFFCURVE",
"1112 1376 OFFCURVE",
"1143 1268 QCURVE",
"1103 1253 LINE"
);
}
);
width = 1069;
}
);
unicode = 20AC;
},
{
glyphname = florin;
layers = (
{
layerId = "D3CBDB62-9442-4B48-8AD1-7B332142411F";
paths = (
{
closed = 1;
nodes = (
"277 -12 OFFCURVE",
"73 -290 OFFCURVE",
"-68 -290 QCURVE SMOOTH",
"-78 -290 OFFCURVE",
"-105 -288 OFFCURVE",
"-113 -287 QCURVE SMOOTH",
"-133 -285 LINE",
"-147 -232 LINE",
"-128 -232 LINE",
"-121 -244 OFFCURVE",
"-102 -252 OFFCURVE",
"-80 -252 QCURVE SMOOTH",
"1 -252 OFFCURVE",
"134 -39 OFFCURVE",
"190 378 QCURVE SMOOTH",
"247 806 LINE",
"99 816 LINE",
"97 847 LINE",
"256 870 LINE",
"297 1111 LINE SMOOTH",
"332 1314 OFFCURVE",
"500 1524 OFFCURVE",
"623 1524 QCURVE SMOOTH",
"632 1524 OFFCURVE",
"651 1523 OFFCURVE",
"661 1522 QCURVE SMOOTH",
"682 1520 LINE",
"695 1464 LINE",
"680 1462 LINE",
"666 1476 OFFCURVE",
"634 1491 OFFCURVE",
"622 1491 QCURVE SMOOTH",
"553 1491 OFFCURVE",
"468 1314 OFFCURVE",
"436 1057 QCURVE SMOOTH",
"413 863 LINE",
"599 863 LINE",
"594 834 LINE",
"405 807 LINE",
"339 386 LINE SMOOTH"
);
}
);
width = 644;
}
);
unicode = 0192;
},
{
glyphname = franc;
layers = (
{
layerId = "D3CBDB62-9442-4B48-8AD1-7B332142411F";
paths = (
{
closed = 1;
nodes = (
"45 452 LINE",
"729 452 LINE",
"718 416 LINE",
"34 416 LINE"
);
},
{
closed = 1;
nodes = (
"-91 25 LINE",
"77 62 LINE",
"238 797 LINE",
"367 1437 LINE",
"212 1471 LINE",
"218 1500 LINE",
"1028 1500 LINE",
"960 1170 LINE",
"936 1170 LINE",
"912 1470 LINE",
"573 1470 LINE",
"533 1447 LINE",
"392 797 LINE",
"245 57 LINE",
"426 25 LINE",
"421 0 LINE",
"-96 0 LINE"
);
},
{
closed = 1;
nodes = (
"324 817 LINE",
"676 822 LINE",
"785 962 LINE",
"811 962 LINE",
"739 630 LINE",
"713 630 LINE",
"668 783 LINE",
"318 788 LINE"
);
}
);
width = 979;
}
);
unicode = 20A3;
},
{
glyphname = naira;
layers = (
{
layerId = "D3CBDB62-9442-4B48-8AD1-7B332142411F";
paths = (
{
closed = 1;
nodes = (
"987 592 LINE",
"982 592 LINE",
"706 592 LINE",
"699 628 LINE",
"994 628 LINE",
"998 628 LINE",
"1244 628 LINE",
"1231 592 LINE"
);
},
{
closed = 1;
nodes = (
"55 628 LINE",
"239 628 LINE",
"235 628 LINE",
"699 628 LINE",
"706 592 LINE",
"231 592 LINE",
"228 592 LINE",
"44 592 LINE"
);
},
{
closed = 1;
nodes = (
"1055 943 LINE",
"1058 943 LINE",
"627 943 LINE",
"623 979 LINE",
"1064 979 LINE",
"1067 979 LINE",
"1277 979 LINE",
"1264 943 LINE"
);
},
{
closed = 1;
nodes = (
"105 979 LINE",
"315 979 LINE",
"310 979 LINE",
"623 979 LINE",
"627 943 LINE",
"306 943 LINE",
"303 943 LINE",
"94 943 LINE"
);
},
{
closed = 1;
nodes = (
"-91 25 LINE",
"100 60 LINE",
"248 753 LINE",
"390 1437 LINE",
"212 1471 LINE",
"218 1500 LINE",
"550 1500 LINE",
"725 819 LINE",
"882 213 LINE",
"1007 756 LINE",
"1137 1437 LINE",
"921 1471 LINE",
"927 1500 LINE",
"1375 1500 LINE",
"1369 1471 LINE",
"1173 1437 LINE",
"1037 753 LINE",
"872 0 LINE",
"772 0 LINE",
"589 721 LINE",
"411 1391 LINE",
"274 741 LINE",
"136 60 LINE",
"356 25 LINE",
"351 0 LINE",
"-96 0 LINE"
);
}
);
width = 1308;
}
);
unicode = 20A6;
},
{
glyphname = peseta;
layers = (
{
layerId = "D3CBDB62-9442-4B48-8AD1-7B332142411F";
paths = (
{
closed = 1;
nodes = (
"-85 25 LINE",
"83 62 LINE",
"230 754 LINE",
"372 1437 LINE",
"218 1471 LINE",
"224 1500 LINE",
"716 1500 LINE SMOOTH",
"886 1500 OFFCURVE",
"1086 1284 OFFCURVE",
"1044 1085 QCURVE SMOOTH",
"1004 895 OFFCURVE",
"758 698 OFFCURVE",
"524 698 QCURVE SMOOTH",
"463 698 OFFCURVE",
"326 714 OFFCURVE",
"291 725 QCURVE",
"307 754 LINE",
"358 737 OFFCURVE",
"448 727 OFFCURVE",
"526 727 QCURVE SMOOTH",
"658 727 OFFCURVE",
"830 901 OFFCURVE",
"873 1093 QCURVE SMOOTH",
"914 1277 OFFCURVE",
"795 1472 OFFCURVE",
"656 1472 QCURVE SMOOTH",
"571 1472 LINE",
"538 1448 LINE",
"392 764 LINE",
"246 57 LINE",
"413 25 LINE",
"408 0 LINE",
"-90 0 LINE"
);
},
{
closed = 1;
nodes = (
"780 73 LINE",
"836 268 LINE",
"930 660 LINE",
"810 649 LINE",
"803 677 LINE",
"893 698 OFFCURVE",
"1071 849 OFFCURVE",
"1103 977 QCURVE",
"1135 977 LINE",
"1135 912 LINE",
"992 344 LINE",
"938 98 LINE",
"1181 125 LINE",
"1181 106 LINE",
"830 -9 LINE"
);
},
{
closed = 1;
nodes = (
"991 737 LINE",
"1273 735 LINE",
"1283 699 LINE",
"973 653 LINE"
);
},
{
closed = 1;
nodes = (
"1117 177 OFFCURVE",
"1164 216 OFFCURVE",
"1192 216 QCURVE SMOOTH",
"1228 216 LINE",
"1228 157 LINE SMOOTH",
"1228 110 OFFCURVE",
"1274 56 OFFCURVE",
"1343 56 QCURVE SMOOTH",
"1438 56 OFFCURVE",
"1521 111 OFFCURVE",
"1521 170 QCURVE SMOOTH",
"1521 219 OFFCURVE",
"1454 290 OFFCURVE",
"1394 331 QCURVE SMOOTH",
"1308 393 OFFCURVE",
"1243 505 OFFCURVE",
"1244 567 QCURVE SMOOTH",
"1244 643 OFFCURVE",
"1384 757 OFFCURVE",
"1502 757 QCURVE SMOOTH",
"1588 757 OFFCURVE",
"1666 684 OFFCURVE",
"1666 648 QCURVE SMOOTH",
"1666 615 OFFCURVE",
"1629 571 OFFCURVE",
"1594 571 QCURVE SMOOTH",
"1566 571 LINE",
"1566 639 LINE SMOOTH",
"1566 669 OFFCURVE",
"1507 685 OFFCURVE",
"1457 685 QCURVE SMOOTH",
"1391 685 OFFCURVE",
"1338 644 OFFCURVE",
"1338 607 QCURVE SMOOTH",
"1338 568 OFFCURVE",
"1401 517 OFFCURVE",
"1466 467 QCURVE SMOOTH",
"1532 418 OFFCURVE",
"1609 307 OFFCURVE",
"1609 233 QCURVE SMOOTH",
"1609 114 OFFCURVE",
"1450 -9 OFFCURVE",
"1332 -9 QCURVE",
"1226 -9 OFFCURVE",
"1117 69 OFFCURVE",
"1117 130 QCURVE SMOOTH"
);
}
);
width = 1747;
}
);
unicode = 20A7;
},
{
glyphname = won;
layers = (
{
layerId = "D3CBDB62-9442-4B48-8AD1-7B332142411F";
paths = (
{
closed = 1;
nodes = (
"1323 585 LINE",
"1323 585 LINE",
"1017 585 LINE",
"1017 621 LINE",
"1347 621 LINE",
"1347 621 LINE",
"1604 621 LINE",
"1585 585 LINE"
);
},
{
closed = 1;
nodes = (
"1492 940 LINE",
"1492 940 LINE",
"1002 940 LINE",
"1002 976 LINE",
"1512 976 LINE",
"1512 976 LINE",
"1762 976 LINE",
"1734 940 LINE"
);
},
{
closed = 1;
nodes = (
"169 621 LINE",
"409 621 LINE",
"405 621 LINE",
"1017 621 LINE",
"1017 585 LINE",
"419 585 LINE",
"413 585 LINE",
"178 585 LINE"
);
},
{
closed = 1;
nodes = (
"121 976 LINE",
"391 976 LINE",
"386 976 LINE",
"1002 976 LINE",
"1002 940 LINE",
"391 940 LINE",
"385 940 LINE",
"129 940 LINE"
);
},
{
closed = 1;
nodes = (
"145 1500 LINE",
"597 1500 LINE",
"592 1473 LINE",
"432 1432 LINE",
"474 800 LINE",
"511 194 LINE",
"523 195 LINE",
"804 789 LINE",
"978 1167 LINE",
"989 1114 LINE",
"832 777 LINE",
"466 -6 LINE",
"369 -6 LINE",
"317 756 LINE",
"270 1434 LINE",
"140 1473 LINE"
);
},
{
closed = 1;
nodes = (
"761 1500 LINE",
"1197 1500 LINE",
"1194 1479 LINE",
"1046 1438 LINE",
"1079 800 LINE",
"1108 192 LINE",
"1116 190 LINE",
"1406 796 LINE",
"1700 1434 LINE",
"1507 1473 LINE",
"1512 1500 LINE",
"1961 1500 LINE",
"1956 1473 LINE",
"1736 1433 LINE",
"1435 787 LINE",
"1068 -6 LINE",
"966 -6 LINE",
"925 753 LINE",
"887 1440 LINE",
"758 1479 LINE"
);
}
);
width = 1789;
}
);
unicode = 20A9;
},
{
glyphname = dong;
layers = (
{
layerId = "D3CBDB62-9442-4B48-8AD1-7B332142411F";
paths = (
{
closed = 1;
nodes = (
"-69 -119 LINE",
"348 -129 LINE",
"803 -127 LINE",
"792 -173 LINE",
"339 -175 LINE",
"-82 -190 LINE"
);
},
{
closed = 1;
nodes = (
"550 1256 LINE",
"874 1251 LINE",
"1090 1260 LINE",
"1079 1213 LINE",
"862 1211 LINE",
"524 1201 LINE"
);
},
{
closed = 1;
nodes = (
"1 548 OFFCURVE",
"419 951 OFFCURVE",
"701 951 QCURVE SMOOTH",
"733 951 LINE",
"827 1465 LINE",
"678 1465 LINE",
"686 1496 LINE",
"971 1575 LINE",
"997 1557 LINE",
"789 469 LINE",
"731 89 LINE",
"864 107 LINE",
"866 74 LINE",
"621 -6 LINE",
"597 14 LINE",
"595 212 LINE",
"516 107 OFFCURVE",
"283 -10 OFFCURVE",
"212 -10 QCURVE SMOOTH",
"95 -10 OFFCURVE",
"1 139 OFFCURVE",
"1 248 QCURVE SMOOTH"
);
},
{
closed = 1;
nodes = (
"146 179 OFFCURVE",
"196 78 OFFCURVE",
"265 78 QCURVE SMOOTH",
"400 78 OFFCURVE",
"626 333 OFFCURVE",
"654 491 QCURVE SMOOTH",
"714 818 LINE",
"709 846 OFFCURVE",
"645 874 OFFCURVE",
"604 874 QCURVE SMOOTH",
"405 874 OFFCURVE",
"146 519 OFFCURVE",
"146 300 QCURVE SMOOTH"
);
}
);
width = 1068;
}
);
unicode = 20AB;
},
{
glyphname = kip;
layers = (
{
layerId = "D3CBDB62-9442-4B48-8AD1-7B332142411F";
paths = (
{
closed = 1;
nodes = (
"616 882 LINE",
"616 882 LINE",
"520 882 LINE",
"550 914 LINE",
"586 914 LINE",
"586 914 LINE",
"1008 914 LINE",
"1008 882 LINE"
);
},
{
closed = 1;
nodes = (
"52 914 LINE",
"350 914 LINE",
"350 914 LINE",
"550 914 LINE",
"520 882 LINE",
"346 882 LINE",
"346 882 LINE",
"48 882 LINE"
);
},
{
closed = 1;
nodes = (
"-78 25 LINE",
"89 60 LINE",
"237 754 LINE",
"379 1437 LINE",
"225 1471 LINE",
"231 1500 LINE",
"715 1500 LINE",
"709 1471 LINE",
"545 1437 LINE",
"396 754 LINE",
"255 60 LINE",
"406 25 LINE",
"401 0 LINE",
"-83 0 LINE"
);
},
{
closed = 1;
nodes = (
"284 682 LINE",
"1053 1427 LINE",
"889 1471 LINE",
"895 1500 LINE",
"1307 1500 LINE",
"1301 1471 LINE",
"1103 1427 LINE",
"279 636 LINE"
);
},
{
closed = 1;
nodes = (
"595 960 LINE",
"926 60 LINE",
"1044 25 LINE",
"1039 0 LINE",
"616 0 LINE",
"621 25 LINE",
"757 60 LINE",
"471 835 LINE"
);
}
);
width = 1198;
}
);
unicode = 20AD;
},
{
glyphname = peso;
layers = (
{
layerId = "D3CBDB62-9442-4B48-8AD1-7B332142411F";
paths = (
{
closed = 1;
nodes = (
"952 949 LINE",
"952 949 LINE",
"659 949 LINE",
"676 981 LINE",
"972 981 LINE",
"972 981 LINE",
"1223 981 LINE",
"1213 949 LINE"
);
},
{
closed = 1;
nodes = (
"95 981 LINE",
"363 981 LINE",
"361 981 LINE",
"676 981 LINE",
"659 949 LINE",
"355 949 LINE",
"353 949 LINE",
"90 949 LINE"
);
},
{
closed = 1;
nodes = (
"992 1144 LINE",
"992 1144 LINE",
"617 1144 LINE",
"629 1176 LINE",
"992 1176 LINE",
"992 1176 LINE",
"1234 1176 LINE",
"1225 1144 LINE"
);
},
{
closed = 1;
nodes = (
"125 1176 LINE",
"409 1176 LINE",
"407 1176 LINE",
"629 1176 LINE",
"617 1144 LINE",
"400 1144 LINE",
"398 1144 LINE",
"120 1144 LINE"
);
},
{
closed = 1;
nodes = (
"-91 25 LINE",
"89 62 LINE",
"236 754 LINE",
"378 1437 LINE",
"212 1471 LINE",
"218 1500 LINE",
"746 1500 LINE SMOOTH",
"932 1500 OFFCURVE",
"1128 1275 OFFCURVE",
"1087 1085 QCURVE SMOOTH",
"1043 881 OFFCURVE",
"776 691 OFFCURVE",
"542 691 QCURVE SMOOTH",
"481 691 OFFCURVE",
"345 699 OFFCURVE",
"309 706 QCURVE",
"325 735 LINE",
"361 729 OFFCURVE",
"480 720 OFFCURVE",
"544 720 QCURVE SMOOTH",
"676 720 OFFCURVE",
"850 862 OFFCURVE",
"898 1093 QCURVE SMOOTH",
"935 1273 OFFCURVE",
"820 1472 OFFCURVE",
"686 1472 QCURVE SMOOTH",
"581 1472 LINE",
"545 1448 LINE",
"399 764 LINE",
"253 57 LINE",
"423 25 LINE",
"418 0 LINE",
"-96 0 LINE"
);
}
);
width = 1196;
}
);
unicode = 20B1;
},
{
glyphname = guarani;
layers = (
{
layerId = "D3CBDB62-9442-4B48-8AD1-7B332142411F";
paths = (
{
closed = 1;
nodes = (
"486 85 LINE",
"486 85 LINE",
"650 851 LINE",
"684 841 LINE",
"523 75 LINE",
"523 75 LINE",
"482 -106 LINE",
"438 -106 LINE"
);
},
{
closed = 1;
nodes = (
"848 1623 LINE",
"811 1451 LINE",
"811 1451 LINE",
"683 841 LINE",
"650 851 LINE",
"772 1461 LINE",
"772 1461 LINE",
"808 1619 LINE"
);
},
{
closed = 1;
nodes = (
"168 1111 OFFCURVE",
"573 1501 OFFCURVE",
"828 1501 QCURVE SMOOTH",
"932 1502 OFFCURVE",
"1080 1440 OFFCURVE",
"1126 1396 QCURVE",
"1178 1473 LINE",
"1205 1473 LINE",
"1111 1059 LINE",
"1086 1059 LINE",
"1075 1258 LINE SMOOTH",
"1069 1362 OFFCURVE",
"926 1468 OFFCURVE",
"819 1467 QCURVE SMOOTH",
"641 1467 OFFCURVE",
"351 1157 OFFCURVE",
"265 766 QCURVE SMOOTH",
"179 377 OFFCURVE",
"338 22 OFFCURVE",
"555 22 QCURVE SMOOTH",
"624 22 OFFCURVE",
"759 71 OFFCURVE",
"818 113 QCURVE",
"921 618 LINE",
"788 652 LINE",
"791 677 LINE",
"1177 677 LINE",
"1174 652 LINE",
"1075 618 LINE",
"996 227 LINE",
"987 217 LINE",
"909 127 OFFCURVE",
"661 -13 OFFCURVE",
"508 -13 QCURVE SMOOTH",
"272 -13 OFFCURVE",
"14 404 OFFCURVE",
"88 744 QCURVE SMOOTH"
);
}
);
width = 1235;
}
);
unicode = 20B2;
},
{
glyphname = cedi;
layers = (
{
layerId = "D3CBDB62-9442-4B48-8AD1-7B332142411F";
paths = (
{
closed = 1;
nodes = (
"506 127 LINE",
"506 127 LINE",
"653 771 LINE",
"688 762 LINE",
"543 118 LINE",
"543 118 LINE",
"484 -132 LINE",
"441 -122 LINE"
);
},
{
closed = 1;
nodes = (
"874 1567 LINE",
"826 1361 LINE",
"826 1361 LINE",
"688 762 LINE",
"653 771 LINE",
"792 1371 LINE",
"792 1371 LINE",
"835 1562 LINE"
);
},
{
closed = 1;
nodes = (
"226 1157 OFFCURVE",
"647 1431 OFFCURVE",
"874 1391 QCURVE SMOOTH",
"946 1378 OFFCURVE",
"1039 1342 OFFCURVE",
"1086 1318 QCURVE",
"1110 1304 LINE",
"1133 1290 LINE",
"1055 986 LINE",
"1016 986 LINE",
"1016 1190 LINE",
"987 1235 OFFCURVE",
"876 1310 OFFCURVE",
"827 1319 QCURVE SMOOTH",
"648 1352 OFFCURVE",
"385 1140 OFFCURVE",
"313 839 QCURVE SMOOTH",
"244 557 OFFCURVE",
"359 210 OFFCURVE",
"514 181 QCURVE SMOOTH",
"691 148 OFFCURVE",
"955 256 OFFCURVE",
"1040 388 QCURVE",
"1062 374 LINE",
"1068 359 LINE",
"951 186 OFFCURVE",
"665 52 OFFCURVE",
"476 78 QCURVE SMOOTH",
"254 109 OFFCURVE",
"75 541 OFFCURVE",
"148 838 QCURVE SMOOTH"
);
}
);
width = 1141;
}
);
unicode = 20B5;
},
{
glyphname = rupeeIndian;
layers = (
{
layerId = "D3CBDB62-9442-4B48-8AD1-7B332142411F";
paths = (
{
closed = 1;
nodes = (
"157 815 LINE",
"186 821 LINE",
"358 821 LINE SMOOTH",
"481 821 OFFCURVE",
"630 1005 OFFCURVE",
"665 1174 QCURVE SMOOTH",
"697 1327 OFFCURVE",
"629 1470 OFFCURVE",
"524 1470 QCURVE SMOOTH",
"494 1470 OFFCURVE",
"263 1470 OFFCURVE",
"162 1470 QCURVE",
"178 1500 LINE",
"350 1500 OFFCURVE",
"479 1500 OFFCURVE",
"655 1500 QCURVE",
"1158 1500 LINE",
"1142 1470 LINE",
"1035 1470 OFFCURVE",
"770 1470 OFFCURVE",
"724 1470 QCURVE",
"796 1444 OFFCURVE",
"872 1268 OFFCURVE",
"844 1148 QCURVE",
"816 1000 OFFCURVE",
"569 791 OFFCURVE",
"417 791 QCURVE SMOOTH",
"358 791 OFFCURVE",
"194 787 OFFCURVE",
"149 779 QCURVE"
);
},
{
closed = 1;
nodes = (
"528 834 LINE",
"552 708 LINE SMOOTH",
"627 313 OFFCURVE",
"862 39 OFFCURVE",
"949 24 QCURVE",
"934 -1 LINE",
"875 -1 LINE SMOOTH",
"717 -1 OFFCURVE",
"454 302 OFFCURVE",
"397 662 QCURVE SMOOTH",
"375 800 LINE"
);
},
{
closed = 1;
nodes = (
"143 1160 LINE",
"719 1160 LINE",
"719 1160 LINE",
"1101 1160 LINE",
"1081 1131 LINE",
"710 1131 LINE",
"710 1131 LINE",
"132 1131 LINE"
);
}
);
width = 1089;
}
);
unicode = 20B9;
},
{
glyphname = liraTurkish;
layers = (
{
layerId = "D3CBDB62-9442-4B48-8AD1-7B332142411F";
paths = (
{
closed = 1;
nodes = (
"88 662 LINE",
"393 776 LINE",
"393 772 LINE",
"730 910 LINE",
"723 839 LINE",
"390 719 LINE",
"390 715 LINE",
"112 614 LINE"
);
},
{
closed = 1;
nodes = (
"86 898 LINE",
"392 1012 LINE",
"392 1009 LINE",
"778 1153 LINE",
"774 1075 LINE",
"395 952 LINE",
"395 950 LINE",
"116 849 LINE"
);
},
{
closed = 1;
nodes = (
"331 44 LINE",
"489 65 OFFCURVE",
"884 369 OFFCURVE",
"943 564 QCURVE",
"992 758 LINE",
"1034 758 LINE",
"983 400 LINE",
"899 282 OFFCURVE",
"558 48 OFFCURVE",
"321 -8 QCURVE",
"196 -29 LINE",
"109 47 LINE",
"150 132 LINE",
"281 754 LINE",
"423 1437 LINE",
"262 1471 LINE",
"268 1500 LINE",
"772 1500 LINE",
"766 1471 LINE",
"593 1437 LINE",
"437 754 LINE",
"291 71 LINE"
);
}
);
width = 1076;
}
);
unicode = 20BA;
},
{
glyphname = manat;
layers = (
{
layerId = "D3CBDB62-9442-4B48-8AD1-7B332142411F";
paths = (
{
closed = 1;
nodes = (
"598 662 LINE",
"731 1409 LINE",
"746 1537 LINE",
"813 1541 LINE",
"772 1409 LINE",
"662 762 LINE",
"596 330 LINE",
"502 260 LINE"
);
},
{
closed = 1;
nodes = (
"1082 0 LINE",
"625 0 LINE",
"631 29 LINE",
"786 63 LINE",
"894 560 LINE SMOOTH",
"954 836 OFFCURVE",
"1005 1132 OFFCURVE",
"1006 1164 QCURVE SMOOTH",
"1008 1283 OFFCURVE",
"903 1391 OFFCURVE",
"765 1391 QCURVE SMOOTH",
"606 1391 OFFCURVE",
"387 1201 OFFCURVE",
"344 995 QCURVE SMOOTH",
"253 560 LINE",
"149 63 LINE",
"342 29 LINE",
"336 0 LINE",
"-90 0 LINE",
"-84 29 LINE",
"114 63 LINE",
"219 560 LINE",
"306 988 LINE SMOOTH",
"354 1225 OFFCURVE",
"605 1438 OFFCURVE",
"805 1438 QCURVE SMOOTH",
"993 1438 OFFCURVE",
"1165 1270 OFFCURVE",
"1163 1113 QCURVE SMOOTH",
"1163 1086 OFFCURVE",
"1120 854 OFFCURVE",
"1058 560 QCURVE SMOOTH",
"954 63 LINE",
"1088 29 LINE"
);
}
);
width = 1317;
}
);
unicode = 20BC;
},
{
glyphname = ruble;
layers = (
{
layerId = "D3CBDB62-9442-4B48-8AD1-7B332142411F";
paths = (
{
closed = 1;
nodes = (
"12 445 LINE",
"740 455 LINE",
"726 404 LINE",
"-1 410 LINE"
);
},
{
closed = 1;
nodes = (
"-91 25 LINE",
"77 62 LINE",
"224 754 LINE",
"366 1437 LINE",
"212 1471 LINE",
"218 1500 LINE",
"746 1500 LINE SMOOTH",
"926 1500 OFFCURVE",
"1125 1293 OFFCURVE",
"1081 1085 QCURVE SMOOTH",
"1039 881 OFFCURVE",
"766 630 OFFCURVE",
"532 630 QCURVE SMOOTH",
"471 630 OFFCURVE",
"176 664 OFFCURVE",
"60 694 QCURVE",
"72 725 LINE",
"206 697 OFFCURVE",
"456 670 OFFCURVE",
"534 670 QCURVE SMOOTH",
"666 670 OFFCURVE",
"858 862 OFFCURVE",
"908 1093 QCURVE SMOOTH",
"948 1286 OFFCURVE",
"825 1472 OFFCURVE",
"686 1472 QCURVE SMOOTH",
"568 1472 LINE",
"535 1448 LINE",
"389 764 LINE",
"243 57 LINE",
"423 25 LINE",
"418 0 LINE",
"-96 0 LINE"
);
}
);
width = 1075;
}
);
unicode = 20BD;
},
{
glyphname = colonsign;
layers = (
{
layerId = "D3CBDB62-9442-4B48-8AD1-7B332142411F";
paths = (
{
closed = 1;
nodes = (
"516 127 LINE",
"516 127 LINE",
"663 771 LINE",
"698 762 LINE",
"553 118 LINE",
"553 118 LINE",
"494 -132 LINE",
"451 -122 LINE"
);
},
{
closed = 1;
nodes = (
"884 1567 LINE",
"836 1361 LINE",
"836 1361 LINE",
"698 762 LINE",
"663 771 LINE",
"802 1371 LINE",
"802 1371 LINE",
"845 1562 LINE"
);
},
{
closed = 1;
nodes = (
"386 127 LINE",
"386 127 LINE",
"533 771 LINE",
"568 762 LINE",
"423 118 LINE",
"423 118 LINE",
"364 -132 LINE",
"321 -122 LINE"
);
},
{
closed = 1;
nodes = (
"754 1567 LINE",
"706 1361 LINE",
"706 1361 LINE",
"568 762 LINE",
"533 771 LINE",
"672 1371 LINE",
"672 1371 LINE",
"715 1562 LINE"
);
},
{
closed = 1;
nodes = (
"200 1157 OFFCURVE",
"627 1431 OFFCURVE",
"854 1391 QCURVE SMOOTH",
"926 1378 OFFCURVE",
"1019 1342 OFFCURVE",
"1066 1318 QCURVE",
"1090 1304 LINE",
"1113 1290 LINE",
"1035 986 LINE",
"996 986 LINE",
"1006 1218 LINE",
"977 1263 OFFCURVE",
"866 1338 OFFCURVE",
"817 1347 QCURVE SMOOTH",
"638 1380 OFFCURVE",
"365 1140 OFFCURVE",
"293 839 QCURVE SMOOTH",
"224 557 OFFCURVE",
"339 210 OFFCURVE",
"494 181 QCURVE SMOOTH",
"671 148 OFFCURVE",
"935 256 OFFCURVE",
"1020 388 QCURVE",
"1042 374 LINE",
"1048 359 LINE",
"931 186 OFFCURVE",
"645 52 OFFCURVE",
"456 78 QCURVE SMOOTH",
"234 109 OFFCURVE",
"49 541 OFFCURVE",
"122 838 QCURVE SMOOTH"
);
}
);
width = 1141;
}
);
unicode = 20A1;
},
{
glyphname = ellipsis;
layers = (
{
layerId = "D3CBDB62-9442-4B48-8AD1-7B332142411F";
paths = (
{
closed = 1;
nodes = (
"60 177 OFFCURVE",
"123 243 OFFCURVE",
"178 243 QCURVE SMOOTH",
"227 243 OFFCURVE",
"281 173 OFFCURVE",
"274 117 QCURVE SMOOTH",
"270 55 OFFCURVE",
"207 -10 OFFCURVE",
"152 -10 QCURVE SMOOTH",
"103 -10 OFFCURVE",
"50 59 OFFCURVE",
"56 117 QCURVE SMOOTH"
);
},
{
closed = 1;
nodes = (
"1228 177 OFFCURVE",
"1291 243 OFFCURVE",
"1346 243 QCURVE SMOOTH",
"1395 243 OFFCURVE",
"1449 173 OFFCURVE",
"1442 117 QCURVE SMOOTH",
"1438 55 OFFCURVE",
"1375 -10 OFFCURVE",
"1320 -10 QCURVE SMOOTH",
"1271 -10 OFFCURVE",
"1218 59 OFFCURVE",
"1224 117 QCURVE SMOOTH"
);
},
{
closed = 1;
nodes = (
"644 177 OFFCURVE",
"707 243 OFFCURVE",
"762 243 QCURVE SMOOTH",
"811 243 OFFCURVE",
"865 173 OFFCURVE",
"858 117 QCURVE SMOOTH",
"854 55 OFFCURVE",
"791 -10 OFFCURVE",
"736 -10 QCURVE SMOOTH",
"687 -10 OFFCURVE",
"634 59 OFFCURVE",
"640 117 QCURVE SMOOTH"
);
}
);
width = 1752;
}
);
unicode = 2026;
},
{
glyphname = bullet;
layers = (
{
layerId = "D3CBDB62-9442-4B48-8AD1-7B332142411F";
paths = (
{
closed = 1;
nodes = (
"134 1009 OFFCURVE",
"296 1181 OFFCURVE",
"424 1181 QCURVE SMOOTH",
"548 1181 OFFCURVE",
"710 1009 OFFCURVE",
"710 893 QCURVE SMOOTH",
"710 779 OFFCURVE",
"548 607 OFFCURVE",
"424 607 QCURVE SMOOTH",
"296 607 OFFCURVE",
"134 779 OFFCURVE",
"134 893 QCURVE SMOOTH"
);
}
);
width = 784;
}
);
unicode = 2022;
},
{
glyphname = hyphentwo;
layers = (
{
layerId = "D3CBDB62-9442-4B48-8AD1-7B332142411F";
paths = (
{
closed = 1;
nodes = (
"101 708 LINE",
"391 704 LINE",
"670 708 LINE",
"637 575 LINE",
"358 579 LINE",
"68 575 LINE"
);
}
);
width = 739;
}
);
unicode = 2010;
},
{
glyphname = endash;
layers = (
{
layerId = "D3CBDB62-9442-4B48-8AD1-7B332142411F";
paths = (
{
closed = 1;
nodes = (
"4 685 LINE",
"508 682 LINE",
"1028 685 LINE",
"1008 589 LINE",
"488 596 LINE",
"-15 588 LINE"
);
}
);
width = 1024;
}
);
unicode = 2013;
},
{
glyphname = emdash;
layers = (
{
layerId = "D3CBDB62-9442-4B48-8AD1-7B332142411F";
paths = (
{
closed = 1;
nodes = (
"256 684 LINE",
"1024 682 LINE",
"1792 684 LINE",
"1792 588 LINE",
"1024 596 LINE",
"256 588 LINE"
);
}
);
width = 2048;
}
);
unicode = 2014;
},
{
glyphname = quotesinglbase;
layers = (
{
layerId = "D3CBDB62-9442-4B48-8AD1-7B332142411F";
paths = (
{
closed = 1;
nodes = (
"39 -146 OFFCURVE",
"144 -53 OFFCURVE",
"169 1 QCURVE",
"94 -1 OFFCURVE",
"13 62 OFFCURVE",
"13 121 QCURVE SMOOTH",
"13 165 OFFCURVE",
"77 232 OFFCURVE",
"129 232 QCURVE SMOOTH",
"180 232 OFFCURVE",
"257 154 OFFCURVE",
"257 79 QCURVE SMOOTH",
"257 -14 OFFCURVE",
"75 -170 OFFCURVE",
"-25 -205 QCURVE",
"-31 -190 LINE"
);
}
);
width = 528;
}
);
unicode = 201A;
},
{
glyphname = quotedblleft;
layers = (
{
layerId = "D3CBDB62-9442-4B48-8AD1-7B332142411F";
paths = (
{
closed = 1;
nodes = (
"465 1482 OFFCURVE",
"360 1389 OFFCURVE",
"335 1335 QCURVE",
"410 1337 OFFCURVE",
"491 1274 OFFCURVE",
"491 1215 QCURVE SMOOTH",
"491 1171 OFFCURVE",
"427 1104 OFFCURVE",
"375 1104 QCURVE SMOOTH",
"324 1104 OFFCURVE",
"247 1182 OFFCURVE",
"247 1257 QCURVE SMOOTH",
"247 1350 OFFCURVE",
"429 1506 OFFCURVE",
"529 1541 QCURVE",
"535 1526 LINE"
);
},
{
closed = 1;
nodes = (
"835 1482 OFFCURVE",
"730 1389 OFFCURVE",
"705 1335 QCURVE",
"780 1337 OFFCURVE",
"861 1274 OFFCURVE",
"861 1215 QCURVE SMOOTH",
"861 1171 OFFCURVE",
"797 1104 OFFCURVE",
"745 1104 QCURVE SMOOTH",
"694 1104 OFFCURVE",
"617 1182 OFFCURVE",
"617 1257 QCURVE SMOOTH",
"617 1350 OFFCURVE",
"799 1506 OFFCURVE",
"899 1541 QCURVE",
"905 1526 LINE"
);
}
);
width = 890;
}
);
unicode = 201C;
},
{
glyphname = quotedblright;
layers = (
{
layerId = "D3CBDB62-9442-4B48-8AD1-7B332142411F";
paths = (
{
closed = 1;
nodes = (
"643 1133 OFFCURVE",
"748 1226 OFFCURVE",
"773 1280 QCURVE",
"698 1278 OFFCURVE",
"617 1341 OFFCURVE",
"617 1400 QCURVE SMOOTH",
"617 1444 OFFCURVE",
"681 1511 OFFCURVE",
"733 1511 QCURVE SMOOTH",
"784 1511 OFFCURVE",
"861 1433 OFFCURVE",
"861 1358 QCURVE SMOOTH",
"861 1265 OFFCURVE",
"679 1109 OFFCURVE",
"579 1074 QCURVE",
"573 1089 LINE"
);
},
{
closed = 1;
nodes = (
"273 1133 OFFCURVE",
"378 1226 OFFCURVE",
"403 1280 QCURVE",
"328 1278 OFFCURVE",
"247 1341 OFFCURVE",
"247 1400 QCURVE SMOOTH",
"247 1444 OFFCURVE",
"311 1511 OFFCURVE",
"363 1511 QCURVE SMOOTH",
"414 1511 OFFCURVE",
"491 1433 OFFCURVE",
"491 1358 QCURVE SMOOTH",
"491 1265 OFFCURVE",
"309 1109 OFFCURVE",
"209 1074 QCURVE",
"203 1089 LINE"
);
}
);
width = 890;
}
);
unicode = 201D;
},
{
glyphname = quotedblbase;
layers = (
{
layerId = "D3CBDB62-9442-4B48-8AD1-7B332142411F";
paths = (
{
closed = 1;
nodes = (
"429 -146 OFFCURVE",
"534 -53 OFFCURVE",
"559 1 QCURVE",
"484 -1 OFFCURVE",
"403 62 OFFCURVE",
"403 121 QCURVE SMOOTH",
"403 165 OFFCURVE",
"467 232 OFFCURVE",
"519 232 QCURVE SMOOTH",
"570 232 OFFCURVE",
"647 154 OFFCURVE",
"647 79 QCURVE SMOOTH",
"647 -14 OFFCURVE",
"465 -170 OFFCURVE",
"365 -205 QCURVE",
"359 -190 LINE"
);
},
{
closed = 1;
nodes = (
"59 -146 OFFCURVE",
"164 -53 OFFCURVE",
"189 1 QCURVE",
"114 -1 OFFCURVE",
"33 62 OFFCURVE",
"33 121 QCURVE SMOOTH",
"33 165 OFFCURVE",
"97 232 OFFCURVE",
"149 232 QCURVE SMOOTH",
"200 232 OFFCURVE",
"277 154 OFFCURVE",
"277 79 QCURVE SMOOTH",
"277 -14 OFFCURVE",
"95 -170 OFFCURVE",
"-5 -205 QCURVE",
"-11 -190 LINE"
);
}
);
width = 994;
}
);
unicode = 201E;
},
{
glyphname = apostrophemod;
layers = (
{
layerId = "D3CBDB62-9442-4B48-8AD1-7B332142411F";
paths = (
{
closed = 1;
nodes = (
"307 1133 OFFCURVE",
"412 1226 OFFCURVE",
"437 1280 QCURVE",
"362 1278 OFFCURVE",
"281 1341 OFFCURVE",
"281 1400 QCURVE SMOOTH",
"281 1444 OFFCURVE",
"345 1511 OFFCURVE",
"397 1511 QCURVE SMOOTH",
"448 1511 OFFCURVE",
"525 1433 OFFCURVE",
"525 1358 QCURVE SMOOTH",
"525 1265 OFFCURVE",
"343 1109 OFFCURVE",
"243 1074 QCURVE",
"237 1089 LINE"
);
}
);
width = 528;
}
);
unicode = 02BC;
},
{
glyphname = primemod;
layers = (
{
layerId = "D3CBDB62-9442-4B48-8AD1-7B332142411F";
paths = (
{
closed = 1;
nodes = (
"553 1502 LINE",
"341 983 LINE",
"303 985 LINE",
"384 1502 LINE"
);
}
);
width = 600;
}
);
unicode = 02B9;
},
{
glyphname = doubleprimemod;
layers = (
{
layerId = "D3CBDB62-9442-4B48-8AD1-7B332142411F";
paths = (
{
closed = 1;
nodes = (
"483 1502 LINE",
"271 983 LINE",
"233 985 LINE",
"314 1502 LINE"
);
},
{
closed = 1;
nodes = (
"803 1502 LINE",
"591 983 LINE",
"553 985 LINE",
"634 1502 LINE"
);
}
);
width = 788;
}
);
unicode = 02BA;
},
{
glyphname = minute;
layers = (
{
layerId = "D3CBDB62-9442-4B48-8AD1-7B332142411F";
paths = (
{
closed = 1;
nodes = (
"360 1444 LINE SMOOTH",
"376 1481 OFFCURVE",
"446 1517 OFFCURVE",
"483 1496 QCURVE SMOOTH",
"524 1473 OFFCURVE",
"517 1383 OFFCURVE",
"491 1352 QCURVE SMOOTH",
"182 986 LINE",
"167 994 LINE"
);
}
);
width = 548;
}
);
unicode = 2032;
},
{
glyphname = second;
layers = (
{
layerId = "D3CBDB62-9442-4B48-8AD1-7B332142411F";
paths = (
{
closed = 1;
nodes = (
"380 1444 LINE SMOOTH",
"396 1481 OFFCURVE",
"466 1517 OFFCURVE",
"503 1496 QCURVE SMOOTH",
"544 1473 OFFCURVE",
"537 1383 OFFCURVE",
"511 1352 QCURVE SMOOTH",
"202 986 LINE",
"187 994 LINE"
);
},
{
closed = 1;
nodes = (
"690 1444 LINE SMOOTH",
"706 1481 OFFCURVE",
"776 1517 OFFCURVE",
"813 1496 QCURVE SMOOTH",
"854 1473 OFFCURVE",
"847 1383 OFFCURVE",
"821 1352 QCURVE SMOOTH",
"512 986 LINE",
"497 994 LINE"
);
}
);
width = 878;
}
);
unicode = 2033;
},
{
glyphname = guillemetleft;
layers = (
{
layerId = "D3CBDB62-9442-4B48-8AD1-7B332142411F";
paths = (
{
closed = 1;
nodes = (
"49 624 OFFCURVE",
"599 931 OFFCURVE",
"678 971 QCURVE",
"685 958 OFFCURVE",
"689 940 OFFCURVE",
"693 923 QCURVE",
"582 850 OFFCURVE",
"285 635 OFFCURVE",
"243 604 QCURVE",
"284 574 OFFCURVE",
"587 356 OFFCURVE",
"626 320 QCURVE",
"604 299 OFFCURVE",
"584 281 OFFCURVE",
"565 269 QCURVE",
"505 303 OFFCURVE",
"107 536 OFFCURVE",
"41 584 QCURVE",
"49 624 LINE"
);
},
{
closed = 1;
nodes = (
"527 605 OFFCURVE",
"1077 912 OFFCURVE",
"1156 952 QCURVE",
"1161 934 OFFCURVE",
"1169 919 OFFCURVE",
"1177 898 QCURVE",
"1059 824 OFFCURVE",
"729 617 OFFCURVE",
"685 590 QCURVE",
"712 568 OFFCURVE",
"1032 362 OFFCURVE",
"1086 320 QCURVE",
"1072 297 OFFCURVE",
"1052 274 OFFCURVE",
"1033 262 QCURVE",
"973 296 OFFCURVE",
"585 517 OFFCURVE",
"519 565 QCURVE",
"527 605 LINE"
);
}
);
width = 1224;
}
);
unicode = 00AB;
},
{
glyphname = guillemetright;
layers = (
{
layerId = "D3CBDB62-9442-4B48-8AD1-7B332142411F";
paths = (
{
closed = 1;
nodes = (
"681 590 OFFCURVE",
"131 283 OFFCURVE",
"52 243 QCURVE",
"47 261 OFFCURVE",
"39 276 OFFCURVE",
"31 297 QCURVE",
"151 368 OFFCURVE",
"479 578 OFFCURVE",
"523 605 QCURVE",
"496 627 OFFCURVE",
"186 845 OFFCURVE",
"132 887 QCURVE",
"143 903 OFFCURVE",
"156 921 OFFCURVE",
"175 933 QCURVE",
"235 899 OFFCURVE",
"623 678 OFFCURVE",
"689 630 QCURVE",
"681 590 LINE"
);
},
{
closed = 1;
nodes = (
"1159 571 OFFCURVE",
"609 264 OFFCURVE",
"530 224 QCURVE",
"523 237 OFFCURVE",
"519 255 OFFCURVE",
"515 272 QCURVE",
"631 347 OFFCURVE",
"923 560 OFFCURVE",
"965 591 QCURVE",
"924 621 OFFCURVE",
"630 848 OFFCURVE",
"591 884 QCURVE",
"606 898 OFFCURVE",
"624 914 OFFCURVE",
"643 926 QCURVE",
"703 892 OFFCURVE",
"1101 659 OFFCURVE",
"1167 611 QCURVE",
"1159 571 LINE"
);
}
);
width = 1224;
}
);
unicode = 00BB;
},
{
glyphname = guilsinglleft;
layers = (
{
layerId = "D3CBDB62-9442-4B48-8AD1-7B332142411F";
paths = (
{
closed = 1;
nodes = (
"49 624 OFFCURVE",
"599 931 OFFCURVE",
"678 971 QCURVE",
"685 958 OFFCURVE",
"689 940 OFFCURVE",
"693 923 QCURVE",
"582 850 OFFCURVE",
"285 635 OFFCURVE",
"243 604 QCURVE",
"284 574 OFFCURVE",
"587 356 OFFCURVE",
"626 320 QCURVE",
"604 299 OFFCURVE",
"584 281 OFFCURVE",
"565 269 QCURVE",
"505 303 OFFCURVE",
"107 536 OFFCURVE",
"41 584 QCURVE",
"49 624 LINE"
);
}
);
width = 762;
}
);
unicode = 2039;
},
{
glyphname = guilsinglright;
layers = (
{
layerId = "D3CBDB62-9442-4B48-8AD1-7B332142411F";
paths = (
{
closed = 1;
nodes = (
"681 590 OFFCURVE",
"152 290 OFFCURVE",
"73 250 QCURVE",
"68 268 OFFCURVE",
"55 292 OFFCURVE",
"47 313 QCURVE",
"167 384 OFFCURVE",
"471 574 OFFCURVE",
"515 601 QCURVE",
"488 623 OFFCURVE",
"172 826 OFFCURVE",
"118 868 QCURVE",
"129 884 OFFCURVE",
"156 921 OFFCURVE",
"175 933 QCURVE",
"235 899 OFFCURVE",
"623 678 OFFCURVE",
"689 630 QCURVE",
"681 590 LINE"
);
}
);
width = 762;
}
);
unicode = 203A;
},
{
glyphname = leftanglebracket;
layers = (
{
layerId = "D3CBDB62-9442-4B48-8AD1-7B332142411F";
paths = (
{
closed = 1;
nodes = (
"1129 1477 LINE",
"245 710 LINE",
"824 -133 LINE",
"800 -153 LINE",
"74 682 LINE",
"74 731 LINE",
"1110 1500 LINE"
);
}
);
width = 983;
}
);
unicode = 27E8;
},
{
glyphname = rightanglebracket;
layers = (
{
layerId = "D3CBDB62-9442-4B48-8AD1-7B332142411F";
paths = (
{
closed = 1;
nodes = (
"-146 -130 LINE",
"738 637 LINE",
"159 1480 LINE",
"183 1500 LINE",
"909 665 LINE",
"909 616 LINE",
"-127 -153 LINE"
);
}
);
width = 983;
}
);
unicode = 27E9;
},
{
glyphname = notequal;
layers = (
{
layerId = "D3CBDB62-9442-4B48-8AD1-7B332142411F";
paths = (
{
closed = 1;
nodes = (
"72 493 LINE",
"378 490 LINE",
"747 493 LINE",
"747 378 LINE",
"338 381 LINE",
"72 378 LINE"
);
},
{
closed = 1;
nodes = (
"72 844 LINE",
"498 841 LINE",
"747 844 LINE",
"747 729 LINE",
"458 732 LINE",
"72 729 LINE"
);
},
{
closed = 1;
nodes = (
"576 1201 LINE",
"677 1158 LINE",
"268 43 LINE",
"167 86 LINE"
);
}
);
width = 879;
}
);
unicode = 2260;
},
{
glyphname = approxequal;
layers = (
{
layerId = "D3CBDB62-9442-4B48-8AD1-7B332142411F";
paths = (
{
closed = 1;
nodes = (
"89 763 OFFCURVE",
"219 884 OFFCURVE",
"293 893 QCURVE",
"575 779 LINE",
"627 779 OFFCURVE",
"703 864 OFFCURVE",
"728 901 QCURVE",
"752 887 LINE",
"727 824 OFFCURVE",
"624 685 OFFCURVE",
"529 675 QCURVE",
"264 783 LINE",
"212 783 OFFCURVE",
"112 719 OFFCURVE",
"70 677 QCURVE",
"50 694 LINE"
);
},
{
closed = 1;
nodes = (
"89 471 OFFCURVE",
"219 592 OFFCURVE",
"293 601 QCURVE",
"575 487 LINE",
"627 487 OFFCURVE",
"703 572 OFFCURVE",
"728 609 QCURVE",
"752 595 LINE",
"727 532 OFFCURVE",
"624 393 OFFCURVE",
"529 383 QCURVE",
"264 491 LINE",
"212 491 OFFCURVE",
"112 427 OFFCURVE",
"70 385 QCURVE",
"50 402 LINE"
);
}
);
width = 879;
}
);
unicode = 2248;
},
{
glyphname = lessequal;
layers = (
{
layerId = "D3CBDB62-9442-4B48-8AD1-7B332142411F";
paths = (
{
closed = 1;
nodes = (
"38 131 LINE",
"642 131 LINE",
"642 26 LINE",
"38 26 LINE"
);
},
{
closed = 1;
nodes = (
"55 665 OFFCURVE",
"477 924 OFFCURVE",
"533 954 QCURVE",
"540 959 OFFCURVE",
"578 897 OFFCURVE",
"573 890 QCURVE",
"478 819 OFFCURVE",
"235 646 OFFCURVE",
"209 634 QCURVE",
"235 624 OFFCURVE",
"492 436 OFFCURVE",
"571 376 QCURVE",
"576 371 OFFCURVE",
"541 310 OFFCURVE",
"533 314 QCURVE",
"443 357 OFFCURVE",
"36 609 OFFCURVE",
"34 634 QCURVE"
);
}
);
width = 879;
}
);
unicode = 2264;
},
{
glyphname = greaterequal;
layers = (
{
layerId = "D3CBDB62-9442-4B48-8AD1-7B332142411F";
paths = (
{
closed = 1;
nodes = (
"37 131 LINE",
"641 131 LINE",
"641 26 LINE",
"37 26 LINE"
);
},
{
closed = 1;
nodes = (
"187 436 OFFCURVE",
"444 624 OFFCURVE",
"470 634 QCURVE",
"444 646 OFFCURVE",
"201 819 OFFCURVE",
"106 890 QCURVE",
"101 897 OFFCURVE",
"139 959 OFFCURVE",
"146 954 QCURVE",
"202 924 OFFCURVE",
"624 665 OFFCURVE",
"645 634 QCURVE",
"643 609 OFFCURVE",
"236 357 OFFCURVE",
"146 314 QCURVE",
"138 310 OFFCURVE",
"103 371 OFFCURVE",
"108 376 QCURVE"
);
}
);
width = 879;
}
);
unicode = 2265;
},
{
glyphname = bulletoperator;
layers = (
{
layerId = "D3CBDB62-9442-4B48-8AD1-7B332142411F";
paths = (
{
closed = 1;
nodes = (
"280 696 OFFCURVE",
"353 774 OFFCURVE",
"410 774 QCURVE SMOOTH",
"467 774 OFFCURVE",
"540 696 OFFCURVE",
"540 644 QCURVE SMOOTH",
"540 593 OFFCURVE",
"467 515 OFFCURVE",
"410 515 QCURVE SMOOTH",
"353 515 OFFCURVE",
"280 593 OFFCURVE",
"280 644 QCURVE SMOOTH"
);
}
);
width = 879;
}
);
unicode = 2219;
},
{
glyphname = divisionslash;
layers = (
{
layerId = "D3CBDB62-9442-4B48-8AD1-7B332142411F";
paths = (
{
closed = 1;
nodes = (
"528 1543 LINE",
"574 1528 LINE",
"-39 -146 LINE",
"-86 -130 LINE"
);
}
);
width = 558;
}
);
unicode = 2215;
},
{
glyphname = fraction;
layers = (
{
layerId = "D3CBDB62-9442-4B48-8AD1-7B332142411F";
paths = (
{
closed = 1;
nodes = (
"773 1505 LINE",
"810 1486 LINE",
"-348 -18 LINE",
"-385 1 LINE"
);
}
);
width = 420;
}
);
unicode = 2044;
},
{
glyphname = perthousand;
layers = (
{
layerId = "D3CBDB62-9442-4B48-8AD1-7B332142411F";
paths = (
{
closed = 1;
nodes = (
"177 1264 OFFCURVE",
"433 1531 OFFCURVE",
"620 1531 QCURVE SMOOTH",
"734 1531 OFFCURVE",
"900 1278 OFFCURVE",
"849 1074 QCURVE SMOOTH",
"802 884 OFFCURVE",
"547 611 OFFCURVE",
"378 611 QCURVE SMOOTH",
"244 611 OFFCURVE",
"79 868 OFFCURVE",
"130 1073 QCURVE SMOOTH"
);
},
{
closed = 1;
nodes = (
"240 909 OFFCURVE",
"300 654 OFFCURVE",
"396 654 QCURVE SMOOTH",
"499 653 OFFCURVE",
"658 883 OFFCURVE",
"699 1075 QCURVE SMOOTH",
"737 1252 OFFCURVE",
"672 1482 OFFCURVE",
"575 1482 QCURVE SMOOTH",
"472 1483 OFFCURVE",
"318 1274 OFFCURVE",
"279 1092 QCURVE SMOOTH"
);
},
{
closed = 1;
nodes = (
"1378 1520 LINE",
"1406 1497 LINE",
"363 -24 LINE",
"333 -4 LINE"
);
},
{
closed = 1;
nodes = (
"970 639 OFFCURVE",
"1226 906 OFFCURVE",
"1413 906 QCURVE SMOOTH",
"1527 906 OFFCURVE",
"1693 653 OFFCURVE",
"1642 449 QCURVE SMOOTH",
"1595 259 OFFCURVE",
"1340 -14 OFFCURVE",
"1171 -14 QCURVE SMOOTH",
"1037 -14 OFFCURVE",
"872 243 OFFCURVE",
"923 448 QCURVE SMOOTH"
);
},
{
closed = 1;
nodes = (
"1033 284 OFFCURVE",
"1093 29 OFFCURVE",
"1189 29 QCURVE SMOOTH",
"1292 28 OFFCURVE",
"1451 258 OFFCURVE",
"1492 450 QCURVE SMOOTH",
"1530 627 OFFCURVE",
"1465 857 OFFCURVE",
"1368 857 QCURVE SMOOTH",
"1265 858 OFFCURVE",
"1111 649 OFFCURVE",
"1072 467 QCURVE SMOOTH"
);
},
{
closed = 1;
nodes = (
"1765 639 OFFCURVE",
"2021 906 OFFCURVE",
"2208 906 QCURVE SMOOTH",
"2322 906 OFFCURVE",
"2488 653 OFFCURVE",
"2437 449 QCURVE SMOOTH",
"2390 259 OFFCURVE",
"2135 -14 OFFCURVE",
"1966 -14 QCURVE SMOOTH",
"1832 -14 OFFCURVE",
"1667 243 OFFCURVE",
"1718 448 QCURVE SMOOTH"
);
},
{
closed = 1;
nodes = (
"1828 284 OFFCURVE",
"1888 29 OFFCURVE",
"1984 29 QCURVE SMOOTH",
"2087 28 OFFCURVE",
"2246 258 OFFCURVE",
"2287 450 QCURVE SMOOTH",
"2325 627 OFFCURVE",
"2260 857 OFFCURVE",
"2163 857 QCURVE SMOOTH",
"2060 858 OFFCURVE",
"1906 649 OFFCURVE",
"1867 467 QCURVE SMOOTH"
);
}
);
width = 2541;
}
);
unicode = 2030;
},
{
glyphname = dagger;
layers = (
{
layerId = "D3CBDB62-9442-4B48-8AD1-7B332142411F";
paths = (
{
closed = 1;
nodes = (
"229 -17 LINE",
"340 350 LINE",
"460 930 LINE",
"515 1450 LINE",
"566 1503 LINE",
"627 1506 LINE",
"651 1426 LINE",
"501 930 LINE",
"381 350 LINE",
"335 -39 LINE",
"192 -480 LINE",
"191 -480 LINE"
);
},
{
closed = 1;
nodes = (
"80 939 LINE",
"490 972 LINE",
"904 939 LINE",
"899 914 LINE",
"481 926 LINE",
"75 914 LINE"
);
}
);
width = 928;
}
);
unicode = 2020;
},
{
glyphname = daggerdbl;
layers = (
{
layerId = "D3CBDB62-9442-4B48-8AD1-7B332142411F";
paths = (
{
closed = 1;
nodes = (
"231 -19 LINE",
"342 350 LINE",
"460 930 LINE",
"511 1450 LINE",
"562 1503 LINE",
"623 1506 LINE",
"647 1426 LINE",
"501 930 LINE",
"383 350 LINE",
"343 -37 LINE",
"199 -480 LINE",
"198 -480 LINE"
);
},
{
closed = 1;
nodes = (
"99 939 LINE",
"489 972 LINE",
"884 939 LINE",
"878 914 LINE",
"480 926 LINE",
"94 914 LINE"
);
},
{
closed = 1;
nodes = (
"-2 439 LINE",
"388 472 LINE",
"782 439 LINE",
"778 414 LINE",
"379 426 LINE",
"-6 414 LINE"
);
}
);
width = 928;
}
);
unicode = 2021;
},
{
glyphname = commercialMinusSign;
layers = (
{
layerId = "D3CBDB62-9442-4B48-8AD1-7B332142411F";
paths = (
{
closed = 1;
nodes = (
"697 1522 LINE",
"736 1511 LINE",
"167 -29 LINE",
"128 -18 LINE"
);
},
{
closed = 1;
nodes = (
"477 179 OFFCURVE",
"558 265 OFFCURVE",
"621 265 QCURVE SMOOTH",
"684 265 OFFCURVE",
"765 179 OFFCURVE",
"765 121 QCURVE SMOOTH",
"765 64 OFFCURVE",
"684 -22 OFFCURVE",
"621 -22 QCURVE SMOOTH",
"558 -22 OFFCURVE",
"477 64 OFFCURVE",
"477 121 QCURVE SMOOTH"
);
},
{
closed = 1;
nodes = (
"107 1432 OFFCURVE",
"188 1518 OFFCURVE",
"251 1518 QCURVE SMOOTH",
"314 1518 OFFCURVE",
"395 1432 OFFCURVE",
"395 1374 QCURVE SMOOTH",
"395 1317 OFFCURVE",
"314 1231 OFFCURVE",
"251 1231 QCURVE SMOOTH",
"188 1231 OFFCURVE",
"107 1317 OFFCURVE",
"107 1374 QCURVE SMOOTH"
);
}
);
width = 834;
}
);
unicode = 2052;
},
{
glyphname = trademark;
layers = (
{
layerId = "D3CBDB62-9442-4B48-8AD1-7B332142411F";
paths = (
{
closed = 1;
nodes = (
"145 1500 LINE",
"661 1500 LINE",
"661 1265 LINE",
"623 1265 LINE",
"577 1470 LINE",
"475 1470 LINE",
"462 1453 LINE",
"457 1196 LINE",
"461 933 LINE",
"555 908 LINE",
"555 886 LINE",
"240 886 LINE",
"240 908 LINE",
"349 933 LINE",
"349 1196 LINE",
"344 1453 LINE",
"338 1470 LINE",
"229 1470 LINE",
"183 1265 LINE",
"145 1265 LINE"
);
},
{
closed = 1;
nodes = (
"680 907 LINE",
"779 931 LINE",
"780 1172 LINE",
"779 1447 LINE",
"689 1476 LINE",
"689 1500 LINE",
"906 1500 LINE",
"1064 1011 LINE",
"1228 1500 LINE",
"1452 1500 LINE",
"1452 1476 LINE",
"1362 1447 LINE",
"1361 1211 LINE",
"1362 929 LINE",
"1452 905 LINE",
"1452 886 LINE",
"1169 886 LINE",
"1169 905 LINE",
"1251 929 LINE",
"1252 1211 LINE",
"1252 1451 LINE",
"1064 879 LINE",
"1004 879 LINE",
"815 1431 LINE",
"813 1172 LINE",
"814 931 LINE",
"904 907 LINE",
"904 887 LINE",
"680 887 LINE"
);
}
);
width = 1459;
}
);
unicode = 2122;
},
{
glyphname = numero;
layers = (
{
layerId = "D3CBDB62-9442-4B48-8AD1-7B332142411F";
paths = (
{
closed = 1;
nodes = (
"1200 685 OFFCURVE",
"1201 685 OFFCURVE",
"1468 670 QCURVE SMOOTH",
"1764 653 OFFCURVE",
"1764 653 OFFCURVE",
"1759 618 QCURVE SMOOTH",
"1755 590 OFFCURVE",
"1754 590 OFFCURVE",
"1457 605 QCURVE SMOOTH",
"1186 619 OFFCURVE",
"1186 620 OFFCURVE",
"1193 652 QCURVE SMOOTH"
);
},
{
closed = 1;
nodes = (
"-91 25 LINE",
"100 60 LINE",
"248 753 LINE",
"390 1437 LINE",
"212 1471 LINE",
"218 1500 LINE",
"520 1500 LINE",
"720 786 LINE",
"886 197 LINE",
"1007 756 LINE",
"1147 1437 LINE",
"931 1471 LINE",
"937 1500 LINE",
"1385 1500 LINE",
"1379 1471 LINE",
"1183 1437 LINE",
"1037 753 LINE",
"882 0 LINE",
"772 0 LINE",
"566 738 LINE",
"404 1319 LINE",
"274 741 LINE",
"136 60 LINE",
"356 25 LINE",
"351 0 LINE",
"-96 0 LINE"
);
},
{
closed = 1;
nodes = (
"1353 1322 OFFCURVE",
"1584 1508 OFFCURVE",
"1699 1499 QCURVE SMOOTH",
"1833 1489 OFFCURVE",
"1939 1249 OFFCURVE",
"1902 1110 QCURVE SMOOTH",
"1861 955 OFFCURVE",
"1638 762 OFFCURVE",
"1523 769 QCURVE SMOOTH",
"1403 777 OFFCURVE",
"1275 1014 OFFCURVE",
"1313 1167 QCURVE SMOOTH"
);
},
{
closed = 1;
nodes = (
"1430 1032 OFFCURVE",
"1436 818 OFFCURVE",
"1527 811 QCURVE SMOOTH",
"1627 804 OFFCURVE",
"1728 995 OFFCURVE",
"1760 1130 QCURVE SMOOTH",
"1790 1255 OFFCURVE",
"1780 1452 OFFCURVE",
"1689 1459 QCURVE SMOOTH",
"1589 1466 OFFCURVE",
"1491 1290 OFFCURVE",
"1460 1161 QCURVE SMOOTH"
);
}
);
width = 1884;
}
);
unicode = 2116;
},
{
glyphname = hookabove;
layers = (
{
layerId = "D3CBDB62-9442-4B48-8AD1-7B332142411F";
paths = (
{
closed = 1;
nodes = (
"417 1052 LINE",
"459 1052 LINE",
"475 1127 LINE",
"497 1121 OFFCURVE",
"549 1113 OFFCURVE",
"571 1113 QCURVE SMOOTH",
"658 1115 OFFCURVE",
"775 1212 OFFCURVE",
"775 1285 QCURVE SMOOTH",
"775 1343 OFFCURVE",
"696 1420 OFFCURVE",
"613 1420 QCURVE SMOOTH",
"548 1420 OFFCURVE",
"433 1372 OFFCURVE",
"407 1353 QCURVE",
"411 1324 LINE",
"449 1338 OFFCURVE",
"524 1356 OFFCURVE",
"565 1356 QCURVE SMOOTH",
"608 1356 OFFCURVE",
"663 1321 OFFCURVE",
"663 1273 QCURVE",
"663 1230 OFFCURVE",
"602 1175 OFFCURVE",
"541 1175 QCURVE SMOOTH",
"526 1175 OFFCURVE",
"494 1178 OFFCURVE",
"476 1181 QCURVE",
"443 1163 LINE"
);
}
);
width = 896;
}
);
userData = {
public.markColor = "0,1,0,1";
};
},
{
glyphname = dblgrave;
layers = (
{
layerId = "D3CBDB62-9442-4B48-8AD1-7B332142411F";
paths = (
{
closed = 1;
nodes = (
"290 1362 OFFCURVE",
"346 1385 OFFCURVE",
"373 1373 QCURVE SMOOTH",
"396 1362 OFFCURVE",
"421 1302 OFFCURVE",
"430 1263 QCURVE",
"480 1052 LINE",
"452 1038 LINE",
"310 1231 LINE",
"288 1263 OFFCURVE",
"272 1315 OFFCURVE",
"282 1340 QCURVE SMOOTH"
);
},
{
closed = 1;
nodes = (
"537 1362 OFFCURVE",
"593 1385 OFFCURVE",
"620 1373 QCURVE SMOOTH",
"643 1362 OFFCURVE",
"668 1302 OFFCURVE",
"677 1263 QCURVE",
"727 1052 LINE",
"699 1038 LINE",
"557 1231 LINE",
"535 1263 OFFCURVE",
"519 1315 OFFCURVE",
"529 1340 QCURVE SMOOTH"
);
}
);
width = 896;
}
);
userData = {
public.markColor = "0,1,0,1";
};
},
{
glyphname = breveinverted;
layers = (
{
layerId = "D3CBDB62-9442-4B48-8AD1-7B332142411F";
paths = (
{
closed = 1;
nodes = (
"261 1115 LINE",
"302 1199 OFFCURVE",
"482 1305 OFFCURVE",
"589 1296 QCURVE SMOOTH",
"696 1285 OFFCURVE",
"804 1160 OFFCURVE",
"804 1076 QCURVE",
"761 1059 LINE",
"742 1113 OFFCURVE",
"645 1187 OFFCURVE",
"570 1195 QCURVE SMOOTH",
"486 1203 OFFCURVE",
"345 1140 OFFCURVE",
"296 1089 QCURVE"
);
}
);
width = 896;
}
);
userData = {
public.markColor = "0,1,0,1";
};
},
{
glyphname = commaturnedabove;
layers = (
{
layerId = "D3CBDB62-9442-4B48-8AD1-7B332142411F";
paths = (
{
closed = 1;
nodes = (
"651 1434 OFFCURVE",
"558 1331 OFFCURVE",
"534 1274 QCURVE",
"597 1280 OFFCURVE",
"663 1222 OFFCURVE",
"660 1175 QCURVE SMOOTH",
"657 1130 OFFCURVE",
"591 1065 OFFCURVE",
"539 1067 QCURVE SMOOTH",
"487 1069 OFFCURVE",
"433 1145 OFFCURVE",
"438 1193 QCURVE SMOOTH",
"445 1261 OFFCURVE",
"583 1426 OFFCURVE",
"678 1496 QCURVE",
"697 1470 LINE"
);
}
);
width = 896;
}
);
userData = {
public.markColor = "0,1,0,1";
};
},
{
glyphname = horn;
layers = (
{
layerId = "D3CBDB62-9442-4B48-8AD1-7B332142411F";
paths = (
{
closed = 1;
nodes = (
"117 918 OFFCURVE",
"201 906 OFFCURVE",
"232 906 QCURVE SMOOTH",
"310 906 OFFCURVE",
"405 993 OFFCURVE",
"405 1128 QCURVE SMOOTH",
"405 1143 OFFCURVE",
"406 1178 OFFCURVE",
"405 1197 QCURVE",
"447 1197 LINE",
"456 1164 OFFCURVE",
"466 1102 OFFCURVE",
"466 1074 QCURVE SMOOTH",
"466 950 OFFCURVE",
"334 844 OFFCURVE",
"229 845 QCURVE SMOOTH",
"192 845 OFFCURVE",
"117 859 OFFCURVE",
"68 878 QCURVE",
"81 929 LINE"
);
}
);
width = 896;
}
);
userData = {
public.markColor = "0,1,0,1";
};
},
{
glyphname = dotbelow;
layers = (
{
layerId = "D3CBDB62-9442-4B48-8AD1-7B332142411F";
paths = (
{
closed = 1;
nodes = (
"169 -157 OFFCURVE",
"222 -101 OFFCURVE",
"267 -101 QCURVE SMOOTH",
"312 -101 OFFCURVE",
"371 -159 OFFCURVE",
"371 -203 QCURVE SMOOTH",
"371 -243 OFFCURVE",
"317 -298 OFFCURVE",
"272 -298 QCURVE SMOOTH",
"227 -298 OFFCURVE",
"169 -241 OFFCURVE",
"169 -197 QCURVE SMOOTH"
);
}
);
width = 896;
}
);
userData = {
public.markColor = "0,1,0,1";
};
},
{
glyphname = brevebelow;
layers = (
{
layerId = "D3CBDB62-9442-4B48-8AD1-7B332142411F";
paths = (
{
closed = 1;
nodes = (
"525 -119 LINE",
"486 -200 OFFCURVE",
"309 -328 OFFCURVE",
"206 -328 QCURVE SMOOTH",
"107 -328 OFFCURVE",
"-30 -196 OFFCURVE",
"-24 -106 QCURVE",
"13 -92 LINE",
"31 -145 OFFCURVE",
"146 -231 OFFCURVE",
"221 -231 QCURVE SMOOTH",
"299 -231 OFFCURVE",
"466 -148 OFFCURVE",
"499 -105 QCURVE"
);
}
);
width = 896;
}
);
},
{
glyphname = commaaccent;
layers = (
{
layerId = "D3CBDB62-9442-4B48-8AD1-7B332142411F";
paths = (
{
closed = 1;
nodes = (
"126 -451 OFFCURVE",
"224 -350 OFFCURVE",
"238 -306 QCURVE",
"187 -306 OFFCURVE",
"127 -248 OFFCURVE",
"127 -206 QCURVE SMOOTH",
"127 -160 OFFCURVE",
"192 -101 OFFCURVE",
"236 -101 QCURVE SMOOTH",
"282 -101 OFFCURVE",
"338 -162 OFFCURVE",
"337 -210 QCURVE",
"337 -292 OFFCURVE",
"186 -455 OFFCURVE",
"77 -521 QCURVE",
"61 -499 LINE"
);
}
);
width = 896;
}
);
},
{
glyphname = macronbelow;
layers = (
{
layerId = "D3CBDB62-9442-4B48-8AD1-7B332142411F";
paths = (
{
closed = 1;
nodes = (
"-35 -189 LINE",
"487 -189 LINE",
"487 -276 LINE",
"-35 -276 LINE"
);
}
);
width = 896;
}
);
},
{
glyphname = circumflex_acute;
layers = (
{
layerId = "D3CBDB62-9442-4B48-8AD1-7B332142411F";
paths = (
{
closed = 1;
nodes = (
"295 1041 LINE",
"555 1223 LINE",
"698 1031 LINE",
"716 1044 LINE",
"643 1260 LINE SMOOTH",
"630 1301 OFFCURVE",
"608 1342 OFFCURVE",
"585 1342 QCURVE SMOOTH",
"556 1342 OFFCURVE",
"523 1312 OFFCURVE",
"476 1264 QCURVE SMOOTH",
"281 1061 LINE"
);
},
{
closed = 1;
nodes = (
"418 1373 LINE",
"706 1442 LINE SMOOTH",
"743 1451 OFFCURVE",
"784 1489 OFFCURVE",
"784 1516 QCURVE SMOOTH",
"784 1541 OFFCURVE",
"751 1573 OFFCURVE",
"719 1573 QCURVE SMOOTH",
"709 1573 OFFCURVE",
"673 1558 OFFCURVE",
"656 1548 QCURVE SMOOTH",
"407 1396 LINE"
);
}
);
width = 896;
}
);
},
{
glyphname = circumflex_grave;
layers = (
{
layerId = "D3CBDB62-9442-4B48-8AD1-7B332142411F";
paths = (
{
closed = 1;
nodes = (
"295 1042 LINE",
"553 1223 LINE",
"696 1031 LINE",
"714 1044 LINE",
"641 1260 LINE SMOOTH",
"628 1301 OFFCURVE",
"606 1342 OFFCURVE",
"583 1342 QCURVE SMOOTH",
"554 1342 OFFCURVE",
"521 1312 OFFCURVE",
"474 1264 QCURVE SMOOTH",
"279 1061 LINE"
);
},
{
closed = 1;
nodes = (
"753 1374 LINE",
"764 1397 LINE",
"538 1545 LINE SMOOTH",
"521 1556 OFFCURVE",
"487 1570 OFFCURVE",
"472 1570 QCURVE SMOOTH",
"440 1570 OFFCURVE",
"406 1532 OFFCURVE",
"406 1512 QCURVE SMOOTH",
"406 1485 OFFCURVE",
"447 1450 OFFCURVE",
"484 1441 QCURVE SMOOTH"
);
}
);
width = 896;
}
);
},
{
glyphname = circumflex_hookabove;
layers = (
{
layerId = "D3CBDB62-9442-4B48-8AD1-7B332142411F";
paths = (
{
closed = 1;
nodes = (
"598 1343 OFFCURVE",
"620 1302 OFFCURVE",
"633 1261 QCURVE SMOOTH",
"706 1045 LINE",
"688 1032 LINE",
"545 1224 LINE",
"287 1043 LINE",
"271 1062 LINE",
"466 1265 LINE SMOOTH",
"513 1313 OFFCURVE",
"546 1343 OFFCURVE",
"575 1343 QCURVE SMOOTH"
);
},
{
closed = 1;
nodes = (
"778 1182 LINE",
"802 1207 LINE",
"820 1204 OFFCURVE",
"861 1194 OFFCURVE",
"876 1194 QCURVE SMOOTH",
"937 1194 OFFCURVE",
"998 1252 OFFCURVE",
"998 1295 QCURVE",
"998 1324 OFFCURVE",
"977 1357 OFFCURVE",
"958 1366 QCURVE SMOOTH",
"917 1383 OFFCURVE",
"800 1366 OFFCURVE",
"746 1346 QCURVE",
"738 1372 LINE",
"775 1398 OFFCURVE",
"934 1448 OFFCURVE",
"1004 1433 QCURVE SMOOTH",
"1052 1423 OFFCURVE",
"1110 1353 OFFCURVE",
"1110 1307 QCURVE SMOOTH",
"1110 1234 OFFCURVE",
"993 1137 OFFCURVE",
"906 1135 QCURVE SMOOTH",
"884 1135 OFFCURVE",
"837 1141 OFFCURVE",
"815 1147 QCURVE",
"799 1074 LINE",
"752 1074 LINE"
);
}
);
width = 896;
}
);
},
{
glyphname = circumflex_tilde;
layers = (
{
layerId = "D3CBDB62-9442-4B48-8AD1-7B332142411F";
paths = (
{
closed = 1;
nodes = (
"606 1414 OFFCURVE",
"686 1371 OFFCURVE",
"723 1371 QCURVE SMOOTH",
"766 1371 OFFCURVE",
"855 1449 OFFCURVE",
"883 1508 QCURVE",
"861 1529 LINE",
"840 1503 OFFCURVE",
"796 1465 OFFCURVE",
"756 1465 QCURVE",
"727 1465 OFFCURVE",
"663 1508 OFFCURVE",
"626 1536 QCURVE SMOOTH",
"588 1566 OFFCURVE",
"528 1583 OFFCURVE",
"495 1581 QCURVE SMOOTH",
"453 1579 OFFCURVE",
"343 1486 OFFCURVE",
"318 1437 QCURVE",
"340 1413 LINE",
"364 1442 OFFCURVE",
"436 1487 OFFCURVE",
"469 1487 QCURVE SMOOTH",
"495 1487 OFFCURVE",
"560 1448 OFFCURVE",
"584 1429 QCURVE SMOOTH"
);
},
{
closed = 1;
nodes = (
"286 1042 LINE",
"544 1223 LINE",
"687 1031 LINE",
"705 1044 LINE",
"632 1260 LINE SMOOTH",
"619 1301 OFFCURVE",
"597 1342 OFFCURVE",
"574 1342 QCURVE SMOOTH",
"545 1342 OFFCURVE",
"512 1312 OFFCURVE",
"465 1264 QCURVE SMOOTH",
"270 1061 LINE"
);
}
);
width = 896;
}
);
},
{
glyphname = breve_acute;
layers = (
{
layerId = "D3CBDB62-9442-4B48-8AD1-7B332142411F";
paths = (
{
closed = 1;
nodes = (
"293 1200 OFFCURVE",
"430 1068 OFFCURVE",
"529 1068 QCURVE SMOOTH",
"632 1068 OFFCURVE",
"809 1196 OFFCURVE",
"848 1277 QCURVE",
"822 1291 LINE",
"789 1248 OFFCURVE",
"622 1165 OFFCURVE",
"544 1165 QCURVE SMOOTH",
"469 1165 OFFCURVE",
"354 1251 OFFCURVE",
"336 1304 QCURVE",
"299 1290 LINE"
);
},
{
closed = 1;
nodes = (
"436 1352 LINE",
"724 1421 LINE SMOOTH",
"761 1430 OFFCURVE",
"802 1468 OFFCURVE",
"802 1495 QCURVE SMOOTH",
"802 1520 OFFCURVE",
"769 1552 OFFCURVE",
"737 1552 QCURVE SMOOTH",
"727 1552 OFFCURVE",
"691 1537 OFFCURVE",
"674 1527 QCURVE SMOOTH",
"425 1375 LINE"
);
}
);
width = 896;
}
);
},
{
glyphname = breve_grave;
layers = (
{
layerId = "D3CBDB62-9442-4B48-8AD1-7B332142411F";
paths = (
{
closed = 1;
nodes = (
"296 1200 OFFCURVE",
"433 1068 OFFCURVE",
"532 1068 QCURVE SMOOTH",
"635 1068 OFFCURVE",
"812 1196 OFFCURVE",
"851 1277 QCURVE",
"825 1291 LINE",
"792 1248 OFFCURVE",
"625 1165 OFFCURVE",
"547 1165 QCURVE SMOOTH",
"472 1165 OFFCURVE",
"357 1251 OFFCURVE",
"339 1304 QCURVE",
"302 1290 LINE"
);
},
{
closed = 1;
nodes = (
"761 1351 LINE",
"775 1374 LINE",
"548 1522 LINE SMOOTH",
"531 1533 OFFCURVE",
"497 1547 OFFCURVE",
"482 1547 QCURVE SMOOTH",
"450 1547 OFFCURVE",
"416 1509 OFFCURVE",
"416 1489 QCURVE SMOOTH",
"416 1462 OFFCURVE",
"457 1427 OFFCURVE",
"494 1418 QCURVE SMOOTH"
);
}
);
width = 896;
}
);
},
{
glyphname = breve_hookabove;
layers = (
{
layerId = "D3CBDB62-9442-4B48-8AD1-7B332142411F";
paths = (
{
closed = 1;
nodes = (
"496 1253 LINE",
"514 1320 LINE",
"536 1314 OFFCURVE",
"581 1306 OFFCURVE",
"603 1306 QCURVE SMOOTH",
"690 1308 OFFCURVE",
"809 1407 OFFCURVE",
"809 1480 QCURVE SMOOTH",
"809 1539 OFFCURVE",
"717 1611 OFFCURVE",
"646 1611 QCURVE SMOOTH",
"584 1611 OFFCURVE",
"465 1566 OFFCURVE",
"435 1545 QCURVE",
"443 1519 LINE",
"479 1532 OFFCURVE",
"557 1550 OFFCURVE",
"592 1550 QCURVE SMOOTH",
"634 1550 OFFCURVE",
"697 1514 OFFCURVE",
"697 1466 QCURVE",
"697 1423 OFFCURVE",
"634 1367 OFFCURVE",
"573 1367 QCURVE SMOOTH",
"558 1367 OFFCURVE",
"519 1377 OFFCURVE",
"501 1380 QCURVE",
"473 1350 LINE",
"451 1261 LINE"
);
},
{
closed = 1;
nodes = (
"295 1200 OFFCURVE",
"432 1068 OFFCURVE",
"531 1068 QCURVE SMOOTH",
"637 1068 OFFCURVE",
"806 1190 OFFCURVE",
"850 1277 QCURVE",
"824 1291 LINE",
"791 1248 OFFCURVE",
"624 1165 OFFCURVE",
"546 1165 QCURVE SMOOTH",
"471 1165 OFFCURVE",
"356 1251 OFFCURVE",
"338 1304 QCURVE",
"301 1290 LINE"
);
}
);
width = 896;
}
);
},
{
glyphname = breve_tilde;
layers = (
{
layerId = "D3CBDB62-9442-4B48-8AD1-7B332142411F";
paths = (
{
closed = 1;
nodes = (
"597 1365 OFFCURVE",
"677 1322 OFFCURVE",
"714 1322 QCURVE SMOOTH",
"757 1322 OFFCURVE",
"846 1400 OFFCURVE",
"874 1459 QCURVE",
"852 1480 LINE",
"831 1454 OFFCURVE",
"787 1416 OFFCURVE",
"747 1416 QCURVE",
"718 1416 OFFCURVE",
"654 1459 OFFCURVE",
"617 1487 QCURVE SMOOTH",
"579 1517 OFFCURVE",
"519 1534 OFFCURVE",
"486 1532 QCURVE SMOOTH",
"444 1530 OFFCURVE",
"334 1437 OFFCURVE",
"309 1388 QCURVE",
"331 1364 LINE",
"355 1393 OFFCURVE",
"427 1438 OFFCURVE",
"460 1438 QCURVE SMOOTH",
"486 1438 OFFCURVE",
"551 1399 OFFCURVE",
"575 1380 QCURVE SMOOTH"
);
},
{
closed = 1;
nodes = (
"297 1200 OFFCURVE",
"434 1068 OFFCURVE",
"533 1068 QCURVE SMOOTH",
"636 1068 OFFCURVE",
"813 1196 OFFCURVE",
"852 1277 QCURVE",
"826 1291 LINE",
"793 1248 OFFCURVE",
"626 1165 OFFCURVE",
"548 1165 QCURVE SMOOTH",
"473 1165 OFFCURVE",
"358 1251 OFFCURVE",
"340 1304 QCURVE",
"303 1290 LINE"
);
}
);
width = 896;
}
);
},
{
glyphname = caron.alt;
layers = (
{
layerId = "D3CBDB62-9442-4B48-8AD1-7B332142411F";
paths = (
{
closed = 1;
nodes = (
"552 1357 LINE SMOOTH",
"583 1441 OFFCURVE",
"627 1489 OFFCURVE",
"655 1489 QCURVE",
"679 1489 OFFCURVE",
"708 1459 OFFCURVE",
"708 1433 QCURVE SMOOTH",
"708 1408 OFFCURVE",
"673 1351 OFFCURVE",
"644 1307 QCURVE SMOOTH",
"457 1018 LINE",
"431 1028 LINE"
);
}
);
width = 896;
}
);
},
{
glyphname = ring_acute;
layers = (
{
layerId = "D3CBDB62-9442-4B48-8AD1-7B332142411F";
paths = (
{
closed = 1;
nodes = (
"656 1631 LINE SMOOTH",
"677 1643 OFFCURVE",
"709 1656 OFFCURVE",
"719 1656 QCURVE SMOOTH",
"751 1656 OFFCURVE",
"784 1624 OFFCURVE",
"784 1599 QCURVE SMOOTH",
"784 1572 OFFCURVE",
"744 1532 OFFCURVE",
"706 1525 QCURVE SMOOTH",
"430 1473 LINE",
"418 1497 LINE"
);
},
{
closed = 1;
nodes = (
"355 1329 OFFCURVE",
"465 1439 OFFCURVE",
"551 1439 QCURVE SMOOTH",
"637 1439 OFFCURVE",
"747 1329 OFFCURVE",
"747 1244 QCURVE SMOOTH",
"747 1159 OFFCURVE",
"637 1049 OFFCURVE",
"551 1049 QCURVE SMOOTH",
"465 1049 OFFCURVE",
"355 1159 OFFCURVE",
"355 1244 QCURVE SMOOTH"
);
},
{
closed = 1;
nodes = (
"427 1188 OFFCURVE",
"494 1120 OFFCURVE",
"551 1120 QCURVE SMOOTH",
"611 1120 OFFCURVE",
"675 1184 OFFCURVE",
"675 1244 QCURVE SMOOTH",
"675 1300 OFFCURVE",
"608 1368 OFFCURVE",
"551 1368 QCURVE SMOOTH",
"491 1368 OFFCURVE",
"427 1304 OFFCURVE",
"427 1244 QCURVE SMOOTH"
);
}
);
width = 896;
}
);
},
{
glyphname = dieresis_macron;
layers = (
{
layerId = "D3CBDB62-9442-4B48-8AD1-7B332142411F";
paths = (
{
closed = 1;
nodes = (
"268 1123 OFFCURVE",
"325 1067 OFFCURVE",
"370 1067 QCURVE SMOOTH",
"415 1067 OFFCURVE",
"472 1123 OFFCURVE",
"472 1166 QCURVE SMOOTH",
"472 1210 OFFCURVE",
"415 1266 OFFCURVE",
"370 1266 QCURVE SMOOTH",
"325 1266 OFFCURVE",
"268 1210 OFFCURVE",
"268 1166 QCURVE SMOOTH"
);
},
{
closed = 1;
nodes = (
"608 1123 OFFCURVE",
"665 1067 OFFCURVE",
"710 1067 QCURVE SMOOTH",
"755 1067 OFFCURVE",
"812 1123 OFFCURVE",
"812 1166 QCURVE SMOOTH",
"812 1210 OFFCURVE",
"755 1266 OFFCURVE",
"710 1266 QCURVE SMOOTH",
"665 1266 OFFCURVE",
"608 1210 OFFCURVE",
"608 1166 QCURVE SMOOTH"
);
},
{
closed = 1;
nodes = (
"321 1343 LINE",
"843 1343 LINE",
"843 1430 LINE",
"321 1430 LINE"
);
}
);
width = 896;
}
);
},
{
glyphname = tilde_macron;
layers = (
{
layerId = "D3CBDB62-9442-4B48-8AD1-7B332142411F";
paths = (
{
closed = 1;
nodes = (
"560 1112 OFFCURVE",
"641 1067 OFFCURVE",
"678 1067 QCURVE SMOOTH",
"722 1067 OFFCURVE",
"812 1147 OFFCURVE",
"840 1207 QCURVE",
"818 1228 LINE",
"797 1202 OFFCURVE",
"752 1165 OFFCURVE",
"712 1165 QCURVE",
"682 1165 OFFCURVE",
"619 1206 OFFCURVE",
"580 1235 QCURVE SMOOTH",
"540 1265 OFFCURVE",
"481 1285 OFFCURVE",
"447 1283 QCURVE SMOOTH",
"405 1281 OFFCURVE",
"293 1184 OFFCURVE",
"268 1135 QCURVE",
"290 1111 LINE",
"315 1140 OFFCURVE",
"388 1185 OFFCURVE",
"421 1185 QCURVE SMOOTH",
"447 1185 OFFCURVE",
"513 1146 OFFCURVE",
"537 1127 QCURVE SMOOTH"
);
},
{
closed = 1;
nodes = (
"324 1354 LINE",
"846 1354 LINE",
"846 1441 LINE",
"324 1441 LINE"
);
}
);
width = 896;
}
);
},
{
glyphname = dotaccent_macron;
layers = (
{
layerId = "D3CBDB62-9442-4B48-8AD1-7B332142411F";
paths = (
{
closed = 1;
nodes = (
"443 1123 OFFCURVE",
"499 1067 OFFCURVE",
"545 1067 QCURVE SMOOTH",
"595 1067 OFFCURVE",
"648 1119 OFFCURVE",
"648 1167 QCURVE SMOOTH",
"648 1212 OFFCURVE",
"592 1268 OFFCURVE",
"545 1268 QCURVE SMOOTH",
"496 1268 OFFCURVE",
"443 1216 OFFCURVE",
"443 1167 QCURVE SMOOTH"
);
},
{
closed = 1;
nodes = (
"325 1342 LINE",
"847 1342 LINE",
"847 1429 LINE",
"325 1429 LINE"
);
}
);
width = 896;
}
);
},
{
glyphname = grave.uc;
layers = (
{
layerId = "D3CBDB62-9442-4B48-8AD1-7B332142411F";
paths = (
{
closed = 1;
nodes = (
"726 1580 LINE",
"747 1597 LINE",
"644 1832 LINE SMOOTH",
"633 1857 OFFCURVE",
"595 1887 OFFCURVE",
"577 1887 QCURVE SMOOTH",
"541 1887 OFFCURVE",
"502 1845 OFFCURVE",
"502 1814 QCURVE SMOOTH",
"502 1799 OFFCURVE",
"519 1767 OFFCURVE",
"534 1753 QCURVE SMOOTH"
);
}
);
width = 896;
}
);
},
{
glyphname = acute.uc;
layers = (
{
layerId = "D3CBDB62-9442-4B48-8AD1-7B332142411F";
paths = (
{
closed = 1;
nodes = (
"544 1580 LINE",
"825 1763 LINE SMOOTH",
"845 1776 OFFCURVE",
"867 1812 OFFCURVE",
"867 1830 QCURVE SMOOTH",
"867 1856 OFFCURVE",
"836 1888 OFFCURVE",
"806 1888 QCURVE SMOOTH",
"789 1888 OFFCURVE",
"749 1866 OFFCURVE",
"727 1840 QCURVE SMOOTH",
"528 1596 LINE"
);
}
);
width = 896;
}
);
},
{
glyphname = circumflex.uc;
layers = (
{
layerId = "D3CBDB62-9442-4B48-8AD1-7B332142411F";
paths = (
{
closed = 1;
nodes = (
"748 1898 OFFCURVE",
"768 1854 OFFCURVE",
"782 1811 QCURVE SMOOTH",
"856 1583 LINE",
"838 1569 LINE",
"688 1771 LINE",
"420 1581 LINE",
"397 1594 LINE",
"604 1816 LINE SMOOTH",
"651 1867 OFFCURVE",
"688 1901 OFFCURVE",
"718 1899 QCURVE SMOOTH"
);
}
);
width = 896;
}
);
},
{
glyphname = tilde.uc;
layers = (
{
layerId = "D3CBDB62-9442-4B48-8AD1-7B332142411F";
paths = (
{
closed = 1;
nodes = (
"405 1758 OFFCURVE",
"515 1857 OFFCURVE",
"572 1857 QCURVE SMOOTH",
"609 1857 OFFCURVE",
"671 1832 OFFCURVE",
"710 1798 QCURVE SMOOTH",
"749 1764 OFFCURVE",
"817 1723 OFFCURVE",
"850 1723 QCURVE",
"895 1723 OFFCURVE",
"945 1761 OFFCURVE",
"967 1788 QCURVE",
"989 1769 LINE",
"958 1706 OFFCURVE",
"857 1622 OFFCURVE",
"810 1622 QCURVE SMOOTH",
"769 1622 OFFCURVE",
"687 1667 OFFCURVE",
"664 1685 QCURVE SMOOTH",
"637 1707 OFFCURVE",
"565 1758 OFFCURVE",
"536 1758 QCURVE SMOOTH",
"502 1758 OFFCURVE",
"428 1720 OFFCURVE",
"395 1682 QCURVE",
"373 1703 LINE"
);
}
);
width = 896;
}
);
},
{
glyphname = macron.uc;
layers = (
{
layerId = "D3CBDB62-9442-4B48-8AD1-7B332142411F";
paths = (
{
closed = 1;
nodes = (
"386 1748 LINE",
"908 1748 LINE",
"908 1653 LINE",
"386 1653 LINE"
);
}
);
width = 896;
}
);
},
{
glyphname = breve.uc;
layers = (
{
layerId = "D3CBDB62-9442-4B48-8AD1-7B332142411F";
paths = (
{
closed = 1;
nodes = (
"981 1827 LINE",
"935 1736 OFFCURVE",
"771 1618 OFFCURVE",
"668 1618 QCURVE SMOOTH",
"569 1618 OFFCURVE",
"426 1750 OFFCURVE",
"432 1840 QCURVE",
"469 1854 LINE",
"487 1801 OFFCURVE",
"609 1717 OFFCURVE",
"684 1717 QCURVE SMOOTH",
"771 1717 OFFCURVE",
"918 1798 OFFCURVE",
"951 1841 QCURVE"
);
}
);
width = 896;
}
);
},
{
glyphname = dotaccent.uc;
layers = (
{
layerId = "D3CBDB62-9442-4B48-8AD1-7B332142411F";
paths = (
{
closed = 1;
nodes = (
"576 1768 OFFCURVE",
"634 1826 OFFCURVE",
"682 1826 QCURVE SMOOTH",
"731 1826 OFFCURVE",
"788 1769 OFFCURVE",
"788 1722 QCURVE SMOOTH",
"788 1678 OFFCURVE",
"734 1618 OFFCURVE",
"682 1618 QCURVE SMOOTH",
"634 1618 OFFCURVE",
"576 1676 OFFCURVE",
"576 1722 QCURVE SMOOTH"
);
}
);
width = 896;
}
);
},
{
glyphname = dieresis.uc;
layers = (
{
layerId = "D3CBDB62-9442-4B48-8AD1-7B332142411F";
paths = (
{
closed = 1;
nodes = (
"390 1761 OFFCURVE",
"447 1817 OFFCURVE",
"492 1817 QCURVE SMOOTH",
"537 1817 OFFCURVE",
"594 1761 OFFCURVE",
"594 1717 QCURVE SMOOTH",
"594 1674 OFFCURVE",
"537 1618 OFFCURVE",
"492 1618 QCURVE SMOOTH",
"447 1618 OFFCURVE",
"390 1674 OFFCURVE",
"390 1717 QCURVE SMOOTH"
);
},
{
closed = 1;
nodes = (
"730 1761 OFFCURVE",
"787 1817 OFFCURVE",
"832 1817 QCURVE SMOOTH",
"877 1817 OFFCURVE",
"934 1761 OFFCURVE",
"934 1717 QCURVE SMOOTH",
"934 1674 OFFCURVE",
"877 1618 OFFCURVE",
"832 1618 QCURVE SMOOTH",
"787 1618 OFFCURVE",
"730 1674 OFFCURVE",
"730 1717 QCURVE SMOOTH"
);
}
);
width = 896;
}
);
},
{
glyphname = hookabove.uc;
layers = (
{
layerId = "D3CBDB62-9442-4B48-8AD1-7B332142411F";
paths = (
{
closed = 1;
nodes = (
"610 1721 LINE",
"645 1739 LINE",
"663 1736 OFFCURVE",
"695 1733 OFFCURVE",
"710 1733 QCURVE SMOOTH",
"773 1733 OFFCURVE",
"838 1788 OFFCURVE",
"838 1833 QCURVE",
"838 1882 OFFCURVE",
"779 1919 OFFCURVE",
"734 1919 QCURVE SMOOTH",
"693 1919 OFFCURVE",
"617 1901 OFFCURVE",
"578 1887 QCURVE",
"574 1916 LINE",
"600 1936 OFFCURVE",
"717 1984 OFFCURVE",
"784 1984 QCURVE SMOOTH",
"868 1984 OFFCURVE",
"951 1904 OFFCURVE",
"951 1845 QCURVE SMOOTH",
"951 1770 OFFCURVE",
"829 1672 OFFCURVE",
"740 1670 QCURVE SMOOTH",
"718 1670 OFFCURVE",
"671 1677 OFFCURVE",
"649 1683 QCURVE",
"633 1610 LINE",
"585 1610 LINE"
);
}
);
width = 896;
}
);
},
{
glyphname = ring.uc;
layers = (
{
layerId = "D3CBDB62-9442-4B48-8AD1-7B332142411F";
paths = (
{
closed = 1;
nodes = (
"475 1890 OFFCURVE",
"585 2000 OFFCURVE",
"671 2000 QCURVE SMOOTH",
"757 2000 OFFCURVE",
"867 1890 OFFCURVE",
"867 1805 QCURVE SMOOTH",
"867 1720 OFFCURVE",
"757 1610 OFFCURVE",
"671 1610 QCURVE SMOOTH",
"585 1610 OFFCURVE",
"475 1720 OFFCURVE",
"475 1805 QCURVE SMOOTH"
);
},
{
closed = 1;
nodes = (
"547 1749 OFFCURVE",
"614 1681 OFFCURVE",
"671 1681 QCURVE SMOOTH",
"731 1681 OFFCURVE",
"795 1745 OFFCURVE",
"795 1805 QCURVE SMOOTH",
"795 1861 OFFCURVE",
"728 1929 OFFCURVE",
"671 1929 QCURVE SMOOTH",
"611 1929 OFFCURVE",
"547 1865 OFFCURVE",
"547 1805 QCURVE SMOOTH"
);
}
);
width = 896;
}
);
},
{
glyphname = hungarumlaut.uc;
layers = (
{
layerId = "D3CBDB62-9442-4B48-8AD1-7B332142411F";
paths = (
{
closed = 1;
nodes = (
"764 1847 OFFCURVE",
"743 1815 OFFCURVE",
"724 1800 QCURVE SMOOTH",
"474 1605 LINE",
"454 1621 LINE",
"631 1883 LINE SMOOTH",
"646 1906 OFFCURVE",
"684 1927 OFFCURVE",
"709 1927 QCURVE",
"726 1927 OFFCURVE",
"764 1895 OFFCURVE",
"764 1872 QCURVE SMOOTH"
);
},
{
closed = 1;
nodes = (
"1025 1847 OFFCURVE",
"1004 1815 OFFCURVE",
"985 1800 QCURVE SMOOTH",
"735 1605 LINE",
"715 1621 LINE",
"892 1883 LINE SMOOTH",
"907 1906 OFFCURVE",
"945 1927 OFFCURVE",
"970 1927 QCURVE",
"987 1927 OFFCURVE",
"1025 1895 OFFCURVE",
"1025 1872 QCURVE SMOOTH"
);
}
);
width = 896;
}
);
},
{
glyphname = caron.uc;
layers = (
{
layerId = "D3CBDB62-9442-4B48-8AD1-7B332142411F";
paths = (
{
closed = 1;
nodes = (
"638 1618 OFFCURVE",
"612 1663 OFFCURVE",
"597 1704 QCURVE SMOOTH",
"511 1941 LINE",
"529 1955 LINE",
"688 1742 LINE",
"953 1952 LINE",
"973 1935 LINE",
"768 1699 LINE SMOOTH",
"730 1655 OFFCURVE",
"696 1618 OFFCURVE",
"666 1618 QCURVE SMOOTH"
);
}
);
width = 896;
}
);
},
{
glyphname = dblgrave.uc;
layers = (
{
layerId = "D3CBDB62-9442-4B48-8AD1-7B332142411F";
paths = (
{
closed = 1;
nodes = (
"329 1892 OFFCURVE",
"368 1927 OFFCURVE",
"395 1927 QCURVE SMOOTH",
"415 1927 OFFCURVE",
"450 1902 OFFCURVE",
"462 1882 QCURVE SMOOTH",
"628 1605 LINE",
"606 1589 LINE",
"360 1797 LINE SMOOTH",
"344 1811 OFFCURVE",
"329 1845 OFFCURVE",
"329 1863 QCURVE SMOOTH"
);
},
{
closed = 1;
nodes = (
"646 1892 OFFCURVE",
"685 1927 OFFCURVE",
"712 1927 QCURVE SMOOTH",
"732 1927 OFFCURVE",
"767 1902 OFFCURVE",
"779 1882 QCURVE SMOOTH",
"945 1605 LINE",
"923 1589 LINE",
"677 1797 LINE SMOOTH",
"661 1811 OFFCURVE",
"646 1845 OFFCURVE",
"646 1863 QCURVE SMOOTH"
);
}
);
width = 896;
}
);
},
{
glyphname = breveinverted.uc;
layers = (
{
layerId = "D3CBDB62-9442-4B48-8AD1-7B332142411F";
paths = (
{
closed = 1;
nodes = (
"363 1672 LINE",
"405 1759 OFFCURVE",
"591 1868 OFFCURVE",
"701 1859 QCURVE SMOOTH",
"811 1848 OFFCURVE",
"922 1719 OFFCURVE",
"922 1632 QCURVE",
"878 1615 LINE",
"859 1671 OFFCURVE",
"759 1745 OFFCURVE",
"682 1754 QCURVE SMOOTH",
"595 1762 OFFCURVE",
"450 1697 OFFCURVE",
"399 1646 QCURVE"
);
}
);
width = 896;
}
);
},
{
glyphname = commaturnedabove.uc;
layers = (
{
layerId = "D3CBDB62-9442-4B48-8AD1-7B332142411F";
paths = (
{
closed = 1;
nodes = (
"789 1978 OFFCURVE",
"696 1877 OFFCURVE",
"673 1821 QCURVE",
"736 1827 OFFCURVE",
"802 1770 OFFCURVE",
"799 1724 QCURVE SMOOTH",
"797 1680 OFFCURVE",
"731 1612 OFFCURVE",
"679 1614 QCURVE SMOOTH",
"630 1616 OFFCURVE",
"573 1689 OFFCURVE",
"578 1739 QCURVE SMOOTH",
"585 1812 OFFCURVE",
"716 1967 OFFCURVE",
"820 2036 QCURVE",
"836 2014 LINE"
);
}
);
width = 896;
}
);
},
{
glyphname = horn.uc;
layers = (
{
layerId = "D3CBDB62-9442-4B48-8AD1-7B332142411F";
paths = (
{
closed = 1;
nodes = (
"240 1491 OFFCURVE",
"310 1483 OFFCURVE",
"339 1483 QCURVE SMOOTH",
"433 1483 OFFCURVE",
"506 1587 OFFCURVE",
"506 1708 QCURVE SMOOTH",
"506 1723 OFFCURVE",
"506 1754 OFFCURVE",
"506 1770 QCURVE",
"543 1770 LINE",
"556 1732 OFFCURVE",
"570 1659 OFFCURVE",
"570 1627 QCURVE SMOOTH",
"570 1532 OFFCURVE",
"460 1415 OFFCURVE",
"345 1415 QCURVE SMOOTH",
"309 1415 OFFCURVE",
"228 1430 OFFCURVE",
"179 1444 QCURVE",
"191 1500 LINE"
);
}
);
width = 896;
}
);
},
{
glyphname = dotbelow.uc;
layers = (
{
layerId = "D3CBDB62-9442-4B48-8AD1-7B332142411F";
paths = (
{
closed = 1;
nodes = (
"204 -176 OFFCURVE",
"258 -123 OFFCURVE",
"309 -123 QCURVE SMOOTH",
"357 -123 OFFCURVE",
"414 -180 OFFCURVE",
"414 -226 QCURVE SMOOTH",
"414 -276 OFFCURVE",
"360 -329 OFFCURVE",
"309 -329 QCURVE SMOOTH",
"261 -329 OFFCURVE",
"204 -272 OFFCURVE",
"204 -226 QCURVE SMOOTH"
);
}
);
width = 896;
}
);
},
{
glyphname = cedilla.uc;
layers = (
{
layerId = "D3CBDB62-9442-4B48-8AD1-7B332142411F";
paths = (
{
closed = 1;
nodes = (
"235 -109 LINE",
"255 -98 OFFCURVE",
"329 -76 OFFCURVE",
"358 -76 QCURVE SMOOTH",
"431 -76 OFFCURVE",
"529 -181 OFFCURVE",
"515 -270 QCURVE SMOOTH",
"500 -366 OFFCURVE",
"358 -458 OFFCURVE",
"263 -458 QCURVE SMOOTH",
"178 -458 OFFCURVE",
"54 -399 OFFCURVE",
"15 -344 QCURVE",
"38 -327 LINE",
"70 -360 OFFCURVE",
"157 -408 OFFCURVE",
"234 -408 QCURVE SMOOTH",
"320 -408 OFFCURVE",
"401 -327 OFFCURVE",
"410 -267 QCURVE SMOOTH",
"417 -217 OFFCURVE",
"357 -137 OFFCURVE",
"301 -137 QCURVE SMOOTH",
"271 -137 OFFCURVE",
"222 -152 OFFCURVE",
"203 -160 QCURVE",
"188 -127 LINE",
"276 10 LINE",
"295 -3 LINE"
);
}
);
width = 896;
}
);
},
{
glyphname = ogonek.uc;
layers = (
{
layerId = "D3CBDB62-9442-4B48-8AD1-7B332142411F";
paths = (
{
closed = 1;
nodes = (
"236 -254 OFFCURVE",
"299 -319 OFFCURVE",
"351 -319 QCURVE SMOOTH",
"415 -319 OFFCURVE",
"513 -281 OFFCURVE",
"581 -223 QCURVE",
"596 -239 LINE",
"547 -310 OFFCURVE",
"407 -413 OFFCURVE",
"328 -413 QCURVE SMOOTH",
"249 -414 OFFCURVE",
"136 -334 OFFCURVE",
"141 -255 QCURVE SMOOTH",
"146 -163 OFFCURVE",
"267 -28 OFFCURVE",
"346 22 QCURVE SMOOTH",
"377 41 LINE",
"396 20 LINE",
"381 7 LINE SMOOTH",
"293 -70 OFFCURVE",
"243 -156 OFFCURVE",
"239 -203 QCURVE SMOOTH"
);
}
);
width = 896;
}
);
},
{
glyphname = brevebelow.uc;
layers = (
{
layerId = "D3CBDB62-9442-4B48-8AD1-7B332142411F";
paths = (
{
closed = 1;
nodes = (
"571 -172 LINE",
"529 -262 OFFCURVE",
"358 -389 OFFCURVE",
"248 -389 QCURVE SMOOTH",
"148 -389 OFFCURVE",
"9 -251 OFFCURVE",
"15 -157 QCURVE",
"53 -143 LINE",
"71 -199 OFFCURVE",
"187 -288 OFFCURVE",
"263 -288 QCURVE SMOOTH",
"348 -288 OFFCURVE",
"502 -209 OFFCURVE",
"544 -156 QCURVE"
);
}
);
width = 896;
}
);
},
{
glyphname = commaaccent.uc;
layers = (
{
layerId = "D3CBDB62-9442-4B48-8AD1-7B332142411F";
paths = (
{
closed = 1;
nodes = (
"81 -554 LINE",
"193 -486 OFFCURVE",
"348 -319 OFFCURVE",
"348 -235 QCURVE",
"349 -186 OFFCURVE",
"292 -123 OFFCURVE",
"244 -123 QCURVE SMOOTH",
"199 -123 OFFCURVE",
"133 -184 OFFCURVE",
"133 -231 QCURVE SMOOTH",
"133 -274 OFFCURVE",
"194 -334 OFFCURVE",
"246 -334 QCURVE",
"232 -379 OFFCURVE",
"132 -482 OFFCURVE",
"65 -531 QCURVE"
);
}
);
width = 896;
}
);
},
{
glyphname = macronbelow.uc;
layers = (
{
layerId = "D3CBDB62-9442-4B48-8AD1-7B332142411F";
paths = (
{
closed = 1;
nodes = (
"20 -206 LINE",
"542 -206 LINE",
"542 -301 LINE",
"20 -301 LINE"
);
}
);
width = 896;
}
);
},
{
glyphname = circumflex_acute.uc;
layers = (
{
layerId = "D3CBDB62-9442-4B48-8AD1-7B332142411F";
paths = (
{
closed = 1;
nodes = (
"850 1582 LINE",
"832 1569 LINE",
"689 1761 LINE",
"431 1580 LINE",
"415 1599 LINE",
"610 1802 LINE SMOOTH",
"657 1850 OFFCURVE",
"690 1880 OFFCURVE",
"719 1880 QCURVE SMOOTH",
"742 1880 OFFCURVE",
"764 1839 OFFCURVE",
"777 1798 QCURVE SMOOTH"
);
},
{
closed = 1;
nodes = (
"552 1911 LINE",
"541 1934 LINE",
"790 2086 LINE SMOOTH",
"807 2096 OFFCURVE",
"843 2111 OFFCURVE",
"853 2111 QCURVE SMOOTH",
"885 2111 OFFCURVE",
"918 2079 OFFCURVE",
"918 2054 QCURVE SMOOTH",
"918 2027 OFFCURVE",
"877 1989 OFFCURVE",
"840 1980 QCURVE SMOOTH"
);
}
);
width = 896;
}
);
},
{
glyphname = circumflex_grave.uc;
layers = (
{
layerId = "D3CBDB62-9442-4B48-8AD1-7B332142411F";
paths = (
{
closed = 1;
nodes = (
"429 1580 LINE",
"687 1761 LINE",
"830 1569 LINE",
"848 1582 LINE",
"775 1798 LINE SMOOTH",
"762 1839 OFFCURVE",
"740 1880 OFFCURVE",
"717 1880 QCURVE SMOOTH",
"688 1880 OFFCURVE",
"655 1850 OFFCURVE",
"608 1802 QCURVE SMOOTH",
"413 1599 LINE"
);
},
{
closed = 1;
nodes = (
"887 1912 LINE",
"898 1935 LINE",
"672 2083 LINE SMOOTH",
"655 2094 OFFCURVE",
"621 2108 OFFCURVE",
"606 2108 QCURVE SMOOTH",
"574 2108 OFFCURVE",
"540 2070 OFFCURVE",
"540 2050 QCURVE SMOOTH",
"540 2023 OFFCURVE",
"581 1988 OFFCURVE",
"618 1979 QCURVE SMOOTH"
);
}
);
width = 896;
}
);
},
{
glyphname = circumflex_hookabove.uc;
layers = (
{
layerId = "D3CBDB62-9442-4B48-8AD1-7B332142411F";
paths = (
{
closed = 1;
nodes = (
"706 1880 OFFCURVE",
"728 1839 OFFCURVE",
"741 1798 QCURVE SMOOTH",
"814 1582 LINE",
"796 1569 LINE",
"653 1761 LINE",
"395 1580 LINE",
"379 1599 LINE",
"574 1802 LINE SMOOTH",
"621 1850 OFFCURVE",
"654 1880 OFFCURVE",
"683 1880 QCURVE SMOOTH"
);
},
{
closed = 1;
nodes = (
"889 1734 LINE",
"913 1759 LINE",
"931 1756 OFFCURVE",
"972 1746 OFFCURVE",
"987 1746 QCURVE SMOOTH",
"1048 1746 OFFCURVE",
"1109 1804 OFFCURVE",
"1109 1847 QCURVE",
"1109 1876 OFFCURVE",
"1088 1909 OFFCURVE",
"1069 1918 QCURVE SMOOTH",
"1028 1935 OFFCURVE",
"911 1918 OFFCURVE",
"857 1898 QCURVE",
"849 1924 LINE",
"886 1950 OFFCURVE",
"1045 2000 OFFCURVE",
"1115 1985 QCURVE SMOOTH",
"1163 1975 OFFCURVE",
"1221 1905 OFFCURVE",
"1221 1859 QCURVE SMOOTH",
"1221 1786 OFFCURVE",
"1104 1689 OFFCURVE",
"1017 1687 QCURVE SMOOTH",
"995 1687 OFFCURVE",
"948 1693 OFFCURVE",
"926 1699 QCURVE",
"910 1626 LINE",
"863 1626 LINE"
);
}
);
width = 896;
}
);
},
{
glyphname = circumflex_tilde.uc;
layers = (
{
layerId = "D3CBDB62-9442-4B48-8AD1-7B332142411F";
paths = (
{
closed = 1;
nodes = (
"764 1964 OFFCURVE",
"844 1921 OFFCURVE",
"881 1921 QCURVE SMOOTH",
"924 1921 OFFCURVE",
"1013 1999 OFFCURVE",
"1041 2058 QCURVE",
"1019 2079 LINE",
"998 2053 OFFCURVE",
"954 2015 OFFCURVE",
"914 2015 QCURVE",
"885 2015 OFFCURVE",
"821 2058 OFFCURVE",
"784 2086 QCURVE SMOOTH",
"746 2116 OFFCURVE",
"686 2133 OFFCURVE",
"653 2131 QCURVE SMOOTH",
"611 2129 OFFCURVE",
"501 2036 OFFCURVE",
"476 1987 QCURVE",
"498 1963 LINE",
"522 1992 OFFCURVE",
"594 2037 OFFCURVE",
"627 2037 QCURVE SMOOTH",
"653 2037 OFFCURVE",
"718 1998 OFFCURVE",
"742 1979 QCURVE SMOOTH"
);
},
{
closed = 1;
nodes = (
"436 1580 LINE",
"694 1761 LINE",
"837 1569 LINE",
"855 1582 LINE",
"782 1798 LINE SMOOTH",
"769 1839 OFFCURVE",
"747 1880 OFFCURVE",
"724 1880 QCURVE SMOOTH",
"695 1880 OFFCURVE",
"662 1850 OFFCURVE",
"615 1802 QCURVE SMOOTH",
"420 1599 LINE"
);
}
);
width = 896;
}
);
},
